<mxfile host="app.diagrams.net" agent="Mozilla/5.0 (Windows NT 10.0; Win64; x64) AppleWebKit/537.36 (KHTML, like Gecko) Chrome/131.0.0.0 Safari/537.36" version="25.0.1" pages="2">
  <diagram name="Страница — 1" id="ijxovVV1rgF7gnz3EdBH">
    <mxGraphModel dx="1059" dy="605" grid="1" gridSize="10" guides="1" tooltips="1" connect="1" arrows="1" fold="1" page="1" pageScale="1" pageWidth="1169" pageHeight="1654" math="0" shadow="0">
      <root>
        <mxCell id="0" />
        <mxCell id="1" parent="0" />
        <mxCell id="AkS7lIhU_IYrqKkZwIAo-1" value="&lt;h1 style=&quot;margin-top: 0px;&quot;&gt;1. Архитектура&lt;/h1&gt;&lt;p style=&quot;line-height: 50%; font-size: 14px;&quot;&gt;&lt;font style=&quot;font-size: 14px;&quot;&gt;&lt;span style=&quot;background-color: initial;&quot;&gt;Фронтенд – это схематичный веб или мобильное приложение системы. Также фронтенд&amp;nbsp;&lt;/span&gt;&lt;/font&gt;&lt;span style=&quot;background-color: initial;&quot;&gt;называют клиентом&lt;/span&gt;&lt;/p&gt;&lt;p style=&quot;line-height: 50%; font-size: 14px;&quot;&gt;&lt;font style=&quot;font-size: 14px;&quot;&gt;Бэкенд – это внутренний сервер системы проекта. Сервер обращается к базе данных с&amp;nbsp;&lt;/font&gt;&lt;span style=&quot;background-color: initial;&quot;&gt;полученными данными от клиента&amp;nbsp;&lt;/span&gt;&lt;/p&gt;&lt;p style=&quot;line-height: 50%; font-size: 14px;&quot;&gt;&lt;font style=&quot;font-size: 14px;&quot;&gt;База данных – это хранилище данных, с которыми будет работать сервер.&lt;/font&gt;&lt;/p&gt;&lt;p&gt;&lt;br&gt;&lt;/p&gt;" style="text;html=1;whiteSpace=wrap;overflow=hidden;rounded=0;" parent="1" vertex="1">
          <mxGeometry x="20" y="10" width="1130" height="170" as="geometry" />
        </mxCell>
        <mxCell id="AkS7lIhU_IYrqKkZwIAo-2" value="" style="rounded=1;whiteSpace=wrap;html=1;" parent="1" vertex="1">
          <mxGeometry x="60" y="160" width="140" height="240" as="geometry" />
        </mxCell>
        <mxCell id="AkS7lIhU_IYrqKkZwIAo-3" value="" style="ellipse;whiteSpace=wrap;html=1;" parent="1" vertex="1">
          <mxGeometry x="115" y="360" width="30" height="30" as="geometry" />
        </mxCell>
        <mxCell id="AkS7lIhU_IYrqKkZwIAo-4" value="" style="rounded=1;whiteSpace=wrap;html=1;" parent="1" vertex="1">
          <mxGeometry x="268" y="185" width="180" height="190" as="geometry" />
        </mxCell>
        <mxCell id="AkS7lIhU_IYrqKkZwIAo-5" value="" style="shape=cylinder3;whiteSpace=wrap;html=1;boundedLbl=1;backgroundOutline=1;size=15;" parent="1" vertex="1">
          <mxGeometry x="525" y="195" width="145" height="170" as="geometry" />
        </mxCell>
        <mxCell id="AkS7lIhU_IYrqKkZwIAo-7" value="&lt;b&gt;&lt;font style=&quot;font-size: 17px;&quot;&gt;PG&lt;/font&gt;&lt;/b&gt;" style="text;html=1;align=center;verticalAlign=middle;whiteSpace=wrap;rounded=0;" parent="1" vertex="1">
          <mxGeometry x="600" y="240" width="60" height="30" as="geometry" />
        </mxCell>
        <mxCell id="AkS7lIhU_IYrqKkZwIAo-8" value="&lt;font style=&quot;font-size: 18px;&quot;&gt;&lt;b&gt;A&lt;/b&gt;&lt;/font&gt;" style="text;html=1;align=center;verticalAlign=middle;whiteSpace=wrap;rounded=0;" parent="1" vertex="1">
          <mxGeometry x="100" y="130" width="60" height="30" as="geometry" />
        </mxCell>
        <mxCell id="AkS7lIhU_IYrqKkZwIAo-9" value="&lt;font style=&quot;font-size: 18px;&quot;&gt;&lt;b&gt;B&lt;/b&gt;&lt;/font&gt;" style="text;html=1;align=center;verticalAlign=middle;whiteSpace=wrap;rounded=0;" parent="1" vertex="1">
          <mxGeometry x="328" y="150" width="60" height="30" as="geometry" />
        </mxCell>
        <mxCell id="AkS7lIhU_IYrqKkZwIAo-10" value="&lt;font style=&quot;font-size: 18px;&quot;&gt;&lt;b&gt;C&lt;/b&gt;&lt;/font&gt;" style="text;html=1;align=center;verticalAlign=middle;whiteSpace=wrap;rounded=0;" parent="1" vertex="1">
          <mxGeometry x="567.5" y="150" width="60" height="30" as="geometry" />
        </mxCell>
        <mxCell id="AkS7lIhU_IYrqKkZwIAo-11" value="" style="endArrow=classic;startArrow=classic;html=1;rounded=0;exitX=1;exitY=0.5;exitDx=0;exitDy=0;" parent="1" source="AkS7lIhU_IYrqKkZwIAo-2" target="AkS7lIhU_IYrqKkZwIAo-4" edge="1">
          <mxGeometry width="50" height="50" relative="1" as="geometry">
            <mxPoint x="420" y="270" as="sourcePoint" />
            <mxPoint x="470" y="220" as="targetPoint" />
          </mxGeometry>
        </mxCell>
        <mxCell id="AkS7lIhU_IYrqKkZwIAo-12" value="&lt;font size=&quot;1&quot; style=&quot;&quot;&gt;&lt;b style=&quot;font-size: 20px;&quot;&gt;1&lt;/b&gt;&lt;/font&gt;" style="edgeLabel;html=1;align=center;verticalAlign=middle;resizable=0;points=[];" parent="AkS7lIhU_IYrqKkZwIAo-11" vertex="1" connectable="0">
          <mxGeometry x="-0.0046" y="2" relative="1" as="geometry">
            <mxPoint as="offset" />
          </mxGeometry>
        </mxCell>
        <mxCell id="AkS7lIhU_IYrqKkZwIAo-13" value="" style="endArrow=classic;startArrow=classic;html=1;rounded=0;entryX=0;entryY=0.5;entryDx=0;entryDy=0;entryPerimeter=0;exitX=1;exitY=0.5;exitDx=0;exitDy=0;" parent="1" source="AkS7lIhU_IYrqKkZwIAo-4" target="AkS7lIhU_IYrqKkZwIAo-5" edge="1">
          <mxGeometry width="50" height="50" relative="1" as="geometry">
            <mxPoint x="470" y="310" as="sourcePoint" />
            <mxPoint x="470" y="220" as="targetPoint" />
          </mxGeometry>
        </mxCell>
        <mxCell id="AkS7lIhU_IYrqKkZwIAo-14" value="&lt;font style=&quot;font-size: 18px;&quot;&gt;&lt;b&gt;2&lt;/b&gt;&lt;/font&gt;" style="edgeLabel;html=1;align=center;verticalAlign=middle;resizable=0;points=[];" parent="AkS7lIhU_IYrqKkZwIAo-13" vertex="1" connectable="0">
          <mxGeometry x="-0.0232" y="1" relative="1" as="geometry">
            <mxPoint as="offset" />
          </mxGeometry>
        </mxCell>
        <mxCell id="AkS7lIhU_IYrqKkZwIAo-15" value="&lt;font style=&quot;font-size: 14px;&quot;&gt;A - фронтенд, мобильное приложение&lt;/font&gt;&lt;div&gt;&lt;font style=&quot;font-size: 14px;&quot;&gt;B - бэкенд/сервер&lt;/font&gt;&lt;/div&gt;&lt;div&gt;&lt;font style=&quot;font-size: 14px;&quot;&gt;C - реляционная база данных, PG&lt;/font&gt;&lt;/div&gt;&lt;div&gt;&lt;font style=&quot;font-size: 14px;&quot;&gt;&lt;br&gt;&lt;/font&gt;&lt;/div&gt;&lt;div&gt;&lt;font style=&quot;font-size: 14px;&quot;&gt;1 - протокол взаимодействия http(s)&lt;/font&gt;&lt;/div&gt;&lt;div&gt;&lt;font style=&quot;font-size: 14px;&quot;&gt;2 - JDBC&lt;/font&gt;&lt;/div&gt;" style="text;html=1;align=left;verticalAlign=top;whiteSpace=wrap;rounded=0;" parent="1" vertex="1">
          <mxGeometry x="190" y="420" width="460" height="110" as="geometry" />
        </mxCell>
        <mxCell id="ub23vjz9PENQ5aywY2CP-2" value="&lt;h1 style=&quot;margin-top: 0px; line-height: 160%;&quot;&gt;2. Модель данных&lt;/h1&gt;&lt;p style=&quot;line-height: 160%;&quot;&gt;&lt;span style=&quot;font-size: 14px;&quot;&gt;Модель данных – это представление данных, атрибутного состава сущностей, как сущности&amp;nbsp;&lt;/span&gt;&lt;span style=&quot;font-size: 14px; background-color: initial;&quot;&gt;связаны друг с другом. Объект Заказ выходит за рамки рассматриваемой user story, однако считаю полезным ее отобразить для понимания связи Клиент-фотограф в финальном сценарии.&lt;/span&gt;&lt;/p&gt;" style="text;html=1;whiteSpace=wrap;overflow=hidden;rounded=0;" parent="1" vertex="1">
          <mxGeometry x="20" y="540" width="1120" height="120" as="geometry" />
        </mxCell>
        <mxCell id="ub23vjz9PENQ5aywY2CP-6" style="edgeStyle=orthogonalEdgeStyle;rounded=0;orthogonalLoop=1;jettySize=auto;html=1;entryX=0;entryY=0.5;entryDx=0;entryDy=0;" parent="1" source="ub23vjz9PENQ5aywY2CP-3" target="ub23vjz9PENQ5aywY2CP-5" edge="1">
          <mxGeometry relative="1" as="geometry">
            <Array as="points">
              <mxPoint x="72.5" y="770" />
            </Array>
          </mxGeometry>
        </mxCell>
        <mxCell id="ub23vjz9PENQ5aywY2CP-8" value="Оформляет" style="edgeLabel;html=1;align=center;verticalAlign=middle;resizable=0;points=[];" parent="ub23vjz9PENQ5aywY2CP-6" vertex="1" connectable="0">
          <mxGeometry x="-0.22" relative="1" as="geometry">
            <mxPoint y="-17" as="offset" />
          </mxGeometry>
        </mxCell>
        <mxCell id="ub23vjz9PENQ5aywY2CP-10" style="edgeStyle=orthogonalEdgeStyle;rounded=0;orthogonalLoop=1;jettySize=auto;html=1;" parent="1" source="ub23vjz9PENQ5aywY2CP-3" target="ub23vjz9PENQ5aywY2CP-4" edge="1">
          <mxGeometry relative="1" as="geometry" />
        </mxCell>
        <mxCell id="ub23vjz9PENQ5aywY2CP-11" value="Выбирает" style="edgeLabel;html=1;align=center;verticalAlign=middle;resizable=0;points=[];" parent="ub23vjz9PENQ5aywY2CP-10" vertex="1" connectable="0">
          <mxGeometry x="-0.1148" y="1" relative="1" as="geometry">
            <mxPoint as="offset" />
          </mxGeometry>
        </mxCell>
        <mxCell id="ub23vjz9PENQ5aywY2CP-3" value="Клиент" style="rounded=1;whiteSpace=wrap;html=1;" parent="1" vertex="1">
          <mxGeometry x="27.5" y="670" width="90" height="40" as="geometry" />
        </mxCell>
        <mxCell id="ub23vjz9PENQ5aywY2CP-7" style="edgeStyle=orthogonalEdgeStyle;rounded=0;orthogonalLoop=1;jettySize=auto;html=1;entryX=1;entryY=0.5;entryDx=0;entryDy=0;" parent="1" source="ub23vjz9PENQ5aywY2CP-4" target="ub23vjz9PENQ5aywY2CP-5" edge="1">
          <mxGeometry relative="1" as="geometry">
            <Array as="points">
              <mxPoint x="285.5" y="770" />
            </Array>
          </mxGeometry>
        </mxCell>
        <mxCell id="ub23vjz9PENQ5aywY2CP-9" value="Подтверждает" style="edgeLabel;html=1;align=center;verticalAlign=middle;resizable=0;points=[];" parent="ub23vjz9PENQ5aywY2CP-7" vertex="1" connectable="0">
          <mxGeometry x="-0.4071" y="1" relative="1" as="geometry">
            <mxPoint x="-1" y="-6" as="offset" />
          </mxGeometry>
        </mxCell>
        <mxCell id="WX2nrQJQql0S8Ajp5fCX-50" style="edgeStyle=orthogonalEdgeStyle;rounded=0;orthogonalLoop=1;jettySize=auto;html=1;" parent="1" source="ub23vjz9PENQ5aywY2CP-4" target="WX2nrQJQql0S8Ajp5fCX-49" edge="1">
          <mxGeometry relative="1" as="geometry" />
        </mxCell>
        <mxCell id="WX2nrQJQql0S8Ajp5fCX-51" value="Добавляет&lt;div&gt;в профиль&lt;/div&gt;" style="edgeLabel;html=1;align=center;verticalAlign=middle;resizable=0;points=[];" parent="WX2nrQJQql0S8Ajp5fCX-50" vertex="1" connectable="0">
          <mxGeometry x="-0.0969" y="-2" relative="1" as="geometry">
            <mxPoint as="offset" />
          </mxGeometry>
        </mxCell>
        <mxCell id="ub23vjz9PENQ5aywY2CP-4" value="Фотограф" style="rounded=1;whiteSpace=wrap;html=1;" parent="1" vertex="1">
          <mxGeometry x="240.5" y="670" width="90" height="40" as="geometry" />
        </mxCell>
        <mxCell id="ub23vjz9PENQ5aywY2CP-5" value="Заказ" style="rounded=1;whiteSpace=wrap;html=1;" parent="1" vertex="1">
          <mxGeometry x="132.5" y="750" width="90" height="40" as="geometry" />
        </mxCell>
        <mxCell id="ub23vjz9PENQ5aywY2CP-14" value="" style="shape=table;startSize=0;container=1;collapsible=0;childLayout=tableLayout;fontSize=16;" parent="1" vertex="1">
          <mxGeometry x="32.5" y="840" width="890" height="302" as="geometry" />
        </mxCell>
        <mxCell id="ub23vjz9PENQ5aywY2CP-15" value="" style="shape=tableRow;horizontal=0;startSize=0;swimlaneHead=0;swimlaneBody=0;strokeColor=inherit;top=0;left=0;bottom=0;right=0;collapsible=0;dropTarget=0;fillColor=none;points=[[0,0.5],[1,0.5]];portConstraint=eastwest;fontSize=16;" parent="ub23vjz9PENQ5aywY2CP-14" vertex="1">
          <mxGeometry width="890" height="37" as="geometry" />
        </mxCell>
        <mxCell id="ub23vjz9PENQ5aywY2CP-16" value="Родительская сущность" style="shape=partialRectangle;html=1;whiteSpace=wrap;connectable=0;strokeColor=#666666;overflow=hidden;fillColor=#f5f5f5;top=0;left=0;bottom=0;right=0;pointerEvents=1;fontSize=16;fontStyle=1;fontColor=#333333;perimeterSpacing=1;" parent="ub23vjz9PENQ5aywY2CP-15" vertex="1">
          <mxGeometry width="240" height="37" as="geometry">
            <mxRectangle width="240" height="37" as="alternateBounds" />
          </mxGeometry>
        </mxCell>
        <mxCell id="ub23vjz9PENQ5aywY2CP-17" value="Атрибут" style="shape=partialRectangle;html=1;whiteSpace=wrap;connectable=0;strokeColor=#666666;overflow=hidden;fillColor=#f5f5f5;top=0;left=0;bottom=0;right=0;pointerEvents=1;fontSize=16;fontStyle=1;fontColor=#333333;perimeterSpacing=1;" parent="ub23vjz9PENQ5aywY2CP-15" vertex="1">
          <mxGeometry x="240" width="340" height="37" as="geometry">
            <mxRectangle width="340" height="37" as="alternateBounds" />
          </mxGeometry>
        </mxCell>
        <mxCell id="ub23vjz9PENQ5aywY2CP-18" value="Описание" style="shape=partialRectangle;html=1;whiteSpace=wrap;connectable=0;strokeColor=#666666;overflow=hidden;fillColor=#f5f5f5;top=0;left=0;bottom=0;right=0;pointerEvents=1;fontSize=16;fontStyle=1;fontColor=#333333;perimeterSpacing=1;" parent="ub23vjz9PENQ5aywY2CP-15" vertex="1">
          <mxGeometry x="580" width="310" height="37" as="geometry">
            <mxRectangle width="310" height="37" as="alternateBounds" />
          </mxGeometry>
        </mxCell>
        <mxCell id="ub23vjz9PENQ5aywY2CP-19" value="" style="shape=tableRow;horizontal=0;startSize=0;swimlaneHead=0;swimlaneBody=0;strokeColor=inherit;top=0;left=0;bottom=0;right=0;collapsible=0;dropTarget=0;fillColor=none;points=[[0,0.5],[1,0.5]];portConstraint=eastwest;fontSize=16;" parent="ub23vjz9PENQ5aywY2CP-14" vertex="1">
          <mxGeometry y="37" width="890" height="43" as="geometry" />
        </mxCell>
        <mxCell id="ub23vjz9PENQ5aywY2CP-20" value="Client" style="shape=partialRectangle;html=1;whiteSpace=wrap;connectable=0;strokeColor=inherit;overflow=hidden;fillColor=none;top=0;left=0;bottom=0;right=0;pointerEvents=1;fontSize=16;" parent="ub23vjz9PENQ5aywY2CP-19" vertex="1">
          <mxGeometry width="240" height="43" as="geometry">
            <mxRectangle width="240" height="43" as="alternateBounds" />
          </mxGeometry>
        </mxCell>
        <mxCell id="ub23vjz9PENQ5aywY2CP-21" value="-------" style="shape=partialRectangle;html=1;whiteSpace=wrap;connectable=0;strokeColor=inherit;overflow=hidden;fillColor=none;top=0;left=0;bottom=0;right=0;pointerEvents=1;fontSize=16;" parent="ub23vjz9PENQ5aywY2CP-19" vertex="1">
          <mxGeometry x="240" width="340" height="43" as="geometry">
            <mxRectangle width="340" height="43" as="alternateBounds" />
          </mxGeometry>
        </mxCell>
        <mxCell id="ub23vjz9PENQ5aywY2CP-22" value="Профиль клиента в приложении" style="shape=partialRectangle;html=1;whiteSpace=wrap;connectable=0;strokeColor=inherit;overflow=hidden;fillColor=none;top=0;left=0;bottom=0;right=0;pointerEvents=1;fontSize=16;align=left;" parent="ub23vjz9PENQ5aywY2CP-19" vertex="1">
          <mxGeometry x="580" width="310" height="43" as="geometry">
            <mxRectangle width="310" height="43" as="alternateBounds" />
          </mxGeometry>
        </mxCell>
        <mxCell id="ub23vjz9PENQ5aywY2CP-40" style="shape=tableRow;horizontal=0;startSize=0;swimlaneHead=0;swimlaneBody=0;strokeColor=inherit;top=0;left=0;bottom=0;right=0;collapsible=0;dropTarget=0;fillColor=none;points=[[0,0.5],[1,0.5]];portConstraint=eastwest;fontSize=16;" parent="ub23vjz9PENQ5aywY2CP-14" vertex="1">
          <mxGeometry y="80" width="890" height="37" as="geometry" />
        </mxCell>
        <mxCell id="ub23vjz9PENQ5aywY2CP-41" style="shape=partialRectangle;html=1;whiteSpace=wrap;connectable=0;strokeColor=inherit;overflow=hidden;fillColor=none;top=0;left=0;bottom=0;right=0;pointerEvents=1;fontSize=16;" parent="ub23vjz9PENQ5aywY2CP-40" vertex="1">
          <mxGeometry width="240" height="37" as="geometry">
            <mxRectangle width="240" height="37" as="alternateBounds" />
          </mxGeometry>
        </mxCell>
        <mxCell id="ub23vjz9PENQ5aywY2CP-42" value="tel_number" style="shape=partialRectangle;html=1;whiteSpace=wrap;connectable=0;strokeColor=inherit;overflow=hidden;fillColor=none;top=0;left=0;bottom=0;right=0;pointerEvents=1;fontSize=16;" parent="ub23vjz9PENQ5aywY2CP-40" vertex="1">
          <mxGeometry x="240" width="340" height="37" as="geometry">
            <mxRectangle width="340" height="37" as="alternateBounds" />
          </mxGeometry>
        </mxCell>
        <mxCell id="ub23vjz9PENQ5aywY2CP-43" value="Номер телефона" style="shape=partialRectangle;html=1;whiteSpace=wrap;connectable=0;strokeColor=inherit;overflow=hidden;fillColor=none;top=0;left=0;bottom=0;right=0;pointerEvents=1;fontSize=16;" parent="ub23vjz9PENQ5aywY2CP-40" vertex="1">
          <mxGeometry x="580" width="310" height="37" as="geometry">
            <mxRectangle width="310" height="37" as="alternateBounds" />
          </mxGeometry>
        </mxCell>
        <mxCell id="ub23vjz9PENQ5aywY2CP-36" style="shape=tableRow;horizontal=0;startSize=0;swimlaneHead=0;swimlaneBody=0;strokeColor=inherit;top=0;left=0;bottom=0;right=0;collapsible=0;dropTarget=0;fillColor=none;points=[[0,0.5],[1,0.5]];portConstraint=eastwest;fontSize=16;" parent="ub23vjz9PENQ5aywY2CP-14" vertex="1">
          <mxGeometry y="117" width="890" height="37" as="geometry" />
        </mxCell>
        <mxCell id="ub23vjz9PENQ5aywY2CP-37" style="shape=partialRectangle;html=1;whiteSpace=wrap;connectable=0;strokeColor=inherit;overflow=hidden;fillColor=none;top=0;left=0;bottom=0;right=0;pointerEvents=1;fontSize=16;" parent="ub23vjz9PENQ5aywY2CP-36" vertex="1">
          <mxGeometry width="240" height="37" as="geometry">
            <mxRectangle width="240" height="37" as="alternateBounds" />
          </mxGeometry>
        </mxCell>
        <mxCell id="ub23vjz9PENQ5aywY2CP-38" value="name" style="shape=partialRectangle;html=1;whiteSpace=wrap;connectable=0;strokeColor=inherit;overflow=hidden;fillColor=none;top=0;left=0;bottom=0;right=0;pointerEvents=1;fontSize=16;" parent="ub23vjz9PENQ5aywY2CP-36" vertex="1">
          <mxGeometry x="240" width="340" height="37" as="geometry">
            <mxRectangle width="340" height="37" as="alternateBounds" />
          </mxGeometry>
        </mxCell>
        <mxCell id="ub23vjz9PENQ5aywY2CP-39" value="Имя" style="shape=partialRectangle;html=1;whiteSpace=wrap;connectable=0;strokeColor=inherit;overflow=hidden;fillColor=none;top=0;left=0;bottom=0;right=0;pointerEvents=1;fontSize=16;" parent="ub23vjz9PENQ5aywY2CP-36" vertex="1">
          <mxGeometry x="580" width="310" height="37" as="geometry">
            <mxRectangle width="310" height="37" as="alternateBounds" />
          </mxGeometry>
        </mxCell>
        <mxCell id="ub23vjz9PENQ5aywY2CP-32" style="shape=tableRow;horizontal=0;startSize=0;swimlaneHead=0;swimlaneBody=0;strokeColor=inherit;top=0;left=0;bottom=0;right=0;collapsible=0;dropTarget=0;fillColor=none;points=[[0,0.5],[1,0.5]];portConstraint=eastwest;fontSize=16;" parent="ub23vjz9PENQ5aywY2CP-14" vertex="1">
          <mxGeometry y="154" width="890" height="37" as="geometry" />
        </mxCell>
        <mxCell id="ub23vjz9PENQ5aywY2CP-33" style="shape=partialRectangle;html=1;whiteSpace=wrap;connectable=0;strokeColor=inherit;overflow=hidden;fillColor=none;top=0;left=0;bottom=0;right=0;pointerEvents=1;fontSize=16;" parent="ub23vjz9PENQ5aywY2CP-32" vertex="1">
          <mxGeometry width="240" height="37" as="geometry">
            <mxRectangle width="240" height="37" as="alternateBounds" />
          </mxGeometry>
        </mxCell>
        <mxCell id="ub23vjz9PENQ5aywY2CP-34" value="surname" style="shape=partialRectangle;html=1;whiteSpace=wrap;connectable=0;strokeColor=inherit;overflow=hidden;fillColor=none;top=0;left=0;bottom=0;right=0;pointerEvents=1;fontSize=16;" parent="ub23vjz9PENQ5aywY2CP-32" vertex="1">
          <mxGeometry x="240" width="340" height="37" as="geometry">
            <mxRectangle width="340" height="37" as="alternateBounds" />
          </mxGeometry>
        </mxCell>
        <mxCell id="ub23vjz9PENQ5aywY2CP-35" value="Фамилия" style="shape=partialRectangle;html=1;whiteSpace=wrap;connectable=0;strokeColor=inherit;overflow=hidden;fillColor=none;top=0;left=0;bottom=0;right=0;pointerEvents=1;fontSize=16;" parent="ub23vjz9PENQ5aywY2CP-32" vertex="1">
          <mxGeometry x="580" width="310" height="37" as="geometry">
            <mxRectangle width="310" height="37" as="alternateBounds" />
          </mxGeometry>
        </mxCell>
        <mxCell id="ub23vjz9PENQ5aywY2CP-28" style="shape=tableRow;horizontal=0;startSize=0;swimlaneHead=0;swimlaneBody=0;strokeColor=inherit;top=0;left=0;bottom=0;right=0;collapsible=0;dropTarget=0;fillColor=none;points=[[0,0.5],[1,0.5]];portConstraint=eastwest;fontSize=16;" parent="ub23vjz9PENQ5aywY2CP-14" vertex="1">
          <mxGeometry y="191" width="890" height="37" as="geometry" />
        </mxCell>
        <mxCell id="ub23vjz9PENQ5aywY2CP-29" style="shape=partialRectangle;html=1;whiteSpace=wrap;connectable=0;strokeColor=inherit;overflow=hidden;fillColor=none;top=0;left=0;bottom=0;right=0;pointerEvents=1;fontSize=16;" parent="ub23vjz9PENQ5aywY2CP-28" vertex="1">
          <mxGeometry width="240" height="37" as="geometry">
            <mxRectangle width="240" height="37" as="alternateBounds" />
          </mxGeometry>
        </mxCell>
        <mxCell id="ub23vjz9PENQ5aywY2CP-30" value="patronymic" style="shape=partialRectangle;html=1;whiteSpace=wrap;connectable=0;strokeColor=inherit;overflow=hidden;fillColor=none;top=0;left=0;bottom=0;right=0;pointerEvents=1;fontSize=16;" parent="ub23vjz9PENQ5aywY2CP-28" vertex="1">
          <mxGeometry x="240" width="340" height="37" as="geometry">
            <mxRectangle width="340" height="37" as="alternateBounds" />
          </mxGeometry>
        </mxCell>
        <mxCell id="ub23vjz9PENQ5aywY2CP-31" value="Отчество" style="shape=partialRectangle;html=1;whiteSpace=wrap;connectable=0;strokeColor=inherit;overflow=hidden;fillColor=none;top=0;left=0;bottom=0;right=0;pointerEvents=1;fontSize=16;" parent="ub23vjz9PENQ5aywY2CP-28" vertex="1">
          <mxGeometry x="580" width="310" height="37" as="geometry">
            <mxRectangle width="310" height="37" as="alternateBounds" />
          </mxGeometry>
        </mxCell>
        <mxCell id="ub23vjz9PENQ5aywY2CP-53" style="shape=tableRow;horizontal=0;startSize=0;swimlaneHead=0;swimlaneBody=0;strokeColor=inherit;top=0;left=0;bottom=0;right=0;collapsible=0;dropTarget=0;fillColor=none;points=[[0,0.5],[1,0.5]];portConstraint=eastwest;fontSize=16;" parent="ub23vjz9PENQ5aywY2CP-14" vertex="1">
          <mxGeometry y="228" width="890" height="37" as="geometry" />
        </mxCell>
        <mxCell id="ub23vjz9PENQ5aywY2CP-54" style="shape=partialRectangle;html=1;whiteSpace=wrap;connectable=0;strokeColor=inherit;overflow=hidden;fillColor=none;top=0;left=0;bottom=0;right=0;pointerEvents=1;fontSize=16;" parent="ub23vjz9PENQ5aywY2CP-53" vertex="1">
          <mxGeometry width="240" height="37" as="geometry">
            <mxRectangle width="240" height="37" as="alternateBounds" />
          </mxGeometry>
        </mxCell>
        <mxCell id="ub23vjz9PENQ5aywY2CP-55" value="city" style="shape=partialRectangle;html=1;whiteSpace=wrap;connectable=0;strokeColor=inherit;overflow=hidden;fillColor=none;top=0;left=0;bottom=0;right=0;pointerEvents=1;fontSize=16;" parent="ub23vjz9PENQ5aywY2CP-53" vertex="1">
          <mxGeometry x="240" width="340" height="37" as="geometry">
            <mxRectangle width="340" height="37" as="alternateBounds" />
          </mxGeometry>
        </mxCell>
        <mxCell id="ub23vjz9PENQ5aywY2CP-56" value="Город проживания" style="shape=partialRectangle;html=1;whiteSpace=wrap;connectable=0;strokeColor=inherit;overflow=hidden;fillColor=none;top=0;left=0;bottom=0;right=0;pointerEvents=1;fontSize=16;" parent="ub23vjz9PENQ5aywY2CP-53" vertex="1">
          <mxGeometry x="580" width="310" height="37" as="geometry">
            <mxRectangle width="310" height="37" as="alternateBounds" />
          </mxGeometry>
        </mxCell>
        <mxCell id="ub23vjz9PENQ5aywY2CP-49" style="shape=tableRow;horizontal=0;startSize=0;swimlaneHead=0;swimlaneBody=0;strokeColor=inherit;top=0;left=0;bottom=0;right=0;collapsible=0;dropTarget=0;fillColor=none;points=[[0,0.5],[1,0.5]];portConstraint=eastwest;fontSize=16;" parent="ub23vjz9PENQ5aywY2CP-14" vertex="1">
          <mxGeometry y="265" width="890" height="37" as="geometry" />
        </mxCell>
        <mxCell id="ub23vjz9PENQ5aywY2CP-50" style="shape=partialRectangle;html=1;whiteSpace=wrap;connectable=0;strokeColor=inherit;overflow=hidden;fillColor=none;top=0;left=0;bottom=0;right=0;pointerEvents=1;fontSize=16;" parent="ub23vjz9PENQ5aywY2CP-49" vertex="1">
          <mxGeometry width="240" height="37" as="geometry">
            <mxRectangle width="240" height="37" as="alternateBounds" />
          </mxGeometry>
        </mxCell>
        <mxCell id="ub23vjz9PENQ5aywY2CP-51" value="email" style="shape=partialRectangle;html=1;whiteSpace=wrap;connectable=0;strokeColor=inherit;overflow=hidden;fillColor=none;top=0;left=0;bottom=0;right=0;pointerEvents=1;fontSize=16;" parent="ub23vjz9PENQ5aywY2CP-49" vertex="1">
          <mxGeometry x="240" width="340" height="37" as="geometry">
            <mxRectangle width="340" height="37" as="alternateBounds" />
          </mxGeometry>
        </mxCell>
        <mxCell id="ub23vjz9PENQ5aywY2CP-52" value="Почта для связи" style="shape=partialRectangle;html=1;whiteSpace=wrap;connectable=0;strokeColor=inherit;overflow=hidden;fillColor=none;top=0;left=0;bottom=0;right=0;pointerEvents=1;fontSize=16;" parent="ub23vjz9PENQ5aywY2CP-49" vertex="1">
          <mxGeometry x="580" width="310" height="37" as="geometry">
            <mxRectangle width="310" height="37" as="alternateBounds" />
          </mxGeometry>
        </mxCell>
        <mxCell id="ub23vjz9PENQ5aywY2CP-27" value="Объект Клиент" style="text;html=1;whiteSpace=wrap;overflow=hidden;rounded=0;fontSize=14;fontStyle=3" parent="1" vertex="1">
          <mxGeometry x="20" y="797" width="1130" height="30" as="geometry" />
        </mxCell>
        <mxCell id="ub23vjz9PENQ5aywY2CP-82" value="" style="shape=table;startSize=0;container=1;collapsible=0;childLayout=tableLayout;fontSize=16;" parent="1" vertex="1">
          <mxGeometry x="30" y="1210" width="890" height="412" as="geometry" />
        </mxCell>
        <mxCell id="ub23vjz9PENQ5aywY2CP-83" value="" style="shape=tableRow;horizontal=0;startSize=0;swimlaneHead=0;swimlaneBody=0;strokeColor=inherit;top=0;left=0;bottom=0;right=0;collapsible=0;dropTarget=0;fillColor=none;points=[[0,0.5],[1,0.5]];portConstraint=eastwest;fontSize=16;" parent="ub23vjz9PENQ5aywY2CP-82" vertex="1">
          <mxGeometry width="890" height="37" as="geometry" />
        </mxCell>
        <mxCell id="ub23vjz9PENQ5aywY2CP-84" value="Родительская сущность" style="shape=partialRectangle;html=1;whiteSpace=wrap;connectable=0;strokeColor=#666666;overflow=hidden;fillColor=#f5f5f5;top=0;left=0;bottom=0;right=0;pointerEvents=1;fontSize=16;fontStyle=1;fontColor=#333333;perimeterSpacing=1;" parent="ub23vjz9PENQ5aywY2CP-83" vertex="1">
          <mxGeometry width="240" height="37" as="geometry">
            <mxRectangle width="240" height="37" as="alternateBounds" />
          </mxGeometry>
        </mxCell>
        <mxCell id="ub23vjz9PENQ5aywY2CP-85" value="Атрибут" style="shape=partialRectangle;html=1;whiteSpace=wrap;connectable=0;strokeColor=#666666;overflow=hidden;fillColor=#f5f5f5;top=0;left=0;bottom=0;right=0;pointerEvents=1;fontSize=16;fontStyle=1;fontColor=#333333;perimeterSpacing=1;" parent="ub23vjz9PENQ5aywY2CP-83" vertex="1">
          <mxGeometry x="240" width="340" height="37" as="geometry">
            <mxRectangle width="340" height="37" as="alternateBounds" />
          </mxGeometry>
        </mxCell>
        <mxCell id="ub23vjz9PENQ5aywY2CP-86" value="Описание" style="shape=partialRectangle;html=1;whiteSpace=wrap;connectable=0;strokeColor=#666666;overflow=hidden;fillColor=#f5f5f5;top=0;left=0;bottom=0;right=0;pointerEvents=1;fontSize=16;fontStyle=1;fontColor=#333333;perimeterSpacing=1;" parent="ub23vjz9PENQ5aywY2CP-83" vertex="1">
          <mxGeometry x="580" width="310" height="37" as="geometry">
            <mxRectangle width="310" height="37" as="alternateBounds" />
          </mxGeometry>
        </mxCell>
        <mxCell id="ub23vjz9PENQ5aywY2CP-87" value="" style="shape=tableRow;horizontal=0;startSize=0;swimlaneHead=0;swimlaneBody=0;strokeColor=inherit;top=0;left=0;bottom=0;right=0;collapsible=0;dropTarget=0;fillColor=none;points=[[0,0.5],[1,0.5]];portConstraint=eastwest;fontSize=16;" parent="ub23vjz9PENQ5aywY2CP-82" vertex="1">
          <mxGeometry y="37" width="890" height="43" as="geometry" />
        </mxCell>
        <mxCell id="ub23vjz9PENQ5aywY2CP-88" value="&lt;span style=&quot;font-size: 14px; font-style: italic; font-weight: 700; text-align: left;&quot;&gt;Photographer&lt;/span&gt;" style="shape=partialRectangle;html=1;whiteSpace=wrap;connectable=0;strokeColor=inherit;overflow=hidden;fillColor=none;top=0;left=0;bottom=0;right=0;pointerEvents=1;fontSize=16;" parent="ub23vjz9PENQ5aywY2CP-87" vertex="1">
          <mxGeometry width="240" height="43" as="geometry">
            <mxRectangle width="240" height="43" as="alternateBounds" />
          </mxGeometry>
        </mxCell>
        <mxCell id="ub23vjz9PENQ5aywY2CP-89" value="-------" style="shape=partialRectangle;html=1;whiteSpace=wrap;connectable=0;strokeColor=inherit;overflow=hidden;fillColor=none;top=0;left=0;bottom=0;right=0;pointerEvents=1;fontSize=16;" parent="ub23vjz9PENQ5aywY2CP-87" vertex="1">
          <mxGeometry x="240" width="340" height="43" as="geometry">
            <mxRectangle width="340" height="43" as="alternateBounds" />
          </mxGeometry>
        </mxCell>
        <mxCell id="ub23vjz9PENQ5aywY2CP-90" value="Профиль фотографа" style="shape=partialRectangle;html=1;whiteSpace=wrap;connectable=0;strokeColor=inherit;overflow=hidden;fillColor=none;top=0;left=0;bottom=0;right=0;pointerEvents=1;fontSize=16;align=center;" parent="ub23vjz9PENQ5aywY2CP-87" vertex="1">
          <mxGeometry x="580" width="310" height="43" as="geometry">
            <mxRectangle width="310" height="43" as="alternateBounds" />
          </mxGeometry>
        </mxCell>
        <mxCell id="ub23vjz9PENQ5aywY2CP-91" style="shape=tableRow;horizontal=0;startSize=0;swimlaneHead=0;swimlaneBody=0;strokeColor=inherit;top=0;left=0;bottom=0;right=0;collapsible=0;dropTarget=0;fillColor=none;points=[[0,0.5],[1,0.5]];portConstraint=eastwest;fontSize=16;" parent="ub23vjz9PENQ5aywY2CP-82" vertex="1">
          <mxGeometry y="80" width="890" height="37" as="geometry" />
        </mxCell>
        <mxCell id="ub23vjz9PENQ5aywY2CP-92" style="shape=partialRectangle;html=1;whiteSpace=wrap;connectable=0;strokeColor=inherit;overflow=hidden;fillColor=none;top=0;left=0;bottom=0;right=0;pointerEvents=1;fontSize=16;" parent="ub23vjz9PENQ5aywY2CP-91" vertex="1">
          <mxGeometry width="240" height="37" as="geometry">
            <mxRectangle width="240" height="37" as="alternateBounds" />
          </mxGeometry>
        </mxCell>
        <mxCell id="ub23vjz9PENQ5aywY2CP-93" value="tel_number" style="shape=partialRectangle;html=1;whiteSpace=wrap;connectable=0;strokeColor=inherit;overflow=hidden;fillColor=none;top=0;left=0;bottom=0;right=0;pointerEvents=1;fontSize=16;" parent="ub23vjz9PENQ5aywY2CP-91" vertex="1">
          <mxGeometry x="240" width="340" height="37" as="geometry">
            <mxRectangle width="340" height="37" as="alternateBounds" />
          </mxGeometry>
        </mxCell>
        <mxCell id="ub23vjz9PENQ5aywY2CP-94" value="Номер телефона" style="shape=partialRectangle;html=1;whiteSpace=wrap;connectable=0;strokeColor=inherit;overflow=hidden;fillColor=none;top=0;left=0;bottom=0;right=0;pointerEvents=1;fontSize=16;" parent="ub23vjz9PENQ5aywY2CP-91" vertex="1">
          <mxGeometry x="580" width="310" height="37" as="geometry">
            <mxRectangle width="310" height="37" as="alternateBounds" />
          </mxGeometry>
        </mxCell>
        <mxCell id="ub23vjz9PENQ5aywY2CP-95" style="shape=tableRow;horizontal=0;startSize=0;swimlaneHead=0;swimlaneBody=0;strokeColor=inherit;top=0;left=0;bottom=0;right=0;collapsible=0;dropTarget=0;fillColor=none;points=[[0,0.5],[1,0.5]];portConstraint=eastwest;fontSize=16;" parent="ub23vjz9PENQ5aywY2CP-82" vertex="1">
          <mxGeometry y="117" width="890" height="37" as="geometry" />
        </mxCell>
        <mxCell id="ub23vjz9PENQ5aywY2CP-96" style="shape=partialRectangle;html=1;whiteSpace=wrap;connectable=0;strokeColor=inherit;overflow=hidden;fillColor=none;top=0;left=0;bottom=0;right=0;pointerEvents=1;fontSize=16;" parent="ub23vjz9PENQ5aywY2CP-95" vertex="1">
          <mxGeometry width="240" height="37" as="geometry">
            <mxRectangle width="240" height="37" as="alternateBounds" />
          </mxGeometry>
        </mxCell>
        <mxCell id="ub23vjz9PENQ5aywY2CP-97" value="name" style="shape=partialRectangle;html=1;whiteSpace=wrap;connectable=0;strokeColor=inherit;overflow=hidden;fillColor=none;top=0;left=0;bottom=0;right=0;pointerEvents=1;fontSize=16;" parent="ub23vjz9PENQ5aywY2CP-95" vertex="1">
          <mxGeometry x="240" width="340" height="37" as="geometry">
            <mxRectangle width="340" height="37" as="alternateBounds" />
          </mxGeometry>
        </mxCell>
        <mxCell id="ub23vjz9PENQ5aywY2CP-98" value="Имя" style="shape=partialRectangle;html=1;whiteSpace=wrap;connectable=0;strokeColor=inherit;overflow=hidden;fillColor=none;top=0;left=0;bottom=0;right=0;pointerEvents=1;fontSize=16;" parent="ub23vjz9PENQ5aywY2CP-95" vertex="1">
          <mxGeometry x="580" width="310" height="37" as="geometry">
            <mxRectangle width="310" height="37" as="alternateBounds" />
          </mxGeometry>
        </mxCell>
        <mxCell id="ub23vjz9PENQ5aywY2CP-99" style="shape=tableRow;horizontal=0;startSize=0;swimlaneHead=0;swimlaneBody=0;strokeColor=inherit;top=0;left=0;bottom=0;right=0;collapsible=0;dropTarget=0;fillColor=none;points=[[0,0.5],[1,0.5]];portConstraint=eastwest;fontSize=16;" parent="ub23vjz9PENQ5aywY2CP-82" vertex="1">
          <mxGeometry y="154" width="890" height="37" as="geometry" />
        </mxCell>
        <mxCell id="ub23vjz9PENQ5aywY2CP-100" style="shape=partialRectangle;html=1;whiteSpace=wrap;connectable=0;strokeColor=inherit;overflow=hidden;fillColor=none;top=0;left=0;bottom=0;right=0;pointerEvents=1;fontSize=16;" parent="ub23vjz9PENQ5aywY2CP-99" vertex="1">
          <mxGeometry width="240" height="37" as="geometry">
            <mxRectangle width="240" height="37" as="alternateBounds" />
          </mxGeometry>
        </mxCell>
        <mxCell id="ub23vjz9PENQ5aywY2CP-101" value="surname" style="shape=partialRectangle;html=1;whiteSpace=wrap;connectable=0;strokeColor=inherit;overflow=hidden;fillColor=none;top=0;left=0;bottom=0;right=0;pointerEvents=1;fontSize=16;" parent="ub23vjz9PENQ5aywY2CP-99" vertex="1">
          <mxGeometry x="240" width="340" height="37" as="geometry">
            <mxRectangle width="340" height="37" as="alternateBounds" />
          </mxGeometry>
        </mxCell>
        <mxCell id="ub23vjz9PENQ5aywY2CP-102" value="Фамилия" style="shape=partialRectangle;html=1;whiteSpace=wrap;connectable=0;strokeColor=inherit;overflow=hidden;fillColor=none;top=0;left=0;bottom=0;right=0;pointerEvents=1;fontSize=16;" parent="ub23vjz9PENQ5aywY2CP-99" vertex="1">
          <mxGeometry x="580" width="310" height="37" as="geometry">
            <mxRectangle width="310" height="37" as="alternateBounds" />
          </mxGeometry>
        </mxCell>
        <mxCell id="ub23vjz9PENQ5aywY2CP-103" style="shape=tableRow;horizontal=0;startSize=0;swimlaneHead=0;swimlaneBody=0;strokeColor=inherit;top=0;left=0;bottom=0;right=0;collapsible=0;dropTarget=0;fillColor=none;points=[[0,0.5],[1,0.5]];portConstraint=eastwest;fontSize=16;" parent="ub23vjz9PENQ5aywY2CP-82" vertex="1">
          <mxGeometry y="191" width="890" height="37" as="geometry" />
        </mxCell>
        <mxCell id="ub23vjz9PENQ5aywY2CP-104" style="shape=partialRectangle;html=1;whiteSpace=wrap;connectable=0;strokeColor=inherit;overflow=hidden;fillColor=none;top=0;left=0;bottom=0;right=0;pointerEvents=1;fontSize=16;" parent="ub23vjz9PENQ5aywY2CP-103" vertex="1">
          <mxGeometry width="240" height="37" as="geometry">
            <mxRectangle width="240" height="37" as="alternateBounds" />
          </mxGeometry>
        </mxCell>
        <mxCell id="ub23vjz9PENQ5aywY2CP-105" value="patronymic" style="shape=partialRectangle;html=1;whiteSpace=wrap;connectable=0;strokeColor=inherit;overflow=hidden;fillColor=none;top=0;left=0;bottom=0;right=0;pointerEvents=1;fontSize=16;" parent="ub23vjz9PENQ5aywY2CP-103" vertex="1">
          <mxGeometry x="240" width="340" height="37" as="geometry">
            <mxRectangle width="340" height="37" as="alternateBounds" />
          </mxGeometry>
        </mxCell>
        <mxCell id="ub23vjz9PENQ5aywY2CP-106" value="Отчество" style="shape=partialRectangle;html=1;whiteSpace=wrap;connectable=0;strokeColor=inherit;overflow=hidden;fillColor=none;top=0;left=0;bottom=0;right=0;pointerEvents=1;fontSize=16;" parent="ub23vjz9PENQ5aywY2CP-103" vertex="1">
          <mxGeometry x="580" width="310" height="37" as="geometry">
            <mxRectangle width="310" height="37" as="alternateBounds" />
          </mxGeometry>
        </mxCell>
        <mxCell id="ub23vjz9PENQ5aywY2CP-119" style="shape=tableRow;horizontal=0;startSize=0;swimlaneHead=0;swimlaneBody=0;strokeColor=inherit;top=0;left=0;bottom=0;right=0;collapsible=0;dropTarget=0;fillColor=none;points=[[0,0.5],[1,0.5]];portConstraint=eastwest;fontSize=16;" parent="ub23vjz9PENQ5aywY2CP-82" vertex="1">
          <mxGeometry y="228" width="890" height="37" as="geometry" />
        </mxCell>
        <mxCell id="ub23vjz9PENQ5aywY2CP-120" style="shape=partialRectangle;html=1;whiteSpace=wrap;connectable=0;strokeColor=inherit;overflow=hidden;fillColor=none;top=0;left=0;bottom=0;right=0;pointerEvents=1;fontSize=16;" parent="ub23vjz9PENQ5aywY2CP-119" vertex="1">
          <mxGeometry width="240" height="37" as="geometry">
            <mxRectangle width="240" height="37" as="alternateBounds" />
          </mxGeometry>
        </mxCell>
        <mxCell id="ub23vjz9PENQ5aywY2CP-121" value="email" style="shape=partialRectangle;html=1;whiteSpace=wrap;connectable=0;strokeColor=inherit;overflow=hidden;fillColor=none;top=0;left=0;bottom=0;right=0;pointerEvents=1;fontSize=16;" parent="ub23vjz9PENQ5aywY2CP-119" vertex="1">
          <mxGeometry x="240" width="340" height="37" as="geometry">
            <mxRectangle width="340" height="37" as="alternateBounds" />
          </mxGeometry>
        </mxCell>
        <mxCell id="ub23vjz9PENQ5aywY2CP-122" value="Почта для связи" style="shape=partialRectangle;html=1;whiteSpace=wrap;connectable=0;strokeColor=inherit;overflow=hidden;fillColor=none;top=0;left=0;bottom=0;right=0;pointerEvents=1;fontSize=16;" parent="ub23vjz9PENQ5aywY2CP-119" vertex="1">
          <mxGeometry x="580" width="310" height="37" as="geometry">
            <mxRectangle width="310" height="37" as="alternateBounds" />
          </mxGeometry>
        </mxCell>
        <mxCell id="ub23vjz9PENQ5aywY2CP-123" style="shape=tableRow;horizontal=0;startSize=0;swimlaneHead=0;swimlaneBody=0;strokeColor=inherit;top=0;left=0;bottom=0;right=0;collapsible=0;dropTarget=0;fillColor=none;points=[[0,0.5],[1,0.5]];portConstraint=eastwest;fontSize=16;" parent="ub23vjz9PENQ5aywY2CP-82" vertex="1">
          <mxGeometry y="265" width="890" height="54" as="geometry" />
        </mxCell>
        <mxCell id="ub23vjz9PENQ5aywY2CP-124" style="shape=partialRectangle;html=1;whiteSpace=wrap;connectable=0;strokeColor=inherit;overflow=hidden;fillColor=none;top=0;left=0;bottom=0;right=0;pointerEvents=1;fontSize=16;" parent="ub23vjz9PENQ5aywY2CP-123" vertex="1">
          <mxGeometry width="240" height="54" as="geometry">
            <mxRectangle width="240" height="54" as="alternateBounds" />
          </mxGeometry>
        </mxCell>
        <mxCell id="ub23vjz9PENQ5aywY2CP-125" value="type" style="shape=partialRectangle;html=1;whiteSpace=wrap;connectable=0;strokeColor=inherit;overflow=hidden;fillColor=none;top=0;left=0;bottom=0;right=0;pointerEvents=1;fontSize=16;" parent="ub23vjz9PENQ5aywY2CP-123" vertex="1">
          <mxGeometry x="240" width="340" height="54" as="geometry">
            <mxRectangle width="340" height="54" as="alternateBounds" />
          </mxGeometry>
        </mxCell>
        <mxCell id="ub23vjz9PENQ5aywY2CP-126" value="Тип съемок (портрет, лав-стори, семейная и т.п)" style="shape=partialRectangle;html=1;whiteSpace=wrap;connectable=0;strokeColor=inherit;overflow=hidden;fillColor=none;top=0;left=0;bottom=0;right=0;pointerEvents=1;fontSize=16;" parent="ub23vjz9PENQ5aywY2CP-123" vertex="1">
          <mxGeometry x="580" width="310" height="54" as="geometry">
            <mxRectangle width="310" height="54" as="alternateBounds" />
          </mxGeometry>
        </mxCell>
        <mxCell id="ub23vjz9PENQ5aywY2CP-132" style="shape=tableRow;horizontal=0;startSize=0;swimlaneHead=0;swimlaneBody=0;strokeColor=inherit;top=0;left=0;bottom=0;right=0;collapsible=0;dropTarget=0;fillColor=none;points=[[0,0.5],[1,0.5]];portConstraint=eastwest;fontSize=16;" parent="ub23vjz9PENQ5aywY2CP-82" vertex="1">
          <mxGeometry y="319" width="890" height="56" as="geometry" />
        </mxCell>
        <mxCell id="ub23vjz9PENQ5aywY2CP-133" style="shape=partialRectangle;html=1;whiteSpace=wrap;connectable=0;strokeColor=inherit;overflow=hidden;fillColor=none;top=0;left=0;bottom=0;right=0;pointerEvents=1;fontSize=16;" parent="ub23vjz9PENQ5aywY2CP-132" vertex="1">
          <mxGeometry width="240" height="56" as="geometry">
            <mxRectangle width="240" height="56" as="alternateBounds" />
          </mxGeometry>
        </mxCell>
        <mxCell id="ub23vjz9PENQ5aywY2CP-134" value="style" style="shape=partialRectangle;html=1;whiteSpace=wrap;connectable=0;strokeColor=inherit;overflow=hidden;fillColor=none;top=0;left=0;bottom=0;right=0;pointerEvents=1;fontSize=16;" parent="ub23vjz9PENQ5aywY2CP-132" vertex="1">
          <mxGeometry x="240" width="340" height="56" as="geometry">
            <mxRectangle width="340" height="56" as="alternateBounds" />
          </mxGeometry>
        </mxCell>
        <mxCell id="ub23vjz9PENQ5aywY2CP-135" value="Стиль фотографий (фэшн, минимализм, чб и тп)" style="shape=partialRectangle;html=1;whiteSpace=wrap;connectable=0;strokeColor=inherit;overflow=hidden;fillColor=none;top=0;left=0;bottom=0;right=0;pointerEvents=1;fontSize=16;" parent="ub23vjz9PENQ5aywY2CP-132" vertex="1">
          <mxGeometry x="580" width="310" height="56" as="geometry">
            <mxRectangle width="310" height="56" as="alternateBounds" />
          </mxGeometry>
        </mxCell>
        <mxCell id="ub23vjz9PENQ5aywY2CP-144" style="shape=tableRow;horizontal=0;startSize=0;swimlaneHead=0;swimlaneBody=0;strokeColor=inherit;top=0;left=0;bottom=0;right=0;collapsible=0;dropTarget=0;fillColor=none;points=[[0,0.5],[1,0.5]];portConstraint=eastwest;fontSize=16;" parent="ub23vjz9PENQ5aywY2CP-82" vertex="1">
          <mxGeometry y="375" width="890" height="37" as="geometry" />
        </mxCell>
        <mxCell id="ub23vjz9PENQ5aywY2CP-145" style="shape=partialRectangle;html=1;whiteSpace=wrap;connectable=0;strokeColor=inherit;overflow=hidden;fillColor=none;top=0;left=0;bottom=0;right=0;pointerEvents=1;fontSize=16;" parent="ub23vjz9PENQ5aywY2CP-144" vertex="1">
          <mxGeometry width="240" height="37" as="geometry">
            <mxRectangle width="240" height="37" as="alternateBounds" />
          </mxGeometry>
        </mxCell>
        <mxCell id="ub23vjz9PENQ5aywY2CP-146" value="rating" style="shape=partialRectangle;html=1;whiteSpace=wrap;connectable=0;strokeColor=inherit;overflow=hidden;fillColor=none;top=0;left=0;bottom=0;right=0;pointerEvents=1;fontSize=16;" parent="ub23vjz9PENQ5aywY2CP-144" vertex="1">
          <mxGeometry x="240" width="340" height="37" as="geometry">
            <mxRectangle width="340" height="37" as="alternateBounds" />
          </mxGeometry>
        </mxCell>
        <mxCell id="ub23vjz9PENQ5aywY2CP-147" value="Оценка клиентов (рэйтинг)" style="shape=partialRectangle;html=1;whiteSpace=wrap;connectable=0;strokeColor=inherit;overflow=hidden;fillColor=none;top=0;left=0;bottom=0;right=0;pointerEvents=1;fontSize=16;" parent="ub23vjz9PENQ5aywY2CP-144" vertex="1">
          <mxGeometry x="580" width="310" height="37" as="geometry">
            <mxRectangle width="310" height="37" as="alternateBounds" />
          </mxGeometry>
        </mxCell>
        <mxCell id="ub23vjz9PENQ5aywY2CP-127" value="Объект Photographer" style="text;html=1;whiteSpace=wrap;overflow=hidden;rounded=0;fontSize=14;fontStyle=3" parent="1" vertex="1">
          <mxGeometry x="25" y="1170" width="1130" height="30" as="geometry" />
        </mxCell>
        <mxCell id="ub23vjz9PENQ5aywY2CP-153" value="Объект Заказ" style="text;html=1;whiteSpace=wrap;overflow=hidden;rounded=0;fontSize=14;fontStyle=3" parent="1" vertex="1">
          <mxGeometry x="30" y="1680" width="1130" height="30" as="geometry" />
        </mxCell>
        <mxCell id="ub23vjz9PENQ5aywY2CP-154" value="" style="shape=table;startSize=0;container=1;collapsible=0;childLayout=tableLayout;fontSize=16;" parent="1" vertex="1">
          <mxGeometry x="30" y="1720" width="890" height="339" as="geometry" />
        </mxCell>
        <mxCell id="ub23vjz9PENQ5aywY2CP-155" value="" style="shape=tableRow;horizontal=0;startSize=0;swimlaneHead=0;swimlaneBody=0;strokeColor=inherit;top=0;left=0;bottom=0;right=0;collapsible=0;dropTarget=0;fillColor=none;points=[[0,0.5],[1,0.5]];portConstraint=eastwest;fontSize=16;" parent="ub23vjz9PENQ5aywY2CP-154" vertex="1">
          <mxGeometry width="890" height="37" as="geometry" />
        </mxCell>
        <mxCell id="ub23vjz9PENQ5aywY2CP-156" value="Дочерняя сущность" style="shape=partialRectangle;html=1;whiteSpace=wrap;connectable=0;strokeColor=#666666;overflow=hidden;fillColor=#f5f5f5;top=0;left=0;bottom=0;right=0;pointerEvents=1;fontSize=16;fontStyle=1;fontColor=#333333;perimeterSpacing=1;" parent="ub23vjz9PENQ5aywY2CP-155" vertex="1">
          <mxGeometry width="240" height="37" as="geometry">
            <mxRectangle width="240" height="37" as="alternateBounds" />
          </mxGeometry>
        </mxCell>
        <mxCell id="ub23vjz9PENQ5aywY2CP-157" value="Атрибут" style="shape=partialRectangle;html=1;whiteSpace=wrap;connectable=0;strokeColor=#666666;overflow=hidden;fillColor=#f5f5f5;top=0;left=0;bottom=0;right=0;pointerEvents=1;fontSize=16;fontStyle=1;fontColor=#333333;perimeterSpacing=1;" parent="ub23vjz9PENQ5aywY2CP-155" vertex="1">
          <mxGeometry x="240" width="340" height="37" as="geometry">
            <mxRectangle width="340" height="37" as="alternateBounds" />
          </mxGeometry>
        </mxCell>
        <mxCell id="ub23vjz9PENQ5aywY2CP-158" value="Описание" style="shape=partialRectangle;html=1;whiteSpace=wrap;connectable=0;strokeColor=#666666;overflow=hidden;fillColor=#f5f5f5;top=0;left=0;bottom=0;right=0;pointerEvents=1;fontSize=16;fontStyle=1;fontColor=#333333;perimeterSpacing=1;" parent="ub23vjz9PENQ5aywY2CP-155" vertex="1">
          <mxGeometry x="580" width="310" height="37" as="geometry">
            <mxRectangle width="310" height="37" as="alternateBounds" />
          </mxGeometry>
        </mxCell>
        <mxCell id="ub23vjz9PENQ5aywY2CP-159" value="" style="shape=tableRow;horizontal=0;startSize=0;swimlaneHead=0;swimlaneBody=0;strokeColor=inherit;top=0;left=0;bottom=0;right=0;collapsible=0;dropTarget=0;fillColor=none;points=[[0,0.5],[1,0.5]];portConstraint=eastwest;fontSize=16;" parent="ub23vjz9PENQ5aywY2CP-154" vertex="1">
          <mxGeometry y="37" width="890" height="43" as="geometry" />
        </mxCell>
        <mxCell id="ub23vjz9PENQ5aywY2CP-160" value="&lt;span style=&quot;font-size: 14px; font-style: italic; font-weight: 700; text-align: left;&quot;&gt;Order&lt;/span&gt;" style="shape=partialRectangle;html=1;whiteSpace=wrap;connectable=0;strokeColor=inherit;overflow=hidden;fillColor=none;top=0;left=0;bottom=0;right=0;pointerEvents=1;fontSize=16;" parent="ub23vjz9PENQ5aywY2CP-159" vertex="1">
          <mxGeometry width="240" height="43" as="geometry">
            <mxRectangle width="240" height="43" as="alternateBounds" />
          </mxGeometry>
        </mxCell>
        <mxCell id="ub23vjz9PENQ5aywY2CP-161" value="-------" style="shape=partialRectangle;html=1;whiteSpace=wrap;connectable=0;strokeColor=inherit;overflow=hidden;fillColor=none;top=0;left=0;bottom=0;right=0;pointerEvents=1;fontSize=16;" parent="ub23vjz9PENQ5aywY2CP-159" vertex="1">
          <mxGeometry x="240" width="340" height="43" as="geometry">
            <mxRectangle width="340" height="43" as="alternateBounds" />
          </mxGeometry>
        </mxCell>
        <mxCell id="ub23vjz9PENQ5aywY2CP-162" value="Заказ на фотосессию" style="shape=partialRectangle;html=1;whiteSpace=wrap;connectable=0;strokeColor=inherit;overflow=hidden;fillColor=none;top=0;left=0;bottom=0;right=0;pointerEvents=1;fontSize=16;align=center;" parent="ub23vjz9PENQ5aywY2CP-159" vertex="1">
          <mxGeometry x="580" width="310" height="43" as="geometry">
            <mxRectangle width="310" height="43" as="alternateBounds" />
          </mxGeometry>
        </mxCell>
        <mxCell id="ub23vjz9PENQ5aywY2CP-163" style="shape=tableRow;horizontal=0;startSize=0;swimlaneHead=0;swimlaneBody=0;strokeColor=inherit;top=0;left=0;bottom=0;right=0;collapsible=0;dropTarget=0;fillColor=none;points=[[0,0.5],[1,0.5]];portConstraint=eastwest;fontSize=16;" parent="ub23vjz9PENQ5aywY2CP-154" vertex="1">
          <mxGeometry y="80" width="890" height="37" as="geometry" />
        </mxCell>
        <mxCell id="ub23vjz9PENQ5aywY2CP-164" style="shape=partialRectangle;html=1;whiteSpace=wrap;connectable=0;strokeColor=inherit;overflow=hidden;fillColor=none;top=0;left=0;bottom=0;right=0;pointerEvents=1;fontSize=16;" parent="ub23vjz9PENQ5aywY2CP-163" vertex="1">
          <mxGeometry width="240" height="37" as="geometry">
            <mxRectangle width="240" height="37" as="alternateBounds" />
          </mxGeometry>
        </mxCell>
        <mxCell id="ub23vjz9PENQ5aywY2CP-165" value="client" style="shape=partialRectangle;html=1;whiteSpace=wrap;connectable=0;strokeColor=inherit;overflow=hidden;fillColor=none;top=0;left=0;bottom=0;right=0;pointerEvents=1;fontSize=16;" parent="ub23vjz9PENQ5aywY2CP-163" vertex="1">
          <mxGeometry x="240" width="340" height="37" as="geometry">
            <mxRectangle width="340" height="37" as="alternateBounds" />
          </mxGeometry>
        </mxCell>
        <mxCell id="ub23vjz9PENQ5aywY2CP-166" value="Кто заказчик фотосессии" style="shape=partialRectangle;html=1;whiteSpace=wrap;connectable=0;strokeColor=inherit;overflow=hidden;fillColor=none;top=0;left=0;bottom=0;right=0;pointerEvents=1;fontSize=16;" parent="ub23vjz9PENQ5aywY2CP-163" vertex="1">
          <mxGeometry x="580" width="310" height="37" as="geometry">
            <mxRectangle width="310" height="37" as="alternateBounds" />
          </mxGeometry>
        </mxCell>
        <mxCell id="ub23vjz9PENQ5aywY2CP-167" style="shape=tableRow;horizontal=0;startSize=0;swimlaneHead=0;swimlaneBody=0;strokeColor=inherit;top=0;left=0;bottom=0;right=0;collapsible=0;dropTarget=0;fillColor=none;points=[[0,0.5],[1,0.5]];portConstraint=eastwest;fontSize=16;" parent="ub23vjz9PENQ5aywY2CP-154" vertex="1">
          <mxGeometry y="117" width="890" height="37" as="geometry" />
        </mxCell>
        <mxCell id="ub23vjz9PENQ5aywY2CP-168" style="shape=partialRectangle;html=1;whiteSpace=wrap;connectable=0;strokeColor=inherit;overflow=hidden;fillColor=none;top=0;left=0;bottom=0;right=0;pointerEvents=1;fontSize=16;" parent="ub23vjz9PENQ5aywY2CP-167" vertex="1">
          <mxGeometry width="240" height="37" as="geometry">
            <mxRectangle width="240" height="37" as="alternateBounds" />
          </mxGeometry>
        </mxCell>
        <mxCell id="ub23vjz9PENQ5aywY2CP-169" value="photographer" style="shape=partialRectangle;html=1;whiteSpace=wrap;connectable=0;strokeColor=inherit;overflow=hidden;fillColor=none;top=0;left=0;bottom=0;right=0;pointerEvents=1;fontSize=16;" parent="ub23vjz9PENQ5aywY2CP-167" vertex="1">
          <mxGeometry x="240" width="340" height="37" as="geometry">
            <mxRectangle width="340" height="37" as="alternateBounds" />
          </mxGeometry>
        </mxCell>
        <mxCell id="ub23vjz9PENQ5aywY2CP-170" value="Кто фотограф фотосессси" style="shape=partialRectangle;html=1;whiteSpace=wrap;connectable=0;strokeColor=inherit;overflow=hidden;fillColor=none;top=0;left=0;bottom=0;right=0;pointerEvents=1;fontSize=16;" parent="ub23vjz9PENQ5aywY2CP-167" vertex="1">
          <mxGeometry x="580" width="310" height="37" as="geometry">
            <mxRectangle width="310" height="37" as="alternateBounds" />
          </mxGeometry>
        </mxCell>
        <mxCell id="ub23vjz9PENQ5aywY2CP-171" style="shape=tableRow;horizontal=0;startSize=0;swimlaneHead=0;swimlaneBody=0;strokeColor=inherit;top=0;left=0;bottom=0;right=0;collapsible=0;dropTarget=0;fillColor=none;points=[[0,0.5],[1,0.5]];portConstraint=eastwest;fontSize=16;" parent="ub23vjz9PENQ5aywY2CP-154" vertex="1">
          <mxGeometry y="154" width="890" height="37" as="geometry" />
        </mxCell>
        <mxCell id="ub23vjz9PENQ5aywY2CP-172" style="shape=partialRectangle;html=1;whiteSpace=wrap;connectable=0;strokeColor=inherit;overflow=hidden;fillColor=none;top=0;left=0;bottom=0;right=0;pointerEvents=1;fontSize=16;" parent="ub23vjz9PENQ5aywY2CP-171" vertex="1">
          <mxGeometry width="240" height="37" as="geometry">
            <mxRectangle width="240" height="37" as="alternateBounds" />
          </mxGeometry>
        </mxCell>
        <mxCell id="ub23vjz9PENQ5aywY2CP-173" value="time_date" style="shape=partialRectangle;html=1;whiteSpace=wrap;connectable=0;strokeColor=inherit;overflow=hidden;fillColor=none;top=0;left=0;bottom=0;right=0;pointerEvents=1;fontSize=16;" parent="ub23vjz9PENQ5aywY2CP-171" vertex="1">
          <mxGeometry x="240" width="340" height="37" as="geometry">
            <mxRectangle width="340" height="37" as="alternateBounds" />
          </mxGeometry>
        </mxCell>
        <mxCell id="ub23vjz9PENQ5aywY2CP-174" value="Дата и время проведения съемки" style="shape=partialRectangle;html=1;whiteSpace=wrap;connectable=0;strokeColor=inherit;overflow=hidden;fillColor=none;top=0;left=0;bottom=0;right=0;pointerEvents=1;fontSize=16;" parent="ub23vjz9PENQ5aywY2CP-171" vertex="1">
          <mxGeometry x="580" width="310" height="37" as="geometry">
            <mxRectangle width="310" height="37" as="alternateBounds" />
          </mxGeometry>
        </mxCell>
        <mxCell id="ub23vjz9PENQ5aywY2CP-175" style="shape=tableRow;horizontal=0;startSize=0;swimlaneHead=0;swimlaneBody=0;strokeColor=inherit;top=0;left=0;bottom=0;right=0;collapsible=0;dropTarget=0;fillColor=none;points=[[0,0.5],[1,0.5]];portConstraint=eastwest;fontSize=16;" parent="ub23vjz9PENQ5aywY2CP-154" vertex="1">
          <mxGeometry y="191" width="890" height="37" as="geometry" />
        </mxCell>
        <mxCell id="ub23vjz9PENQ5aywY2CP-176" style="shape=partialRectangle;html=1;whiteSpace=wrap;connectable=0;strokeColor=inherit;overflow=hidden;fillColor=none;top=0;left=0;bottom=0;right=0;pointerEvents=1;fontSize=16;" parent="ub23vjz9PENQ5aywY2CP-175" vertex="1">
          <mxGeometry width="240" height="37" as="geometry">
            <mxRectangle width="240" height="37" as="alternateBounds" />
          </mxGeometry>
        </mxCell>
        <mxCell id="ub23vjz9PENQ5aywY2CP-177" value="location" style="shape=partialRectangle;html=1;whiteSpace=wrap;connectable=0;strokeColor=inherit;overflow=hidden;fillColor=none;top=0;left=0;bottom=0;right=0;pointerEvents=1;fontSize=16;" parent="ub23vjz9PENQ5aywY2CP-175" vertex="1">
          <mxGeometry x="240" width="340" height="37" as="geometry">
            <mxRectangle width="340" height="37" as="alternateBounds" />
          </mxGeometry>
        </mxCell>
        <mxCell id="ub23vjz9PENQ5aywY2CP-178" value="Локация съемки" style="shape=partialRectangle;html=1;whiteSpace=wrap;connectable=0;strokeColor=inherit;overflow=hidden;fillColor=none;top=0;left=0;bottom=0;right=0;pointerEvents=1;fontSize=16;" parent="ub23vjz9PENQ5aywY2CP-175" vertex="1">
          <mxGeometry x="580" width="310" height="37" as="geometry">
            <mxRectangle width="310" height="37" as="alternateBounds" />
          </mxGeometry>
        </mxCell>
        <mxCell id="ub23vjz9PENQ5aywY2CP-183" style="shape=tableRow;horizontal=0;startSize=0;swimlaneHead=0;swimlaneBody=0;strokeColor=inherit;top=0;left=0;bottom=0;right=0;collapsible=0;dropTarget=0;fillColor=none;points=[[0,0.5],[1,0.5]];portConstraint=eastwest;fontSize=16;" parent="ub23vjz9PENQ5aywY2CP-154" vertex="1">
          <mxGeometry y="228" width="890" height="37" as="geometry" />
        </mxCell>
        <mxCell id="ub23vjz9PENQ5aywY2CP-184" style="shape=partialRectangle;html=1;whiteSpace=wrap;connectable=0;strokeColor=inherit;overflow=hidden;fillColor=none;top=0;left=0;bottom=0;right=0;pointerEvents=1;fontSize=16;" parent="ub23vjz9PENQ5aywY2CP-183" vertex="1">
          <mxGeometry width="240" height="37" as="geometry">
            <mxRectangle width="240" height="37" as="alternateBounds" />
          </mxGeometry>
        </mxCell>
        <mxCell id="ub23vjz9PENQ5aywY2CP-185" value="type" style="shape=partialRectangle;html=1;whiteSpace=wrap;connectable=0;strokeColor=inherit;overflow=hidden;fillColor=none;top=0;left=0;bottom=0;right=0;pointerEvents=1;fontSize=16;" parent="ub23vjz9PENQ5aywY2CP-183" vertex="1">
          <mxGeometry x="240" width="340" height="37" as="geometry">
            <mxRectangle width="340" height="37" as="alternateBounds" />
          </mxGeometry>
        </mxCell>
        <mxCell id="ub23vjz9PENQ5aywY2CP-186" value="Тип съемки (портрет, лав-стори и тп)" style="shape=partialRectangle;html=1;whiteSpace=wrap;connectable=0;strokeColor=inherit;overflow=hidden;fillColor=none;top=0;left=0;bottom=0;right=0;pointerEvents=1;fontSize=16;" parent="ub23vjz9PENQ5aywY2CP-183" vertex="1">
          <mxGeometry x="580" width="310" height="37" as="geometry">
            <mxRectangle width="310" height="37" as="alternateBounds" />
          </mxGeometry>
        </mxCell>
        <mxCell id="ub23vjz9PENQ5aywY2CP-187" style="shape=tableRow;horizontal=0;startSize=0;swimlaneHead=0;swimlaneBody=0;strokeColor=inherit;top=0;left=0;bottom=0;right=0;collapsible=0;dropTarget=0;fillColor=none;points=[[0,0.5],[1,0.5]];portConstraint=eastwest;fontSize=16;" parent="ub23vjz9PENQ5aywY2CP-154" vertex="1">
          <mxGeometry y="265" width="890" height="37" as="geometry" />
        </mxCell>
        <mxCell id="ub23vjz9PENQ5aywY2CP-188" style="shape=partialRectangle;html=1;whiteSpace=wrap;connectable=0;strokeColor=inherit;overflow=hidden;fillColor=none;top=0;left=0;bottom=0;right=0;pointerEvents=1;fontSize=16;" parent="ub23vjz9PENQ5aywY2CP-187" vertex="1">
          <mxGeometry width="240" height="37" as="geometry">
            <mxRectangle width="240" height="37" as="alternateBounds" />
          </mxGeometry>
        </mxCell>
        <mxCell id="ub23vjz9PENQ5aywY2CP-189" value="style" style="shape=partialRectangle;html=1;whiteSpace=wrap;connectable=0;strokeColor=inherit;overflow=hidden;fillColor=none;top=0;left=0;bottom=0;right=0;pointerEvents=1;fontSize=16;" parent="ub23vjz9PENQ5aywY2CP-187" vertex="1">
          <mxGeometry x="240" width="340" height="37" as="geometry">
            <mxRectangle width="340" height="37" as="alternateBounds" />
          </mxGeometry>
        </mxCell>
        <mxCell id="ub23vjz9PENQ5aywY2CP-190" value="Стиль съемки (фэшн, чб и тп)" style="shape=partialRectangle;html=1;whiteSpace=wrap;connectable=0;strokeColor=inherit;overflow=hidden;fillColor=none;top=0;left=0;bottom=0;right=0;pointerEvents=1;fontSize=16;" parent="ub23vjz9PENQ5aywY2CP-187" vertex="1">
          <mxGeometry x="580" width="310" height="37" as="geometry">
            <mxRectangle width="310" height="37" as="alternateBounds" />
          </mxGeometry>
        </mxCell>
        <mxCell id="ub23vjz9PENQ5aywY2CP-191" style="shape=tableRow;horizontal=0;startSize=0;swimlaneHead=0;swimlaneBody=0;strokeColor=inherit;top=0;left=0;bottom=0;right=0;collapsible=0;dropTarget=0;fillColor=none;points=[[0,0.5],[1,0.5]];portConstraint=eastwest;fontSize=16;" parent="ub23vjz9PENQ5aywY2CP-154" vertex="1">
          <mxGeometry y="302" width="890" height="37" as="geometry" />
        </mxCell>
        <mxCell id="ub23vjz9PENQ5aywY2CP-192" style="shape=partialRectangle;html=1;whiteSpace=wrap;connectable=0;strokeColor=inherit;overflow=hidden;fillColor=none;top=0;left=0;bottom=0;right=0;pointerEvents=1;fontSize=16;" parent="ub23vjz9PENQ5aywY2CP-191" vertex="1">
          <mxGeometry width="240" height="37" as="geometry">
            <mxRectangle width="240" height="37" as="alternateBounds" />
          </mxGeometry>
        </mxCell>
        <mxCell id="ub23vjz9PENQ5aywY2CP-193" value="price" style="shape=partialRectangle;html=1;whiteSpace=wrap;connectable=0;strokeColor=inherit;overflow=hidden;fillColor=none;top=0;left=0;bottom=0;right=0;pointerEvents=1;fontSize=16;" parent="ub23vjz9PENQ5aywY2CP-191" vertex="1">
          <mxGeometry x="240" width="340" height="37" as="geometry">
            <mxRectangle width="340" height="37" as="alternateBounds" />
          </mxGeometry>
        </mxCell>
        <mxCell id="ub23vjz9PENQ5aywY2CP-194" value="Итоговая стоимость заказа" style="shape=partialRectangle;html=1;whiteSpace=wrap;connectable=0;strokeColor=inherit;overflow=hidden;fillColor=none;top=0;left=0;bottom=0;right=0;pointerEvents=1;fontSize=16;" parent="ub23vjz9PENQ5aywY2CP-191" vertex="1">
          <mxGeometry x="580" width="310" height="37" as="geometry">
            <mxRectangle width="310" height="37" as="alternateBounds" />
          </mxGeometry>
        </mxCell>
        <mxCell id="WX2nrQJQql0S8Ajp5fCX-1" value="" style="shape=table;startSize=0;container=1;collapsible=0;childLayout=tableLayout;fontSize=16;" parent="1" vertex="1">
          <mxGeometry x="30" y="2129" width="890" height="339" as="geometry" />
        </mxCell>
        <mxCell id="WX2nrQJQql0S8Ajp5fCX-2" value="" style="shape=tableRow;horizontal=0;startSize=0;swimlaneHead=0;swimlaneBody=0;strokeColor=inherit;top=0;left=0;bottom=0;right=0;collapsible=0;dropTarget=0;fillColor=none;points=[[0,0.5],[1,0.5]];portConstraint=eastwest;fontSize=16;" parent="WX2nrQJQql0S8Ajp5fCX-1" vertex="1">
          <mxGeometry width="890" height="37" as="geometry" />
        </mxCell>
        <mxCell id="WX2nrQJQql0S8Ajp5fCX-3" value="Дочерняя сущность" style="shape=partialRectangle;html=1;whiteSpace=wrap;connectable=0;strokeColor=#666666;overflow=hidden;fillColor=#f5f5f5;top=0;left=0;bottom=0;right=0;pointerEvents=1;fontSize=16;fontStyle=1;fontColor=#333333;perimeterSpacing=1;" parent="WX2nrQJQql0S8Ajp5fCX-2" vertex="1">
          <mxGeometry width="240" height="37" as="geometry">
            <mxRectangle width="240" height="37" as="alternateBounds" />
          </mxGeometry>
        </mxCell>
        <mxCell id="WX2nrQJQql0S8Ajp5fCX-4" value="Атрибут" style="shape=partialRectangle;html=1;whiteSpace=wrap;connectable=0;strokeColor=#666666;overflow=hidden;fillColor=#f5f5f5;top=0;left=0;bottom=0;right=0;pointerEvents=1;fontSize=16;fontStyle=1;fontColor=#333333;perimeterSpacing=1;" parent="WX2nrQJQql0S8Ajp5fCX-2" vertex="1">
          <mxGeometry x="240" width="340" height="37" as="geometry">
            <mxRectangle width="340" height="37" as="alternateBounds" />
          </mxGeometry>
        </mxCell>
        <mxCell id="WX2nrQJQql0S8Ajp5fCX-5" value="Описание" style="shape=partialRectangle;html=1;whiteSpace=wrap;connectable=0;strokeColor=#666666;overflow=hidden;fillColor=#f5f5f5;top=0;left=0;bottom=0;right=0;pointerEvents=1;fontSize=16;fontStyle=1;fontColor=#333333;perimeterSpacing=1;" parent="WX2nrQJQql0S8Ajp5fCX-2" vertex="1">
          <mxGeometry x="580" width="310" height="37" as="geometry">
            <mxRectangle width="310" height="37" as="alternateBounds" />
          </mxGeometry>
        </mxCell>
        <mxCell id="WX2nrQJQql0S8Ajp5fCX-6" value="" style="shape=tableRow;horizontal=0;startSize=0;swimlaneHead=0;swimlaneBody=0;strokeColor=inherit;top=0;left=0;bottom=0;right=0;collapsible=0;dropTarget=0;fillColor=none;points=[[0,0.5],[1,0.5]];portConstraint=eastwest;fontSize=16;" parent="WX2nrQJQql0S8Ajp5fCX-1" vertex="1">
          <mxGeometry y="37" width="890" height="43" as="geometry" />
        </mxCell>
        <mxCell id="WX2nrQJQql0S8Ajp5fCX-7" value="&lt;span style=&quot;font-size: 14px; font-style: italic; font-weight: 700; text-align: left;&quot;&gt;Photos&lt;/span&gt;" style="shape=partialRectangle;html=1;whiteSpace=wrap;connectable=0;strokeColor=inherit;overflow=hidden;fillColor=none;top=0;left=0;bottom=0;right=0;pointerEvents=1;fontSize=16;" parent="WX2nrQJQql0S8Ajp5fCX-6" vertex="1">
          <mxGeometry width="240" height="43" as="geometry">
            <mxRectangle width="240" height="43" as="alternateBounds" />
          </mxGeometry>
        </mxCell>
        <mxCell id="WX2nrQJQql0S8Ajp5fCX-8" value="-------" style="shape=partialRectangle;html=1;whiteSpace=wrap;connectable=0;strokeColor=inherit;overflow=hidden;fillColor=none;top=0;left=0;bottom=0;right=0;pointerEvents=1;fontSize=16;" parent="WX2nrQJQql0S8Ajp5fCX-6" vertex="1">
          <mxGeometry x="240" width="340" height="43" as="geometry">
            <mxRectangle width="340" height="43" as="alternateBounds" />
          </mxGeometry>
        </mxCell>
        <mxCell id="WX2nrQJQql0S8Ajp5fCX-9" value="Заказ на фотосессию" style="shape=partialRectangle;html=1;whiteSpace=wrap;connectable=0;strokeColor=inherit;overflow=hidden;fillColor=none;top=0;left=0;bottom=0;right=0;pointerEvents=1;fontSize=16;align=center;" parent="WX2nrQJQql0S8Ajp5fCX-6" vertex="1">
          <mxGeometry x="580" width="310" height="43" as="geometry">
            <mxRectangle width="310" height="43" as="alternateBounds" />
          </mxGeometry>
        </mxCell>
        <mxCell id="WX2nrQJQql0S8Ajp5fCX-14" style="shape=tableRow;horizontal=0;startSize=0;swimlaneHead=0;swimlaneBody=0;strokeColor=inherit;top=0;left=0;bottom=0;right=0;collapsible=0;dropTarget=0;fillColor=none;points=[[0,0.5],[1,0.5]];portConstraint=eastwest;fontSize=16;" parent="WX2nrQJQql0S8Ajp5fCX-1" vertex="1">
          <mxGeometry y="80" width="890" height="37" as="geometry" />
        </mxCell>
        <mxCell id="WX2nrQJQql0S8Ajp5fCX-15" style="shape=partialRectangle;html=1;whiteSpace=wrap;connectable=0;strokeColor=inherit;overflow=hidden;fillColor=none;top=0;left=0;bottom=0;right=0;pointerEvents=1;fontSize=16;" parent="WX2nrQJQql0S8Ajp5fCX-14" vertex="1">
          <mxGeometry width="240" height="37" as="geometry">
            <mxRectangle width="240" height="37" as="alternateBounds" />
          </mxGeometry>
        </mxCell>
        <mxCell id="WX2nrQJQql0S8Ajp5fCX-16" value="photographer" style="shape=partialRectangle;html=1;whiteSpace=wrap;connectable=0;strokeColor=inherit;overflow=hidden;fillColor=none;top=0;left=0;bottom=0;right=0;pointerEvents=1;fontSize=16;" parent="WX2nrQJQql0S8Ajp5fCX-14" vertex="1">
          <mxGeometry x="240" width="340" height="37" as="geometry">
            <mxRectangle width="340" height="37" as="alternateBounds" />
          </mxGeometry>
        </mxCell>
        <mxCell id="WX2nrQJQql0S8Ajp5fCX-17" value="Фотограф, которому принадлежит фото" style="shape=partialRectangle;html=1;whiteSpace=wrap;connectable=0;strokeColor=inherit;overflow=hidden;fillColor=none;top=0;left=0;bottom=0;right=0;pointerEvents=1;fontSize=16;" parent="WX2nrQJQql0S8Ajp5fCX-14" vertex="1">
          <mxGeometry x="580" width="310" height="37" as="geometry">
            <mxRectangle width="310" height="37" as="alternateBounds" />
          </mxGeometry>
        </mxCell>
        <mxCell id="WX2nrQJQql0S8Ajp5fCX-18" style="shape=tableRow;horizontal=0;startSize=0;swimlaneHead=0;swimlaneBody=0;strokeColor=inherit;top=0;left=0;bottom=0;right=0;collapsible=0;dropTarget=0;fillColor=none;points=[[0,0.5],[1,0.5]];portConstraint=eastwest;fontSize=16;" parent="WX2nrQJQql0S8Ajp5fCX-1" vertex="1">
          <mxGeometry y="117" width="890" height="37" as="geometry" />
        </mxCell>
        <mxCell id="WX2nrQJQql0S8Ajp5fCX-19" style="shape=partialRectangle;html=1;whiteSpace=wrap;connectable=0;strokeColor=inherit;overflow=hidden;fillColor=none;top=0;left=0;bottom=0;right=0;pointerEvents=1;fontSize=16;" parent="WX2nrQJQql0S8Ajp5fCX-18" vertex="1">
          <mxGeometry width="240" height="37" as="geometry">
            <mxRectangle width="240" height="37" as="alternateBounds" />
          </mxGeometry>
        </mxCell>
        <mxCell id="WX2nrQJQql0S8Ajp5fCX-20" value="name" style="shape=partialRectangle;html=1;whiteSpace=wrap;connectable=0;strokeColor=inherit;overflow=hidden;fillColor=none;top=0;left=0;bottom=0;right=0;pointerEvents=1;fontSize=16;" parent="WX2nrQJQql0S8Ajp5fCX-18" vertex="1">
          <mxGeometry x="240" width="340" height="37" as="geometry">
            <mxRectangle width="340" height="37" as="alternateBounds" />
          </mxGeometry>
        </mxCell>
        <mxCell id="WX2nrQJQql0S8Ajp5fCX-21" value="наименование файла фотографии" style="shape=partialRectangle;html=1;whiteSpace=wrap;connectable=0;strokeColor=inherit;overflow=hidden;fillColor=none;top=0;left=0;bottom=0;right=0;pointerEvents=1;fontSize=16;" parent="WX2nrQJQql0S8Ajp5fCX-18" vertex="1">
          <mxGeometry x="580" width="310" height="37" as="geometry">
            <mxRectangle width="310" height="37" as="alternateBounds" />
          </mxGeometry>
        </mxCell>
        <mxCell id="WX2nrQJQql0S8Ajp5fCX-22" style="shape=tableRow;horizontal=0;startSize=0;swimlaneHead=0;swimlaneBody=0;strokeColor=inherit;top=0;left=0;bottom=0;right=0;collapsible=0;dropTarget=0;fillColor=none;points=[[0,0.5],[1,0.5]];portConstraint=eastwest;fontSize=16;" parent="WX2nrQJQql0S8Ajp5fCX-1" vertex="1">
          <mxGeometry y="154" width="890" height="37" as="geometry" />
        </mxCell>
        <mxCell id="WX2nrQJQql0S8Ajp5fCX-23" style="shape=partialRectangle;html=1;whiteSpace=wrap;connectable=0;strokeColor=inherit;overflow=hidden;fillColor=none;top=0;left=0;bottom=0;right=0;pointerEvents=1;fontSize=16;" parent="WX2nrQJQql0S8Ajp5fCX-22" vertex="1">
          <mxGeometry width="240" height="37" as="geometry">
            <mxRectangle width="240" height="37" as="alternateBounds" />
          </mxGeometry>
        </mxCell>
        <mxCell id="WX2nrQJQql0S8Ajp5fCX-24" value="format" style="shape=partialRectangle;html=1;whiteSpace=wrap;connectable=0;strokeColor=inherit;overflow=hidden;fillColor=none;top=0;left=0;bottom=0;right=0;pointerEvents=1;fontSize=16;" parent="WX2nrQJQql0S8Ajp5fCX-22" vertex="1">
          <mxGeometry x="240" width="340" height="37" as="geometry">
            <mxRectangle width="340" height="37" as="alternateBounds" />
          </mxGeometry>
        </mxCell>
        <mxCell id="WX2nrQJQql0S8Ajp5fCX-25" value="формат фотографии (расширение)" style="shape=partialRectangle;html=1;whiteSpace=wrap;connectable=0;strokeColor=inherit;overflow=hidden;fillColor=none;top=0;left=0;bottom=0;right=0;pointerEvents=1;fontSize=16;" parent="WX2nrQJQql0S8Ajp5fCX-22" vertex="1">
          <mxGeometry x="580" width="310" height="37" as="geometry">
            <mxRectangle width="310" height="37" as="alternateBounds" />
          </mxGeometry>
        </mxCell>
        <mxCell id="WX2nrQJQql0S8Ajp5fCX-26" style="shape=tableRow;horizontal=0;startSize=0;swimlaneHead=0;swimlaneBody=0;strokeColor=inherit;top=0;left=0;bottom=0;right=0;collapsible=0;dropTarget=0;fillColor=none;points=[[0,0.5],[1,0.5]];portConstraint=eastwest;fontSize=16;" parent="WX2nrQJQql0S8Ajp5fCX-1" vertex="1">
          <mxGeometry y="191" width="890" height="37" as="geometry" />
        </mxCell>
        <mxCell id="WX2nrQJQql0S8Ajp5fCX-27" style="shape=partialRectangle;html=1;whiteSpace=wrap;connectable=0;strokeColor=inherit;overflow=hidden;fillColor=none;top=0;left=0;bottom=0;right=0;pointerEvents=1;fontSize=16;" parent="WX2nrQJQql0S8Ajp5fCX-26" vertex="1">
          <mxGeometry width="240" height="37" as="geometry">
            <mxRectangle width="240" height="37" as="alternateBounds" />
          </mxGeometry>
        </mxCell>
        <mxCell id="WX2nrQJQql0S8Ajp5fCX-28" value="wight" style="shape=partialRectangle;html=1;whiteSpace=wrap;connectable=0;strokeColor=inherit;overflow=hidden;fillColor=none;top=0;left=0;bottom=0;right=0;pointerEvents=1;fontSize=16;" parent="WX2nrQJQql0S8Ajp5fCX-26" vertex="1">
          <mxGeometry x="240" width="340" height="37" as="geometry">
            <mxRectangle width="340" height="37" as="alternateBounds" />
          </mxGeometry>
        </mxCell>
        <mxCell id="WX2nrQJQql0S8Ajp5fCX-29" value="ширина фото в пкс" style="shape=partialRectangle;html=1;whiteSpace=wrap;connectable=0;strokeColor=inherit;overflow=hidden;fillColor=none;top=0;left=0;bottom=0;right=0;pointerEvents=1;fontSize=16;" parent="WX2nrQJQql0S8Ajp5fCX-26" vertex="1">
          <mxGeometry x="580" width="310" height="37" as="geometry">
            <mxRectangle width="310" height="37" as="alternateBounds" />
          </mxGeometry>
        </mxCell>
        <mxCell id="WX2nrQJQql0S8Ajp5fCX-30" style="shape=tableRow;horizontal=0;startSize=0;swimlaneHead=0;swimlaneBody=0;strokeColor=inherit;top=0;left=0;bottom=0;right=0;collapsible=0;dropTarget=0;fillColor=none;points=[[0,0.5],[1,0.5]];portConstraint=eastwest;fontSize=16;" parent="WX2nrQJQql0S8Ajp5fCX-1" vertex="1">
          <mxGeometry y="228" width="890" height="37" as="geometry" />
        </mxCell>
        <mxCell id="WX2nrQJQql0S8Ajp5fCX-31" style="shape=partialRectangle;html=1;whiteSpace=wrap;connectable=0;strokeColor=inherit;overflow=hidden;fillColor=none;top=0;left=0;bottom=0;right=0;pointerEvents=1;fontSize=16;" parent="WX2nrQJQql0S8Ajp5fCX-30" vertex="1">
          <mxGeometry width="240" height="37" as="geometry">
            <mxRectangle width="240" height="37" as="alternateBounds" />
          </mxGeometry>
        </mxCell>
        <mxCell id="WX2nrQJQql0S8Ajp5fCX-32" value="hight" style="shape=partialRectangle;html=1;whiteSpace=wrap;connectable=0;strokeColor=inherit;overflow=hidden;fillColor=none;top=0;left=0;bottom=0;right=0;pointerEvents=1;fontSize=16;" parent="WX2nrQJQql0S8Ajp5fCX-30" vertex="1">
          <mxGeometry x="240" width="340" height="37" as="geometry">
            <mxRectangle width="340" height="37" as="alternateBounds" />
          </mxGeometry>
        </mxCell>
        <mxCell id="WX2nrQJQql0S8Ajp5fCX-33" value="высота фото в пкс" style="shape=partialRectangle;html=1;whiteSpace=wrap;connectable=0;strokeColor=inherit;overflow=hidden;fillColor=none;top=0;left=0;bottom=0;right=0;pointerEvents=1;fontSize=16;" parent="WX2nrQJQql0S8Ajp5fCX-30" vertex="1">
          <mxGeometry x="580" width="310" height="37" as="geometry">
            <mxRectangle width="310" height="37" as="alternateBounds" />
          </mxGeometry>
        </mxCell>
        <mxCell id="WX2nrQJQql0S8Ajp5fCX-34" style="shape=tableRow;horizontal=0;startSize=0;swimlaneHead=0;swimlaneBody=0;strokeColor=inherit;top=0;left=0;bottom=0;right=0;collapsible=0;dropTarget=0;fillColor=none;points=[[0,0.5],[1,0.5]];portConstraint=eastwest;fontSize=16;" parent="WX2nrQJQql0S8Ajp5fCX-1" vertex="1">
          <mxGeometry y="265" width="890" height="37" as="geometry" />
        </mxCell>
        <mxCell id="WX2nrQJQql0S8Ajp5fCX-35" style="shape=partialRectangle;html=1;whiteSpace=wrap;connectable=0;strokeColor=inherit;overflow=hidden;fillColor=none;top=0;left=0;bottom=0;right=0;pointerEvents=1;fontSize=16;" parent="WX2nrQJQql0S8Ajp5fCX-34" vertex="1">
          <mxGeometry width="240" height="37" as="geometry">
            <mxRectangle width="240" height="37" as="alternateBounds" />
          </mxGeometry>
        </mxCell>
        <mxCell id="WX2nrQJQql0S8Ajp5fCX-36" value="route" style="shape=partialRectangle;html=1;whiteSpace=wrap;connectable=0;strokeColor=inherit;overflow=hidden;fillColor=none;top=0;left=0;bottom=0;right=0;pointerEvents=1;fontSize=16;" parent="WX2nrQJQql0S8Ajp5fCX-34" vertex="1">
          <mxGeometry x="240" width="340" height="37" as="geometry">
            <mxRectangle width="340" height="37" as="alternateBounds" />
          </mxGeometry>
        </mxCell>
        <mxCell id="WX2nrQJQql0S8Ajp5fCX-37" value="расположение (адрес) фото" style="shape=partialRectangle;html=1;whiteSpace=wrap;connectable=0;strokeColor=inherit;overflow=hidden;fillColor=none;top=0;left=0;bottom=0;right=0;pointerEvents=1;fontSize=16;" parent="WX2nrQJQql0S8Ajp5fCX-34" vertex="1">
          <mxGeometry x="580" width="310" height="37" as="geometry">
            <mxRectangle width="310" height="37" as="alternateBounds" />
          </mxGeometry>
        </mxCell>
        <mxCell id="WX2nrQJQql0S8Ajp5fCX-38" style="shape=tableRow;horizontal=0;startSize=0;swimlaneHead=0;swimlaneBody=0;strokeColor=inherit;top=0;left=0;bottom=0;right=0;collapsible=0;dropTarget=0;fillColor=none;points=[[0,0.5],[1,0.5]];portConstraint=eastwest;fontSize=16;" parent="WX2nrQJQql0S8Ajp5fCX-1" vertex="1">
          <mxGeometry y="302" width="890" height="37" as="geometry" />
        </mxCell>
        <mxCell id="WX2nrQJQql0S8Ajp5fCX-39" style="shape=partialRectangle;html=1;whiteSpace=wrap;connectable=0;strokeColor=inherit;overflow=hidden;fillColor=none;top=0;left=0;bottom=0;right=0;pointerEvents=1;fontSize=16;" parent="WX2nrQJQql0S8Ajp5fCX-38" vertex="1">
          <mxGeometry width="240" height="37" as="geometry">
            <mxRectangle width="240" height="37" as="alternateBounds" />
          </mxGeometry>
        </mxCell>
        <mxCell id="WX2nrQJQql0S8Ajp5fCX-40" value="created_at" style="shape=partialRectangle;html=1;whiteSpace=wrap;connectable=0;strokeColor=inherit;overflow=hidden;fillColor=none;top=0;left=0;bottom=0;right=0;pointerEvents=1;fontSize=16;" parent="WX2nrQJQql0S8Ajp5fCX-38" vertex="1">
          <mxGeometry x="240" width="340" height="37" as="geometry">
            <mxRectangle width="340" height="37" as="alternateBounds" />
          </mxGeometry>
        </mxCell>
        <mxCell id="WX2nrQJQql0S8Ajp5fCX-41" value="дата добавления фото в профиль" style="shape=partialRectangle;html=1;whiteSpace=wrap;connectable=0;strokeColor=inherit;overflow=hidden;fillColor=none;top=0;left=0;bottom=0;right=0;pointerEvents=1;fontSize=16;" parent="WX2nrQJQql0S8Ajp5fCX-38" vertex="1">
          <mxGeometry x="580" width="310" height="37" as="geometry">
            <mxRectangle width="310" height="37" as="alternateBounds" />
          </mxGeometry>
        </mxCell>
        <mxCell id="WX2nrQJQql0S8Ajp5fCX-46" value="Объект Фотографии" style="text;html=1;whiteSpace=wrap;overflow=hidden;rounded=0;fontSize=14;fontStyle=3" parent="1" vertex="1">
          <mxGeometry x="32.5" y="2080" width="1130" height="30" as="geometry" />
        </mxCell>
        <mxCell id="WX2nrQJQql0S8Ajp5fCX-49" value="Фотографии профиля" style="rounded=1;whiteSpace=wrap;html=1;" parent="1" vertex="1">
          <mxGeometry x="430" y="670" width="90" height="40" as="geometry" />
        </mxCell>
        <mxCell id="OrR8ZnOh4b3BvmMQMcl1-1" value="Clients" style="swimlane;fontStyle=0;childLayout=stackLayout;horizontal=1;startSize=30;horizontalStack=0;resizeParent=1;resizeParentMax=0;resizeLast=0;collapsible=1;marginBottom=0;whiteSpace=wrap;html=1;" vertex="1" parent="1">
          <mxGeometry x="50" y="2639" width="170" height="240" as="geometry" />
        </mxCell>
        <mxCell id="OrR8ZnOh4b3BvmMQMcl1-2" value="id INT (PK)" style="text;strokeColor=none;fillColor=none;align=left;verticalAlign=middle;spacingLeft=4;spacingRight=4;overflow=hidden;points=[[0,0.5],[1,0.5]];portConstraint=eastwest;rotatable=0;whiteSpace=wrap;html=1;" vertex="1" parent="OrR8ZnOh4b3BvmMQMcl1-1">
          <mxGeometry y="30" width="170" height="30" as="geometry" />
        </mxCell>
        <mxCell id="OrR8ZnOh4b3BvmMQMcl1-3" value="tel_number VARCHAR" style="text;strokeColor=none;fillColor=none;align=left;verticalAlign=middle;spacingLeft=4;spacingRight=4;overflow=hidden;points=[[0,0.5],[1,0.5]];portConstraint=eastwest;rotatable=0;whiteSpace=wrap;html=1;" vertex="1" parent="OrR8ZnOh4b3BvmMQMcl1-1">
          <mxGeometry y="60" width="170" height="30" as="geometry" />
        </mxCell>
        <mxCell id="OrR8ZnOh4b3BvmMQMcl1-4" value="name VARCHAR" style="text;strokeColor=none;fillColor=none;align=left;verticalAlign=middle;spacingLeft=4;spacingRight=4;overflow=hidden;points=[[0,0.5],[1,0.5]];portConstraint=eastwest;rotatable=0;whiteSpace=wrap;html=1;" vertex="1" parent="OrR8ZnOh4b3BvmMQMcl1-1">
          <mxGeometry y="90" width="170" height="30" as="geometry" />
        </mxCell>
        <mxCell id="OrR8ZnOh4b3BvmMQMcl1-5" value="surname VARCHAR" style="text;strokeColor=none;fillColor=none;align=left;verticalAlign=middle;spacingLeft=4;spacingRight=4;overflow=hidden;points=[[0,0.5],[1,0.5]];portConstraint=eastwest;rotatable=0;whiteSpace=wrap;html=1;" vertex="1" parent="OrR8ZnOh4b3BvmMQMcl1-1">
          <mxGeometry y="120" width="170" height="30" as="geometry" />
        </mxCell>
        <mxCell id="OrR8ZnOh4b3BvmMQMcl1-6" value="patronymic VARCHAR" style="text;strokeColor=none;fillColor=none;align=left;verticalAlign=middle;spacingLeft=4;spacingRight=4;overflow=hidden;points=[[0,0.5],[1,0.5]];portConstraint=eastwest;rotatable=0;whiteSpace=wrap;html=1;" vertex="1" parent="OrR8ZnOh4b3BvmMQMcl1-1">
          <mxGeometry y="150" width="170" height="30" as="geometry" />
        </mxCell>
        <mxCell id="OrR8ZnOh4b3BvmMQMcl1-7" value="city VARCHAR" style="text;strokeColor=none;fillColor=none;align=left;verticalAlign=middle;spacingLeft=4;spacingRight=4;overflow=hidden;points=[[0,0.5],[1,0.5]];portConstraint=eastwest;rotatable=0;whiteSpace=wrap;html=1;" vertex="1" parent="OrR8ZnOh4b3BvmMQMcl1-1">
          <mxGeometry y="180" width="170" height="30" as="geometry" />
        </mxCell>
        <mxCell id="OrR8ZnOh4b3BvmMQMcl1-8" value="email VARCHAR" style="text;strokeColor=none;fillColor=none;align=left;verticalAlign=middle;spacingLeft=4;spacingRight=4;overflow=hidden;points=[[0,0.5],[1,0.5]];portConstraint=eastwest;rotatable=0;whiteSpace=wrap;html=1;" vertex="1" parent="OrR8ZnOh4b3BvmMQMcl1-1">
          <mxGeometry y="210" width="170" height="30" as="geometry" />
        </mxCell>
        <mxCell id="OrR8ZnOh4b3BvmMQMcl1-9" value="orders" style="swimlane;fontStyle=0;childLayout=stackLayout;horizontal=1;startSize=30;horizontalStack=0;resizeParent=1;resizeParentMax=0;resizeLast=0;collapsible=1;marginBottom=0;whiteSpace=wrap;html=1;" vertex="1" parent="1">
          <mxGeometry x="290" y="2600" width="190" height="270" as="geometry" />
        </mxCell>
        <mxCell id="OrR8ZnOh4b3BvmMQMcl1-10" value="id INT (PK)" style="text;strokeColor=none;fillColor=none;align=left;verticalAlign=middle;spacingLeft=4;spacingRight=4;overflow=hidden;points=[[0,0.5],[1,0.5]];portConstraint=eastwest;rotatable=0;whiteSpace=wrap;html=1;" vertex="1" parent="OrR8ZnOh4b3BvmMQMcl1-9">
          <mxGeometry y="30" width="190" height="30" as="geometry" />
        </mxCell>
        <mxCell id="OrR8ZnOh4b3BvmMQMcl1-11" value="client_id INT (FK)" style="text;strokeColor=none;fillColor=none;align=left;verticalAlign=middle;spacingLeft=4;spacingRight=4;overflow=hidden;points=[[0,0.5],[1,0.5]];portConstraint=eastwest;rotatable=0;whiteSpace=wrap;html=1;" vertex="1" parent="OrR8ZnOh4b3BvmMQMcl1-9">
          <mxGeometry y="60" width="190" height="30" as="geometry" />
        </mxCell>
        <mxCell id="OrR8ZnOh4b3BvmMQMcl1-12" value="photographer_id INT (FK)" style="text;strokeColor=none;fillColor=none;align=left;verticalAlign=middle;spacingLeft=4;spacingRight=4;overflow=hidden;points=[[0,0.5],[1,0.5]];portConstraint=eastwest;rotatable=0;whiteSpace=wrap;html=1;" vertex="1" parent="OrR8ZnOh4b3BvmMQMcl1-9">
          <mxGeometry y="90" width="190" height="30" as="geometry" />
        </mxCell>
        <mxCell id="OrR8ZnOh4b3BvmMQMcl1-13" value="time_date&amp;nbsp;TIMESTAMP WITH TIME ZONE" style="text;strokeColor=none;fillColor=none;align=left;verticalAlign=middle;spacingLeft=4;spacingRight=4;overflow=hidden;points=[[0,0.5],[1,0.5]];portConstraint=eastwest;rotatable=0;whiteSpace=wrap;html=1;" vertex="1" parent="OrR8ZnOh4b3BvmMQMcl1-9">
          <mxGeometry y="120" width="190" height="30" as="geometry" />
        </mxCell>
        <mxCell id="OrR8ZnOh4b3BvmMQMcl1-14" value="location_id INT (FK)" style="text;strokeColor=none;fillColor=none;align=left;verticalAlign=middle;spacingLeft=4;spacingRight=4;overflow=hidden;points=[[0,0.5],[1,0.5]];portConstraint=eastwest;rotatable=0;whiteSpace=wrap;html=1;" vertex="1" parent="OrR8ZnOh4b3BvmMQMcl1-9">
          <mxGeometry y="150" width="190" height="30" as="geometry" />
        </mxCell>
        <mxCell id="OrR8ZnOh4b3BvmMQMcl1-15" value="type_id INT" style="text;strokeColor=none;fillColor=none;align=left;verticalAlign=middle;spacingLeft=4;spacingRight=4;overflow=hidden;points=[[0,0.5],[1,0.5]];portConstraint=eastwest;rotatable=0;whiteSpace=wrap;html=1;" vertex="1" parent="OrR8ZnOh4b3BvmMQMcl1-9">
          <mxGeometry y="180" width="190" height="30" as="geometry" />
        </mxCell>
        <mxCell id="OrR8ZnOh4b3BvmMQMcl1-16" value="style_id INT" style="text;strokeColor=none;fillColor=none;align=left;verticalAlign=middle;spacingLeft=4;spacingRight=4;overflow=hidden;points=[[0,0.5],[1,0.5]];portConstraint=eastwest;rotatable=0;whiteSpace=wrap;html=1;" vertex="1" parent="OrR8ZnOh4b3BvmMQMcl1-9">
          <mxGeometry y="210" width="190" height="30" as="geometry" />
        </mxCell>
        <mxCell id="OrR8ZnOh4b3BvmMQMcl1-17" value="price&amp;nbsp;DECIMAL(10, 2)" style="text;strokeColor=none;fillColor=none;align=left;verticalAlign=middle;spacingLeft=4;spacingRight=4;overflow=hidden;points=[[0,0.5],[1,0.5]];portConstraint=eastwest;rotatable=0;whiteSpace=wrap;html=1;" vertex="1" parent="OrR8ZnOh4b3BvmMQMcl1-9">
          <mxGeometry y="240" width="190" height="30" as="geometry" />
        </mxCell>
        <mxCell id="OrR8ZnOh4b3BvmMQMcl1-18" value="photographers" style="swimlane;fontStyle=0;childLayout=stackLayout;horizontal=1;startSize=30;horizontalStack=0;resizeParent=1;resizeParentMax=0;resizeLast=0;collapsible=1;marginBottom=0;whiteSpace=wrap;html=1;" vertex="1" parent="1">
          <mxGeometry x="560" y="2660" width="180" height="240" as="geometry" />
        </mxCell>
        <mxCell id="OrR8ZnOh4b3BvmMQMcl1-19" value="id INT (PK)" style="text;strokeColor=none;fillColor=none;align=left;verticalAlign=middle;spacingLeft=4;spacingRight=4;overflow=hidden;points=[[0,0.5],[1,0.5]];portConstraint=eastwest;rotatable=0;whiteSpace=wrap;html=1;" vertex="1" parent="OrR8ZnOh4b3BvmMQMcl1-18">
          <mxGeometry y="30" width="180" height="30" as="geometry" />
        </mxCell>
        <mxCell id="OrR8ZnOh4b3BvmMQMcl1-20" value="tel_number VARCHAR" style="text;strokeColor=none;fillColor=none;align=left;verticalAlign=middle;spacingLeft=4;spacingRight=4;overflow=hidden;points=[[0,0.5],[1,0.5]];portConstraint=eastwest;rotatable=0;whiteSpace=wrap;html=1;" vertex="1" parent="OrR8ZnOh4b3BvmMQMcl1-18">
          <mxGeometry y="60" width="180" height="30" as="geometry" />
        </mxCell>
        <mxCell id="OrR8ZnOh4b3BvmMQMcl1-21" value="name VARCHAR" style="text;strokeColor=none;fillColor=none;align=left;verticalAlign=middle;spacingLeft=4;spacingRight=4;overflow=hidden;points=[[0,0.5],[1,0.5]];portConstraint=eastwest;rotatable=0;whiteSpace=wrap;html=1;" vertex="1" parent="OrR8ZnOh4b3BvmMQMcl1-18">
          <mxGeometry y="90" width="180" height="30" as="geometry" />
        </mxCell>
        <mxCell id="OrR8ZnOh4b3BvmMQMcl1-22" value="surname VARCHAR" style="text;strokeColor=none;fillColor=none;align=left;verticalAlign=middle;spacingLeft=4;spacingRight=4;overflow=hidden;points=[[0,0.5],[1,0.5]];portConstraint=eastwest;rotatable=0;whiteSpace=wrap;html=1;" vertex="1" parent="OrR8ZnOh4b3BvmMQMcl1-18">
          <mxGeometry y="120" width="180" height="30" as="geometry" />
        </mxCell>
        <mxCell id="OrR8ZnOh4b3BvmMQMcl1-23" value="patronymic VARCHAR" style="text;strokeColor=none;fillColor=none;align=left;verticalAlign=middle;spacingLeft=4;spacingRight=4;overflow=hidden;points=[[0,0.5],[1,0.5]];portConstraint=eastwest;rotatable=0;whiteSpace=wrap;html=1;" vertex="1" parent="OrR8ZnOh4b3BvmMQMcl1-18">
          <mxGeometry y="150" width="180" height="30" as="geometry" />
        </mxCell>
        <mxCell id="OrR8ZnOh4b3BvmMQMcl1-24" value="email VARCHAR" style="text;strokeColor=none;fillColor=none;align=left;verticalAlign=middle;spacingLeft=4;spacingRight=4;overflow=hidden;points=[[0,0.5],[1,0.5]];portConstraint=eastwest;rotatable=0;whiteSpace=wrap;html=1;" vertex="1" parent="OrR8ZnOh4b3BvmMQMcl1-18">
          <mxGeometry y="180" width="180" height="30" as="geometry" />
        </mxCell>
        <mxCell id="OrR8ZnOh4b3BvmMQMcl1-25" value="rating INT" style="text;strokeColor=none;fillColor=none;align=left;verticalAlign=middle;spacingLeft=4;spacingRight=4;overflow=hidden;points=[[0,0.5],[1,0.5]];portConstraint=eastwest;rotatable=0;whiteSpace=wrap;html=1;" vertex="1" parent="OrR8ZnOh4b3BvmMQMcl1-18">
          <mxGeometry y="210" width="180" height="30" as="geometry" />
        </mxCell>
        <mxCell id="OrR8ZnOh4b3BvmMQMcl1-26" style="edgeStyle=orthogonalEdgeStyle;rounded=0;orthogonalLoop=1;jettySize=auto;html=1;entryX=0;entryY=0.5;entryDx=0;entryDy=0;exitX=0.951;exitY=0.005;exitDx=0;exitDy=0;exitPerimeter=0;startArrow=ERzeroToOne;startFill=0;endArrow=ERzeroToMany;endFill=0;" edge="1" parent="1" source="OrR8ZnOh4b3BvmMQMcl1-27" target="OrR8ZnOh4b3BvmMQMcl1-14">
          <mxGeometry relative="1" as="geometry" />
        </mxCell>
        <mxCell id="OrR8ZnOh4b3BvmMQMcl1-27" value="locations" style="swimlane;fontStyle=0;childLayout=stackLayout;horizontal=1;startSize=30;horizontalStack=0;resizeParent=1;resizeParentMax=0;resizeLast=0;collapsible=1;marginBottom=0;whiteSpace=wrap;html=1;" vertex="1" parent="1">
          <mxGeometry x="70" y="2910" width="190" height="270" as="geometry" />
        </mxCell>
        <mxCell id="OrR8ZnOh4b3BvmMQMcl1-28" value="id INT (PK)" style="text;strokeColor=none;fillColor=none;align=left;verticalAlign=middle;spacingLeft=4;spacingRight=4;overflow=hidden;points=[[0,0.5],[1,0.5]];portConstraint=eastwest;rotatable=0;whiteSpace=wrap;html=1;" vertex="1" parent="OrR8ZnOh4b3BvmMQMcl1-27">
          <mxGeometry y="30" width="190" height="30" as="geometry" />
        </mxCell>
        <mxCell id="OrR8ZnOh4b3BvmMQMcl1-29" value="photographer_id INT (FK)" style="text;strokeColor=none;fillColor=none;align=left;verticalAlign=middle;spacingLeft=4;spacingRight=4;overflow=hidden;points=[[0,0.5],[1,0.5]];portConstraint=eastwest;rotatable=0;whiteSpace=wrap;html=1;" vertex="1" parent="OrR8ZnOh4b3BvmMQMcl1-27">
          <mxGeometry y="60" width="190" height="30" as="geometry" />
        </mxCell>
        <mxCell id="OrR8ZnOh4b3BvmMQMcl1-30" value="country&amp;nbsp;VARCHAR" style="text;strokeColor=none;fillColor=none;align=left;verticalAlign=middle;spacingLeft=4;spacingRight=4;overflow=hidden;points=[[0,0.5],[1,0.5]];portConstraint=eastwest;rotatable=0;whiteSpace=wrap;html=1;" vertex="1" parent="OrR8ZnOh4b3BvmMQMcl1-27">
          <mxGeometry y="90" width="190" height="30" as="geometry" />
        </mxCell>
        <mxCell id="OrR8ZnOh4b3BvmMQMcl1-31" value="city&amp;nbsp;VARCHAR" style="text;strokeColor=none;fillColor=none;align=left;verticalAlign=middle;spacingLeft=4;spacingRight=4;overflow=hidden;points=[[0,0.5],[1,0.5]];portConstraint=eastwest;rotatable=0;whiteSpace=wrap;html=1;" vertex="1" parent="OrR8ZnOh4b3BvmMQMcl1-27">
          <mxGeometry y="120" width="190" height="30" as="geometry" />
        </mxCell>
        <mxCell id="OrR8ZnOh4b3BvmMQMcl1-32" value="street VARCHAR" style="text;strokeColor=none;fillColor=none;align=left;verticalAlign=middle;spacingLeft=4;spacingRight=4;overflow=hidden;points=[[0,0.5],[1,0.5]];portConstraint=eastwest;rotatable=0;whiteSpace=wrap;html=1;" vertex="1" parent="OrR8ZnOh4b3BvmMQMcl1-27">
          <mxGeometry y="150" width="190" height="30" as="geometry" />
        </mxCell>
        <mxCell id="OrR8ZnOh4b3BvmMQMcl1-33" value="building VARCHAR" style="text;strokeColor=none;fillColor=none;align=left;verticalAlign=middle;spacingLeft=4;spacingRight=4;overflow=hidden;points=[[0,0.5],[1,0.5]];portConstraint=eastwest;rotatable=0;whiteSpace=wrap;html=1;" vertex="1" parent="OrR8ZnOh4b3BvmMQMcl1-27">
          <mxGeometry y="180" width="190" height="30" as="geometry" />
        </mxCell>
        <mxCell id="OrR8ZnOh4b3BvmMQMcl1-34" value="latitude DECIMAL(8, 6)" style="text;strokeColor=none;fillColor=none;align=left;verticalAlign=middle;spacingLeft=4;spacingRight=4;overflow=hidden;points=[[0,0.5],[1,0.5]];portConstraint=eastwest;rotatable=0;whiteSpace=wrap;html=1;" vertex="1" parent="OrR8ZnOh4b3BvmMQMcl1-27">
          <mxGeometry y="210" width="190" height="30" as="geometry" />
        </mxCell>
        <mxCell id="OrR8ZnOh4b3BvmMQMcl1-35" value="longitude DECIMAL(8, 6)" style="text;strokeColor=none;fillColor=none;align=left;verticalAlign=middle;spacingLeft=4;spacingRight=4;overflow=hidden;points=[[0,0.5],[1,0.5]];portConstraint=eastwest;rotatable=0;whiteSpace=wrap;html=1;" vertex="1" parent="OrR8ZnOh4b3BvmMQMcl1-27">
          <mxGeometry y="240" width="190" height="30" as="geometry" />
        </mxCell>
        <mxCell id="OrR8ZnOh4b3BvmMQMcl1-36" style="edgeStyle=orthogonalEdgeStyle;rounded=0;orthogonalLoop=1;jettySize=auto;html=1;entryX=-0.004;entryY=0.778;entryDx=0;entryDy=0;startArrow=ERmandOne;startFill=0;endArrow=ERzeroToMany;endFill=0;entryPerimeter=0;" edge="1" parent="1" source="OrR8ZnOh4b3BvmMQMcl1-2" target="OrR8ZnOh4b3BvmMQMcl1-11">
          <mxGeometry relative="1" as="geometry">
            <mxPoint x="255" y="2650" as="sourcePoint" />
          </mxGeometry>
        </mxCell>
        <mxCell id="OrR8ZnOh4b3BvmMQMcl1-37" style="edgeStyle=orthogonalEdgeStyle;rounded=0;orthogonalLoop=1;jettySize=auto;html=1;startArrow=ERzeroToOne;startFill=0;endArrow=ERzeroToMany;endFill=0;exitX=0;exitY=0.5;exitDx=0;exitDy=0;entryX=1;entryY=0.5;entryDx=0;entryDy=0;" edge="1" parent="1" source="OrR8ZnOh4b3BvmMQMcl1-19" target="OrR8ZnOh4b3BvmMQMcl1-12">
          <mxGeometry relative="1" as="geometry">
            <mxPoint x="540" y="2700" as="sourcePoint" />
          </mxGeometry>
        </mxCell>
        <mxCell id="OrR8ZnOh4b3BvmMQMcl1-38" style="edgeStyle=orthogonalEdgeStyle;rounded=0;orthogonalLoop=1;jettySize=auto;html=1;endArrow=ERmandOne;endFill=0;startArrow=ERzeroToMany;startFill=0;entryX=0.385;entryY=1.111;entryDx=0;entryDy=0;entryPerimeter=0;" edge="1" parent="1" source="OrR8ZnOh4b3BvmMQMcl1-29" target="OrR8ZnOh4b3BvmMQMcl1-25">
          <mxGeometry relative="1" as="geometry">
            <mxPoint x="630" y="2930" as="targetPoint" />
            <Array as="points">
              <mxPoint x="629" y="2985" />
            </Array>
          </mxGeometry>
        </mxCell>
        <mxCell id="OrR8ZnOh4b3BvmMQMcl1-39" value="photos" style="swimlane;fontStyle=0;childLayout=stackLayout;horizontal=1;startSize=30;horizontalStack=0;resizeParent=1;resizeParentMax=0;resizeLast=0;collapsible=1;marginBottom=0;whiteSpace=wrap;html=1;" vertex="1" parent="1">
          <mxGeometry x="810" y="2660" width="180" height="270" as="geometry" />
        </mxCell>
        <mxCell id="OrR8ZnOh4b3BvmMQMcl1-40" value="id INT (PK)" style="text;strokeColor=none;fillColor=none;align=left;verticalAlign=middle;spacingLeft=4;spacingRight=4;overflow=hidden;points=[[0,0.5],[1,0.5]];portConstraint=eastwest;rotatable=0;whiteSpace=wrap;html=1;" vertex="1" parent="OrR8ZnOh4b3BvmMQMcl1-39">
          <mxGeometry y="30" width="180" height="30" as="geometry" />
        </mxCell>
        <mxCell id="OrR8ZnOh4b3BvmMQMcl1-41" value="photographer_id INT (FK)" style="text;strokeColor=none;fillColor=none;align=left;verticalAlign=middle;spacingLeft=4;spacingRight=4;overflow=hidden;points=[[0,0.5],[1,0.5]];portConstraint=eastwest;rotatable=0;whiteSpace=wrap;html=1;" vertex="1" parent="OrR8ZnOh4b3BvmMQMcl1-39">
          <mxGeometry y="60" width="180" height="30" as="geometry" />
        </mxCell>
        <mxCell id="OrR8ZnOh4b3BvmMQMcl1-42" value="name VARCHAR" style="text;strokeColor=none;fillColor=none;align=left;verticalAlign=middle;spacingLeft=4;spacingRight=4;overflow=hidden;points=[[0,0.5],[1,0.5]];portConstraint=eastwest;rotatable=0;whiteSpace=wrap;html=1;" vertex="1" parent="OrR8ZnOh4b3BvmMQMcl1-39">
          <mxGeometry y="90" width="180" height="30" as="geometry" />
        </mxCell>
        <mxCell id="OrR8ZnOh4b3BvmMQMcl1-43" value="format VARCHAR" style="text;strokeColor=none;fillColor=none;align=left;verticalAlign=middle;spacingLeft=4;spacingRight=4;overflow=hidden;points=[[0,0.5],[1,0.5]];portConstraint=eastwest;rotatable=0;whiteSpace=wrap;html=1;" vertex="1" parent="OrR8ZnOh4b3BvmMQMcl1-39">
          <mxGeometry y="120" width="180" height="30" as="geometry" />
        </mxCell>
        <mxCell id="OrR8ZnOh4b3BvmMQMcl1-44" value="width INT" style="text;strokeColor=none;fillColor=none;align=left;verticalAlign=middle;spacingLeft=4;spacingRight=4;overflow=hidden;points=[[0,0.5],[1,0.5]];portConstraint=eastwest;rotatable=0;whiteSpace=wrap;html=1;" vertex="1" parent="OrR8ZnOh4b3BvmMQMcl1-39">
          <mxGeometry y="150" width="180" height="30" as="geometry" />
        </mxCell>
        <mxCell id="OrR8ZnOh4b3BvmMQMcl1-45" value="hight INT" style="text;strokeColor=none;fillColor=none;align=left;verticalAlign=middle;spacingLeft=4;spacingRight=4;overflow=hidden;points=[[0,0.5],[1,0.5]];portConstraint=eastwest;rotatable=0;whiteSpace=wrap;html=1;" vertex="1" parent="OrR8ZnOh4b3BvmMQMcl1-39">
          <mxGeometry y="180" width="180" height="30" as="geometry" />
        </mxCell>
        <mxCell id="OrR8ZnOh4b3BvmMQMcl1-46" value="route VARCHAR" style="text;strokeColor=none;fillColor=none;align=left;verticalAlign=middle;spacingLeft=4;spacingRight=4;overflow=hidden;points=[[0,0.5],[1,0.5]];portConstraint=eastwest;rotatable=0;whiteSpace=wrap;html=1;" vertex="1" parent="OrR8ZnOh4b3BvmMQMcl1-39">
          <mxGeometry y="210" width="180" height="30" as="geometry" />
        </mxCell>
        <mxCell id="OrR8ZnOh4b3BvmMQMcl1-47" value="created_at TIMESTAMP WITH TIME ZONE" style="text;strokeColor=none;fillColor=none;align=left;verticalAlign=middle;spacingLeft=4;spacingRight=4;overflow=hidden;points=[[0,0.5],[1,0.5]];portConstraint=eastwest;rotatable=0;whiteSpace=wrap;html=1;" vertex="1" parent="OrR8ZnOh4b3BvmMQMcl1-39">
          <mxGeometry y="240" width="180" height="30" as="geometry" />
        </mxCell>
        <mxCell id="OrR8ZnOh4b3BvmMQMcl1-48" style="edgeStyle=orthogonalEdgeStyle;rounded=0;orthogonalLoop=1;jettySize=auto;html=1;exitX=1;exitY=0.5;exitDx=0;exitDy=0;startArrow=ERmandOne;startFill=0;endArrow=ERzeroToMany;endFill=0;" edge="1" parent="1" source="OrR8ZnOh4b3BvmMQMcl1-19" target="OrR8ZnOh4b3BvmMQMcl1-40">
          <mxGeometry relative="1" as="geometry" />
        </mxCell>
        <mxCell id="OrR8ZnOh4b3BvmMQMcl1-50" value="&lt;h1 style=&quot;margin-top: 0px; line-height: 160%;&quot;&gt;3. ERD-диаграмма&lt;br&gt;&lt;div style=&quot;text-align: left;&quot;&gt;&lt;span style=&quot;background-color: initial; font-size: 12px; font-weight: normal; text-align: center;&quot;&gt;ERD-диаграмма — диаграмма где показано, как разные «сущности» (люди, объекты,&amp;nbsp;&lt;/span&gt;&lt;span style=&quot;text-align: center; background-color: initial; font-size: 12px; font-weight: normal;&quot;&gt;концепции и так далее) связаны между собой внутри системы.&lt;/span&gt;&lt;/div&gt;&lt;/h1&gt;" style="text;html=1;whiteSpace=wrap;overflow=hidden;rounded=0;" vertex="1" parent="1">
          <mxGeometry x="30" y="2490" width="1070" height="130" as="geometry" />
        </mxCell>
      </root>
    </mxGraphModel>
  </diagram>
  <diagram id="bOSbffEU9hx-_EogiAGJ" name="Страница — 2">
    <mxGraphModel dx="722" dy="482" grid="1" gridSize="10" guides="1" tooltips="1" connect="1" arrows="1" fold="1" page="1" pageScale="1" pageWidth="1169" pageHeight="1654" math="0" shadow="0">
      <root>
        <mxCell id="0" />
        <mxCell id="1" parent="0" />
        <mxCell id="OnewE4_LEBXvHN6tmqfH-1" value="&lt;h1 style=&quot;margin-top: 0px; line-height: 160%;&quot;&gt;4. Sequence diagramm (диаграмма последовательностей)&amp;nbsp;&lt;/h1&gt;&lt;p style=&quot;line-height: 19.2px;&quot;&gt;&lt;span style=&quot;font-size: 14px;&quot;&gt;Диаграмма последовательности — это тип UML-диаграммы, который используется для&amp;nbsp;&lt;/span&gt;&lt;span style=&quot;font-size: 14px; background-color: initial;&quot;&gt;моделирования взаимодействий между объектами в системе. Она отображает, в каком порядке и как&amp;nbsp;&lt;/span&gt;&lt;span style=&quot;font-size: 14px; background-color: initial;&quot;&gt;взаимодействуют между собой различные объекты или компоненты во времени. Основное&amp;nbsp;&lt;/span&gt;&lt;span style=&quot;font-size: 14px; background-color: initial;&quot;&gt;назначение — показать, как запросы и ответы передаются между элементами системы.&lt;/span&gt;&lt;/p&gt;" style="text;html=1;whiteSpace=wrap;overflow=hidden;rounded=0;" vertex="1" parent="1">
          <mxGeometry x="25" y="20" width="1125" height="150" as="geometry" />
        </mxCell>
        <mxCell id="OnewE4_LEBXvHN6tmqfH-4" value="" style="shape=table;startSize=0;container=1;collapsible=0;childLayout=tableLayout;fontSize=16;" vertex="1" parent="1">
          <mxGeometry x="40" y="800" width="690" height="524.9999999999998" as="geometry" />
        </mxCell>
        <mxCell id="OnewE4_LEBXvHN6tmqfH-5" value="" style="shape=tableRow;horizontal=0;startSize=0;swimlaneHead=0;swimlaneBody=0;strokeColor=inherit;top=0;left=0;bottom=0;right=0;collapsible=0;dropTarget=0;fillColor=none;points=[[0,0.5],[1,0.5]];portConstraint=eastwest;fontSize=16;" vertex="1" parent="OnewE4_LEBXvHN6tmqfH-4">
          <mxGeometry width="690" height="50" as="geometry" />
        </mxCell>
        <mxCell id="OnewE4_LEBXvHN6tmqfH-6" value="№" style="shape=partialRectangle;html=1;whiteSpace=wrap;connectable=0;strokeColor=inherit;overflow=hidden;fillColor=none;top=0;left=0;bottom=0;right=0;pointerEvents=1;fontSize=19;fontStyle=1" vertex="1" parent="OnewE4_LEBXvHN6tmqfH-5">
          <mxGeometry width="88" height="50" as="geometry">
            <mxRectangle width="88" height="50" as="alternateBounds" />
          </mxGeometry>
        </mxCell>
        <mxCell id="OnewE4_LEBXvHN6tmqfH-7" value="Описание" style="shape=partialRectangle;html=1;whiteSpace=wrap;connectable=0;strokeColor=inherit;overflow=hidden;fillColor=none;top=0;left=0;bottom=0;right=0;pointerEvents=1;fontSize=19;fontStyle=1" vertex="1" parent="OnewE4_LEBXvHN6tmqfH-5">
          <mxGeometry x="88" width="602" height="50" as="geometry">
            <mxRectangle width="602" height="50" as="alternateBounds" />
          </mxGeometry>
        </mxCell>
        <mxCell id="OnewE4_LEBXvHN6tmqfH-38" style="shape=tableRow;horizontal=0;startSize=0;swimlaneHead=0;swimlaneBody=0;strokeColor=inherit;top=0;left=0;bottom=0;right=0;collapsible=0;dropTarget=0;fillColor=none;points=[[0,0.5],[1,0.5]];portConstraint=eastwest;fontSize=16;" vertex="1" parent="OnewE4_LEBXvHN6tmqfH-4">
          <mxGeometry y="50" width="690" height="68" as="geometry" />
        </mxCell>
        <mxCell id="OnewE4_LEBXvHN6tmqfH-39" value="1." style="shape=partialRectangle;html=1;whiteSpace=wrap;connectable=0;strokeColor=inherit;overflow=hidden;fillColor=none;top=0;left=0;bottom=0;right=0;pointerEvents=1;fontSize=16;" vertex="1" parent="OnewE4_LEBXvHN6tmqfH-38">
          <mxGeometry width="88" height="68" as="geometry">
            <mxRectangle width="88" height="68" as="alternateBounds" />
          </mxGeometry>
        </mxCell>
        <mxCell id="OnewE4_LEBXvHN6tmqfH-40" value="Пользователь принимает все введенные параметры фильтрации, нажимая кнопку &quot;Apply&quot;" style="shape=partialRectangle;html=1;whiteSpace=wrap;connectable=0;strokeColor=inherit;overflow=hidden;fillColor=none;top=0;left=0;bottom=0;right=0;pointerEvents=1;fontSize=16;align=left;spacingLeft=9;" vertex="1" parent="OnewE4_LEBXvHN6tmqfH-38">
          <mxGeometry x="88" width="602" height="68" as="geometry">
            <mxRectangle width="602" height="68" as="alternateBounds" />
          </mxGeometry>
        </mxCell>
        <mxCell id="OnewE4_LEBXvHN6tmqfH-35" style="shape=tableRow;horizontal=0;startSize=0;swimlaneHead=0;swimlaneBody=0;strokeColor=inherit;top=0;left=0;bottom=0;right=0;collapsible=0;dropTarget=0;fillColor=none;points=[[0,0.5],[1,0.5]];portConstraint=eastwest;fontSize=16;spacingLeft=9;" vertex="1" parent="OnewE4_LEBXvHN6tmqfH-4">
          <mxGeometry y="118" width="690" height="68" as="geometry" />
        </mxCell>
        <mxCell id="OnewE4_LEBXvHN6tmqfH-36" value="2." style="shape=partialRectangle;html=1;whiteSpace=wrap;connectable=0;strokeColor=inherit;overflow=hidden;fillColor=none;top=0;left=0;bottom=0;right=0;pointerEvents=1;fontSize=16;" vertex="1" parent="OnewE4_LEBXvHN6tmqfH-35">
          <mxGeometry width="88" height="68" as="geometry">
            <mxRectangle width="88" height="68" as="alternateBounds" />
          </mxGeometry>
        </mxCell>
        <mxCell id="OnewE4_LEBXvHN6tmqfH-37" value="Мобильное приложение направляет http запрос с параметрами фильтрации" style="shape=partialRectangle;html=1;whiteSpace=wrap;connectable=0;strokeColor=inherit;overflow=hidden;fillColor=none;top=0;left=0;bottom=0;right=0;pointerEvents=1;fontSize=16;align=left;spacingLeft=9;" vertex="1" parent="OnewE4_LEBXvHN6tmqfH-35">
          <mxGeometry x="88" width="602" height="68" as="geometry">
            <mxRectangle width="602" height="68" as="alternateBounds" />
          </mxGeometry>
        </mxCell>
        <mxCell id="OnewE4_LEBXvHN6tmqfH-32" style="shape=tableRow;horizontal=0;startSize=0;swimlaneHead=0;swimlaneBody=0;strokeColor=inherit;top=0;left=0;bottom=0;right=0;collapsible=0;dropTarget=0;fillColor=none;points=[[0,0.5],[1,0.5]];portConstraint=eastwest;fontSize=16;" vertex="1" parent="OnewE4_LEBXvHN6tmqfH-4">
          <mxGeometry y="186" width="690" height="68" as="geometry" />
        </mxCell>
        <mxCell id="OnewE4_LEBXvHN6tmqfH-33" value="3." style="shape=partialRectangle;html=1;whiteSpace=wrap;connectable=0;strokeColor=inherit;overflow=hidden;fillColor=none;top=0;left=0;bottom=0;right=0;pointerEvents=1;fontSize=16;" vertex="1" parent="OnewE4_LEBXvHN6tmqfH-32">
          <mxGeometry width="88" height="68" as="geometry">
            <mxRectangle width="88" height="68" as="alternateBounds" />
          </mxGeometry>
        </mxCell>
        <mxCell id="OnewE4_LEBXvHN6tmqfH-34" value="Формируется и валидируется sql запрос" style="shape=partialRectangle;html=1;whiteSpace=wrap;connectable=0;strokeColor=inherit;overflow=hidden;fillColor=none;top=0;left=0;bottom=0;right=0;pointerEvents=1;fontSize=16;align=left;spacingLeft=9;" vertex="1" parent="OnewE4_LEBXvHN6tmqfH-32">
          <mxGeometry x="88" width="602" height="68" as="geometry">
            <mxRectangle width="602" height="68" as="alternateBounds" />
          </mxGeometry>
        </mxCell>
        <mxCell id="OnewE4_LEBXvHN6tmqfH-29" style="shape=tableRow;horizontal=0;startSize=0;swimlaneHead=0;swimlaneBody=0;strokeColor=inherit;top=0;left=0;bottom=0;right=0;collapsible=0;dropTarget=0;fillColor=none;points=[[0,0.5],[1,0.5]];portConstraint=eastwest;fontSize=16;" vertex="1" parent="OnewE4_LEBXvHN6tmqfH-4">
          <mxGeometry y="254" width="690" height="67" as="geometry" />
        </mxCell>
        <mxCell id="OnewE4_LEBXvHN6tmqfH-30" value="4." style="shape=partialRectangle;html=1;whiteSpace=wrap;connectable=0;strokeColor=inherit;overflow=hidden;fillColor=none;top=0;left=0;bottom=0;right=0;pointerEvents=1;fontSize=16;" vertex="1" parent="OnewE4_LEBXvHN6tmqfH-29">
          <mxGeometry width="88" height="67" as="geometry">
            <mxRectangle width="88" height="67" as="alternateBounds" />
          </mxGeometry>
        </mxCell>
        <mxCell id="OnewE4_LEBXvHN6tmqfH-31" value="Бэк направляет sql запрос на получение списка фотографов" style="shape=partialRectangle;html=1;whiteSpace=wrap;connectable=0;strokeColor=inherit;overflow=hidden;fillColor=none;top=0;left=0;bottom=0;right=0;pointerEvents=1;fontSize=16;align=left;spacingLeft=9;" vertex="1" parent="OnewE4_LEBXvHN6tmqfH-29">
          <mxGeometry x="88" width="602" height="67" as="geometry">
            <mxRectangle width="602" height="67" as="alternateBounds" />
          </mxGeometry>
        </mxCell>
        <mxCell id="OnewE4_LEBXvHN6tmqfH-26" style="shape=tableRow;horizontal=0;startSize=0;swimlaneHead=0;swimlaneBody=0;strokeColor=inherit;top=0;left=0;bottom=0;right=0;collapsible=0;dropTarget=0;fillColor=none;points=[[0,0.5],[1,0.5]];portConstraint=eastwest;fontSize=16;" vertex="1" parent="OnewE4_LEBXvHN6tmqfH-4">
          <mxGeometry y="321" width="690" height="68" as="geometry" />
        </mxCell>
        <mxCell id="OnewE4_LEBXvHN6tmqfH-27" value="5." style="shape=partialRectangle;html=1;whiteSpace=wrap;connectable=0;strokeColor=inherit;overflow=hidden;fillColor=none;top=0;left=0;bottom=0;right=0;pointerEvents=1;fontSize=16;" vertex="1" parent="OnewE4_LEBXvHN6tmqfH-26">
          <mxGeometry width="88" height="68" as="geometry">
            <mxRectangle width="88" height="68" as="alternateBounds" />
          </mxGeometry>
        </mxCell>
        <mxCell id="OnewE4_LEBXvHN6tmqfH-28" value="ХД выполняет запрос и возвращает список фотографов, соответствующих критериям пользователя" style="shape=partialRectangle;html=1;whiteSpace=wrap;connectable=0;strokeColor=inherit;overflow=hidden;fillColor=none;top=0;left=0;bottom=0;right=0;pointerEvents=1;fontSize=16;align=left;spacingLeft=9;" vertex="1" parent="OnewE4_LEBXvHN6tmqfH-26">
          <mxGeometry x="88" width="602" height="68" as="geometry">
            <mxRectangle width="602" height="68" as="alternateBounds" />
          </mxGeometry>
        </mxCell>
        <mxCell id="OnewE4_LEBXvHN6tmqfH-54" style="shape=tableRow;horizontal=0;startSize=0;swimlaneHead=0;swimlaneBody=0;strokeColor=inherit;top=0;left=0;bottom=0;right=0;collapsible=0;dropTarget=0;fillColor=none;points=[[0,0.5],[1,0.5]];portConstraint=eastwest;fontSize=16;" vertex="1" parent="OnewE4_LEBXvHN6tmqfH-4">
          <mxGeometry y="389" width="690" height="68" as="geometry" />
        </mxCell>
        <mxCell id="OnewE4_LEBXvHN6tmqfH-55" value="6." style="shape=partialRectangle;html=1;whiteSpace=wrap;connectable=0;strokeColor=inherit;overflow=hidden;fillColor=none;top=0;left=0;bottom=0;right=0;pointerEvents=1;fontSize=16;" vertex="1" parent="OnewE4_LEBXvHN6tmqfH-54">
          <mxGeometry width="88" height="68" as="geometry">
            <mxRectangle width="88" height="68" as="alternateBounds" />
          </mxGeometry>
        </mxCell>
        <mxCell id="OnewE4_LEBXvHN6tmqfH-56" value="Бэк формирует json со списком фотографов и отправляет в приложение" style="shape=partialRectangle;html=1;whiteSpace=wrap;connectable=0;strokeColor=inherit;overflow=hidden;fillColor=none;top=0;left=0;bottom=0;right=0;pointerEvents=1;fontSize=16;align=left;spacingLeft=9;" vertex="1" parent="OnewE4_LEBXvHN6tmqfH-54">
          <mxGeometry x="88" width="602" height="68" as="geometry">
            <mxRectangle width="602" height="68" as="alternateBounds" />
          </mxGeometry>
        </mxCell>
        <mxCell id="OnewE4_LEBXvHN6tmqfH-51" style="shape=tableRow;horizontal=0;startSize=0;swimlaneHead=0;swimlaneBody=0;strokeColor=inherit;top=0;left=0;bottom=0;right=0;collapsible=0;dropTarget=0;fillColor=none;points=[[0,0.5],[1,0.5]];portConstraint=eastwest;fontSize=16;" vertex="1" parent="OnewE4_LEBXvHN6tmqfH-4">
          <mxGeometry y="457" width="690" height="68" as="geometry" />
        </mxCell>
        <mxCell id="OnewE4_LEBXvHN6tmqfH-52" value="7." style="shape=partialRectangle;html=1;whiteSpace=wrap;connectable=0;strokeColor=inherit;overflow=hidden;fillColor=none;top=0;left=0;bottom=0;right=0;pointerEvents=1;fontSize=16;" vertex="1" parent="OnewE4_LEBXvHN6tmqfH-51">
          <mxGeometry width="88" height="68" as="geometry">
            <mxRectangle width="88" height="68" as="alternateBounds" />
          </mxGeometry>
        </mxCell>
        <mxCell id="OnewE4_LEBXvHN6tmqfH-53" value="Приложение отображает список отфильтрованных фотографов" style="shape=partialRectangle;html=1;whiteSpace=wrap;connectable=0;strokeColor=inherit;overflow=hidden;fillColor=none;top=0;left=0;bottom=0;right=0;pointerEvents=1;fontSize=16;align=left;spacingLeft=9;" vertex="1" parent="OnewE4_LEBXvHN6tmqfH-51">
          <mxGeometry x="88" width="602" height="68" as="geometry">
            <mxRectangle width="602" height="68" as="alternateBounds" />
          </mxGeometry>
        </mxCell>
        <mxCell id="OnewE4_LEBXvHN6tmqfH-58" value="" style="shape=image;verticalLabelPosition=bottom;labelBackgroundColor=default;verticalAlign=top;aspect=fixed;imageAspect=0;image=data:image/png,iVBORw0KGgoAAAANSUhEUgAAAusAAAHDCAIAAAASjMOsAAAAKnRFWHRjb3B5bGVmdABHZW5lcmF0ZWQgYnkgaHR0cHM6Ly9wbGFudHVtbC5jb212zsofAAACD2lUWHRwbGFudHVtbAABAAAAeJyNUs1u00AQvu9TjHpqD66aylSVD1EJpkghhoo2PfWyjpew1Fmb9dpSb9AfEGolXsUUUqKGuq+w+0aM7Zg4EgcuO6PZ+X52ZvcSRaVKJyFJTrkAGSWMEJqqSKQTn0nMRyqSMEwwj7GTj3hMhQIv8p/G8UrJp6NTJgISUEV9mjBwexWcZ1SxmqE8rG6NdUA/6Fzf6Zn+jXFqzkHfY6nQj/reXMAa9oRnay2KhWYdrO5Cz4F3SsWgfyHJo/moC/OphWlMLWILpW8RMEf1nzo3n/XMfFvh0PkS4/YcSD6EVvu+cg/otdBzc2G+6CkWZnoKJR+mD+baXLWM4DDcnrWqXyDhLdLl5mszgcKcm0vkmZsbzFCpslnRIfeJWLKXUqheHnnJgVOcVhDMSMDawn9f0pr9v9TfJ5FAjfJx6ANbsIhtK3TNQJs1WN1yqU6NKPT3ysDdfzzHXJ0IwMsa96Myclk2tNUWK2+Xqo+0hxbKT0sOQvx6Q28AGZMJR/udze2tbXtzd31fcngVZdB5Ap0tx7Ydewe8wyMorzfI+ouDASRRKkcMAp4oyf1UIX6D9GlG4U0qFJ8wB17HTPTdl00BnouMy0hMmFCkf+wtG3Zsq8cVHDKJTuDYIy57S9NQIWIUBVyMHRge7Vu7ZEDFOKVj5GaCPIuQV545INIwJH8AekOnWulEJqwAAIAASURBVHhe7J0JfExX//+J7NaICJKKtZIfIraIrUiLtnatKtqiKIrWU8Wjtvxja2m1tZSnhBYlCRFLUbUkaQgSJNYsEkmQIEFESCKSzP9rzpPzXHdmbia5k0ky83m/ziuvc79nvfc735zPnLlzp4oCAAAAAKCyUUVsAAAAAACo8EDBAAAAAKDyAQUDAAAAgMoHFAwAAAAAKh9QMAAAAACofMhSMIUv8u+fPJ+wef9Vr030l/JkEVcCAAAAANA1pVQweY+zLs/fsNfG07eKuzDttelzef46KhU3AAAAAADQHaVRMI/ORx9wHMgky5E2w8InfnVlsTf9pTwzHnB859H56+JmAAAAAAA6osQKhuTLbus3SKYc7z76QXhgYeFFYSIL2al0t3VPiBgAAAAAlBElUzB5j7PY7svZT74oyDsvki8skZ1Kqc5+h7fvJiRlZmbm5uaKOwIAAAAAkEHJFMzlb35huy/5zyNUtQtPVMp2Yk5+tjguLi4lJQU6BgAAAAA6pAQKpvBF/t66b5EuUf3wSDVRnZefJdXuHXIyKDIyMjExMT09HSIGAAAAADqhBAomLfjCy1t32w5T1Stq05G2Q19+O2npzydOnGAiJjMzU9wpAAAAAEDJKYGCSfj15bZKxGezVMWK2hTx2VdU/49P5wYEBDARk5KSgm0YAAAAAMinBArm+vLfSJFcmrdIVayoTVST6u94/4vt27cHBgaGhITExcVhGwYAAAAA8imBginag5mtKlbUJr4Hs3Xr1p07dx4+fDgyMjI9PV3cLwAAAABACSmBgim6D+Z9VbGiNrH7YHYtXEkKhm3DhIWFpaSkiPsFAAAAACghJVAwpfgukl/NN3z/2EkKZtu2bQEBASEhIYmJieJ+AQAAAABKSAkUjOJ/z4P5RMvnwfgNm+Hn5/fbb7/9/vvv/v7+J06ciIuLE3cKAAAAAFBCSqZg+DN5T40u/pm8frZv+m3dBgUDAAAAAJ1TMgWjEPwu0uHOH6af2yuSL/x3kXwtuvutWEPyxdfXF58iAQAAAEC3lFjBKJQiZm+Dt1/KlCru+1oOOtFv/IleHwW/M+FPlyHM+HL3RSlfiJ07X94Hgzt5AQAAAKBDSqNgiLsJSccmevnVeLkZ80qq3tNv+BfswyO2AUPaBd+mBgAAAIBuKaWCyczMjIuLCzkZFOD9064OH5J2ob+7Fqz0/WMn1y6kWph8wRPtAAAAAKBbSqlgcnNzU1JSIiMjT5w4sXvkyyfX7Rg6bauS35SwPJMv+FUBAAAAwODJTXuUdeP2/aALLFGeLOJKuqOUCkah3IZJTEwkXXJw7Dcv92De+2LTpk2//vrrf5RQhg537twZGBiIX3YEAAAADIz87Nz0U1ExP/x26r1/HWn9nr9Fd/GNJcpEdio99d5Mqpl+KpJaiTsqLaVXMLm5uenp6aRLjk9ZQlMMHDNn+/btv//++xYllKHDw4cPh4SEMPlClbEBAwAAAFRqCp7n3d578tSwmVyyHGo5MHToZ1GzF8T89P3NrevvnfRlifJkufjlv0MHT6Q6/xU05t2C+02+6bM3/1mOuOsSUnoFo1CKmMzMzDOzVtOcSMccPHgwMDBwtxLK0CFpl7i4uJSUFKoG+QIAAABUXp4/enJp7k9763rSor/foV/krPl39v+W+yBU9clwahPVpPrUitpSDwG1el2a+yP1KR5Ga2QpGEbUgg00lfA5P0dERJw+fTpECWXoMD09HdoFAAAAqOzc8j9G2sWvWpczo6ffO7GrsOCCqkbRNhVcoB6oH+otwKbPNZ+A0kkFKQVzP+jCVa9NxaaTvaeQgqG//3zxnSipVqY+xcMAAAAAoAJzae4aWuiPeYx8fPWQWI7ISNQb9Uk9/zPFuxQf10gpGBIcwptxdJKoT/EwAAAAAKioXFu2hZbviMmzCl7I2HfRkKhP6pn6P/nF8pLeMiulYLAHAwAAABgzGZdu+Jt1DRv5uar40GGi/v1Mu57auS8uLk57ESOlYIQ8efLkwYMHqampycnJ8a9CSoUUDP09p4KoJoc6oa6oQ+pWy4kCAAAAQM+cGbMwoE5v7W/XLV2i/mmUwDcnhYWFaS9ioGAAAAAAoIaC53l7qr8RMeVrVc2h80Sj+Fv1OLD35U8oailioGAAAAAAoIZH4ddofb/xy0+qgkPniUahsXYt/+nw4cPh4eHaPAUXCgYAAAAAaohb40/r+/WV36oKDp0nGoXG+uOT2f7+/idOnLh69WqxPwUNBQMAAAAANST98Ret71H/XqQqOHSeaBQaa9vkb3bs2HHgwIHw8PCUlBTxhF4FCgYAAAAAarh37NzL9X3QJFXBofNEo9BYv3+9ZNu2bQEBASEhIYmJieIJvYq2CkaCq8rHxtBfsU6JjxdXBQAAAEAl4X7QBVrf99R4Qw/fRaJRXu7B/Hv577//zj5IiouLE0/oVaBgAAAAAKAGpmD8TT308DwYGgUKBgAAAAA6gCmYcxO+8i37Z/KyUaBgAAAAACAXpmDunfS9NHehb1n+LhL1T6NAwQAAAABAB3AFQ2oj2W/T3rp9dP7b1NQn9UxGKBgAAAAA6AahgqGU+/DUpbkLA2q9vOV2v0O/yFnz7+z/TfubfKkm1adW1JZ6IO1CvVGfrBQKBgAAAAC6QaRgWHrx9GzC5nXB/cb5m3ejUkqHWg4MHTzx4pf/jvnp+5tb11N9lihPlqjZC0KHfkZ1WGV/i+6nhn12K2BLfm64sFsoGAAAAADoBrUK5n9S5tm5tFD/6O9Xnnpv8pHWQ0maMI0iSmSnUqpDNak+tVLtCgoGAAAAADpDWsGoppz7IU/ijvI9GMqTRbWa2gQFAwAAAADdUFIFIydBwQAAAABANxi4gsnPzj3s/AGNSn/jrl6HggEAAAAMA0NWMIUFBaeGz+V36xztP/1GXBwUDAAAAGAAGLKCifzXj74vv9L91p3AYPpL+aDxi6FgQMUhL+MJRaDhpbzHWeJTNWIM1cvCBI+DcuG+oSqYuLX+vi+/JdUjLfgCHaYcO+tn/vKbVKEL1kYrIQWTm5srbgaAHmHhZ3iJBR1gGKqXhQkeB+WCYSqYlAP/+FXz8K3aJWnHETokpfLkyZNzP/xGFl+TLmFrtzMFQ0aIGFCOsPCL+fH7+0G+hpFiVn+P9UyE4XlZmOBxUI4YoIJ5dD56T/VeNNJV782KIvny4MEDkizBX3xLdn+rnhf3HKFDMkLEgHKEhR8tA6rRUkkTC3KsZ0IMz8vCBI+DcsTQFMyz5Lv7G75Lw5wb580sTL6kpqaSZImOjv5ryL+oNMCu3/V/zpKRiZhX+wBATxje2saC/K/Vmyi8w8LCIiMjKchTUlIyMzPFJ280GJ6XhYl5PGj9Nvga6B+DUjB5j7OOtBn1MpzenFaQ90Kh3IBh8iU5OZkpmOtXrv7pMY7q7H/9vZtXo5mIwTYMKBcMb21jQe7v9QNF+IEDByjIw8PDKc7T09PFJ280GJ6XhYl5fN/ytfA10D+Go2BIspBwoQFIxLAb49nnR1y+cGIjL5N8oZqHu32alHCTKuCzJFAuGN7axoJ8+7yXQb5z587AwECKc3p3Tm/NxSdvNBiel4WJeXzXwpXwNdA/hqNgzo3zfrmz0vDdZ8l3FYLbX7h8oUxqEYkRl/bW70/1j783m+y4IQaUC4a3thUF+bLflJCIOXDgQFhYWGJiovjkjQbD87IwcY/D10D/GIiCueq9mbreU73Xo/PRCoF8Ybe/cPnClAorivsrdLf1G9Tqn5kreRFEDNAnhre2sSD3W/y9n58fKRjtQ92AMTwvCxNXMPA10D+GoGCSdhzxrdrFr5pHyoF/FK/KF7YBI5QvuUpYhau/72dfur7w8w6IGKB/DG9tg4JRxfC8LExQMKAcqfQKJi34gr9FD+o3bq2/Qgv5wlrxaueXvdy88TPvfsXvsGo1AMoUibXt5s0/w8NJWB8TGtPTg8gYG7tPtb4oLV8+Y9eub1XtPBUUXKCuEhMPqRbJSVAwqkh4uVALT2mfdNiValq/ft6mTYtU7VAwoBxJD42il9/dYztVX5k6TzTKy5f6Nyu0f6kXo2AyoxPZzwVE/utHhdbyhcErn/psKfWwp45nzMkwTZUBKAsk1raxYwdVqVJl4MCeQuOECUPJ2L9/V9X6ovTmm+5z545TtfN09Ogv1JWzcxPVIjkJCkYVCS8XauEp7ZMOu1JNY8a8Sy8/VTsUDChHsuJv08vv5m+/qL4ydZ5oFBrr95U/a/9Sl1IwOfcfHWw6lHo8NXxuYUGBQvDoF373rrQiYSImPS3t+LtfUj97HQfEX7zCm4hrA6BrJNY2UjD/93/NzM3N7t07zixPn4bVrFm9TZsWOlEwH37Yv3fvTtWqmZw6tVW1tNQJCkYVCS8XauEp7ZMOu1JNUDCgAlLwPG9P9V4RU2arvjJ1nsInf+1n2f23zT7av9SlFMzpD76hyDnWZXx+9kt1kvvqo1/YBoyEfGEwEZN2J/VQ+zHU29F3v+DbNhKtANAJEmsbKRhSKrQmff/9V8zy22/e7ds700IiVDA+Pl4kRNq1e/3jjwfExe3ndmo4Z87YH3/8ukuXNt26taNqws4fPQqxtDQ/fHgddTVx4jBuX7Jk2o4dy9S2kigSJigYVSS8XCjpqX/+2UIvA3f3l/ZZsz4mr/GiQ4fWDhr0hqtrS0/PzuvXz+NdcQVDwnf8+MG+vt+xw4MHfx4woKebW6sRI/qeP/+/LXdy6x9/LN+4cUHXrq5vvNFBOHpBwYVVq/7VuXPrHj3c6LUHBQMqJmfGLAqo0yf3Qajqi1OHifrfXauXb4+xJfq3JqVgcu4/IhFDfxXqHv3ChIi0fGGwtkmXo48NnBl97mKJ2gIgB4m1jSmYbduWtm3bgllIqfz002yhgqFDKyuL1au/Ji0yeHCvevXqPHgQxIpoMWvQwPb999+iohUrvjAzMyX9wTtft+7fDRvWe/HiPK1eNWtWf/o0rNhWEkXCBAWjioSXpS/sDz/MIg1x9OgvgYGru3d369mzPbP/+utCqvbNNxP+/nsDeZCrFq5goqP3Nm3q8MUXo/LzzxcqZW6NGtbU+bFjGxcvnkyvmagoP97ktdfsP/yw/759Py5bNt3ExITqsKJvv/2SXhskj0j90GuPJgkFAyogGZdu+Jt1Cxs5Q/XFqcP0z3tTfat5+K1aX6J/a1IKRgj7/EgkX7TfRynd/g0AMpFY25iCefbsTK1a1S9c2JmQcNDCwjwt7SRXMHl5ETY2tVaunMnq06GTU8OFCyexQ1qZmjVzYAsYpdmzxwpveenU6f++/voTymRnn61duwa9wy62lUSRMEHBqCLhZe0vLLm+SpUq16/vff48vG7d2l5eU1TrMAXzzz9bSMuS9GFGemHY2dn8/PMcXm3cuMGjRr3Nm3Ts6FJQcIEd0ktr2rQPKEOj0Ktr7dp/M/vjx6H0OoGCARWTa8u20ovw9PivCl7895Wsw0R9npnwFfXv++FXvr6+W7du3bZtW0BAQEhISLGPPiqxgmGU4l4W4T00DCgYUNZIrG1MwRQq796lN9OLFn02bFifQuXtCMweF7eflrTLl/15k08/HcLv/KWVSfjxEL2Pr1q1KukhylMTanjp0n8bTpo0vFevjsW2kigSJigYVSS8LH1h798/MW/ep336dG7btkXr1s3JfujQWnIcuY9vooi6Im1as2Z1/uFRYZG7p0x5f/HiyfQqIo3br19XV9eWvMmXX47mladOHTF8uCdlYmP3Uavo6L28iFpBwYAKy6W56+h1eNDt/Ywruvx+5eOrh/5s//7L/2lDppN82bFjBykY+nvgwIHw8PBiHz9dMgWTWkQpxAf7LElmJwCUCIm1jSsY9pbayanhvn0/FgoUTGSkL60x8fEHeZPp00fSasfytDKR7uFFp05tpcrp6S8/Y5o5c3S1aibdu7ux1LJlY1oab9w4IN1KokiYoGBUkfCy9IXt3Ln1u+/2+Ouv9aRarl0LMDMz3bv3h3PntlMF4T1Pwq569HCrXt3qp5/+d2Pj2bPbqP7s2WOXL5/Bk9pbZyhNm/bBkCG9C4teXcnJR3gRCWgoGFCROf3DVr+avXxNuhwb/Nnd47sKi3YWS5MKLlAPJ4ZOpt58a7zh968lTL4I/6ddvXq12J8AK5mC4ZROeXARI7MfALREYm3jCoYSiYz69evm5UUUChRMZmYoKY/AwNW8yRtvdODv5mllosSLNm5cULt2jULlpwN2djaffjpkyxYvnpo0abRgwUSJVtJFwgQFo4qElyUubGrqMdIQMTGBzE4ZOiQF8/BhsImJiXCXRdgVyZGQEJ9ataqvWPEFMz54EET1d+9epVqfN+GHXME8fvzy1XX48Dpe9PrrTlAwoCKTmJh49kRI4IivfK1ePiJut92boZNn3wrcov1NvlTzVuDW01Pn7Kn/5suPjUi7DJnut2Ubly9bt27duXPn4cOHw8PDabhif4a9BApGSKllBxMxOukKgGKRWNuECoZkByWWF97JO2rU2+3avc6eerd9+1JacugNNyuilalaNRNa8ChP76SbN3f86quPKL9nz/e0nt2+/ZdwrEWLPnvtNfv8/POaWkl0KEpQMKpIeFniwj59GmZmZvrLL98UKvVEv35dyb+s2ujR71C1K1d2Fypvc/nnny28KyZH6GVgY1Nr8eLJzP7xxwOaNXPgHzxduxbw998bRE1Y4gqG0ogRfd3d25BgKlTeM04vGygYUJFJT0+n115YWNiB3QG7Ppu/s817vqZdXwqRKu4Br71zxHNs6MRZkSu+jfnPWnrRshT769qob789/fncI2+N39v4HVbZ16ybn/sY31lL/f7YSdqFJMv27dtJu/wm+KG3OOVvsBcrD7RVMLmvIi4uCaKuZPYGgAQSa5tQwQiTUMHcu3e8V6+OtLTUqVPT2tpy9eqveTVamWi96dDBuV69OlShT5/OtAqSfeDAnp6e//2kiSf2/v7IkfWaWkl0KEpQMKpIeFn6wq5ZM9fc3KxBA9saNay///6r6tWtmILJzAz94IO+JGioCVUQ3vzE5UhkpK+dnc3s2WMpn5V1evz4waam1erWrU2d0N8NG+arNil8VcHcuXPUza0VqSgSQ1QNnyKBCg4t1lzEHD58mMTHts1bfv9m+fYPZ/7R6cNdDm+TNPmvRhElsju+49tljO/Hs/28V/tu20FKZceOHSRc2L4Lu3uXOqRutZcvCu0VDACVEem1Tct069aRS5f8+TeiRSk2dp/wXhnpxNcz1VYSRcIEBaOKll5We2EzMv65fNlfrVhMTw+KivIT/e6ERCLdQ6+TxMRDL17893tPxaaCggvR0XsTEsSzEiYoGFBx4CImPDz86NGjAQEBbAeFXpxMiPy25pffv/t527+Xs0T539du+O1VWE0GNaTm1Al1RR1St9rLF4VaBRMdHZ2UlCS0PHz4MCIiorCwUGgEoOKj5dqmtyR6R65lkTBBwahS0bys2wQFAyoUpC0uXrx44MABkh30L2jHjh179+6lVybfVtm2bdsvv/zyo5KffvqJ8uw/FYcqUDWqTE2oYWBg4OHDh0NCQiIjIxMTE7WXLwq1CqZLly4TJkwQWmiwKlWq5OTkCI0AVHwq2to2YkTfJUumqdqli4QJCkaViuZl3SYoGFDR+Oijj0xNTW2VWFtbN2jQ4IMPPqD/SCRrSI4EBASMHj26TZs2nZRQxt3d3cvLy78IqkDVqDIJF3o9h4WFkXahV3VKSkpmZqb28kUBBQMMG8Nb26BgVDE8LwsTFAyoaIwdO7ZXr14kNUhwkOzYtWuXi4tL06ZNjx8/TnIkJCRk+PDhPXr0OKHkr7/+In1jb29/5MgRZqEKVC08PJwLl/T09JJqF0aJFcyVK1dIXrVv397Dw2P8+PF3797l1f78888BAwa4ubmNGDHiwoULzLh06dI//vhj/fr13bp1+/TTT3llAPSA4a1tUDCqGJ6XhQkKBlQ0mIIRWpKTk62trb/88kuSI4mJie+//z6t+HFFkAYwMzM7duwYO6QKclSLkJIpGBqsfv36U6dOPXny5KFDhxYuXMhjacuWLTVq1Pj2229JhS1evNjKyurSpUtkf/PNNx0cHIYMGUL/cKmJsFsAyhrDW9ugYFQxPC8LExQMqGioKhhi5MiRbm5uLC+scO/evdGjRzdt2jQvL49X1hUlUzA3btygzJ07d4SlxIsXL+zs7NasWcMt48aNGzVqlEKpYP7v//4PdwGDcsHw1jYoGFUMz8vCBAUDKhpqFcy8efNsbW1ZnipUEdCwYcPz58+/Wl03lEzBkFJp06ZNkyZNZs+efezYMS6prly5UuXlL4NMWbx48aJFixYuXNivXz9XV1eFUsFMnTpV2BsAesPw1jYoGFUMz8vCBAUDKhpqFQypAnt7e5anCiQkEpVERkaSBrCzs0tOTn61hQ5Qo2DeeuutkSNHCi3r1683NzcvKCigfFZW1saNG4cOHVqrVq1mzZolJCSQ8dy5c1Ve/jLI7BUCfvnlF4VSwcydO1fYGwB6w/DWNigYVQzPy8IEBQMqGmoVTP/+/bt168byogqFhYW2traLFi3iFl2hRsFMnjy5devWQsu0adOcnZ2FFoVSypCRVItC+cAYExOTPXv2iOoooGBAucLWtpjV398resp1ZU90LlAwIgzPy8LEPA4FAyoOqgrm/Pnz1apV+/HHH9VWKCgoqFu37pw5c7hFV6hRMBEREVWrVv3uu+9yc3Np4L/++qtGjRqrV6+moqSkJDpkmzGkWpo3b/7tt9+yVh9//HGzZs3Y3bvE9evXjx07poCCAeUKW9sML0HBCDFULwsTFAyoOJBAcXd3v3HjRmxs7KlTp7y9vWvVqtW7d2/+xSJegSBx89lnn5mYmISGhr7ajQ5Qo2CIDRs22NjY0JAWFhZmZmZTp05lt7xcvnzZ3t7e3Nz8tddeo6KhQ4c+e/aMNXn69On48eNNTU1JalWvXp3+bty4UQEFA8qVvMdZacEXWPpr9SZ/rx+2z1tOi8FLBVCp09ZtUDAcg/WyIP2+4Vf4GlQQxhbdqFutWrV69er16dOHNMOLFy9UKxAkbkjN7N27V9CBzlCvYBTKrxdFR0eTZCFpIiq6ffs22R8+fCiyK5Q/YU1FSUlJ+fn54jIAypWXP6la9CRsg4H/lGtiYqL4hI0Sg/QyA74GQIRGBQOAgREZGUnvXwMDA2kl+N0goBOh06GTolNLSUkRn7BRYnheZsDXAKgCBQOMhTjl76nSGkBvZP0NAjoROh3+a67iEzZKDM/LDPgaAFV0o2Cuem0SmwCoYNA7V/rvT29hw8LCTpQZv035RmwqM0S/iCY+YaNEP14+oV9Hn4CvQWVDP6pANwrGt4q72ARABYP+79ObV/azHXFlxs9mHcSmMkOHPy9iMOjHy3H6dXQcfA0qG/pRBVAwAOgSxIKRAEcDIIF+AgQKBgBdglgwEuBoACTQT4BAwQCgSxALRgIcDYAE+gkQ3SgY/dyzA0DFB7FgJMDRAEignwDRjYIBAAAAANAnUDAAAAAAqHxAwQAAAACg8gEFAwAAAIDKRykVDPvBd4kkbgCAcaCf+9dAuQNHAyCBfgKk9ApGbBIgXQqAAYMXv5EARwMggX4CBAoGAF2CF7+RAEcDIIF+AqSsFMyyZct8fHxCQ0PFZQAYNNKhAQwGOBoACfQTIGWlYBYvXvzzzz8fO3ZMXAaAQSMdGsBggKMBkEA/AQIFA4Au0c/9a6DcgaMBkEA/AaJvBZOdnX3q1KmffvppiRJRKagIbNu2LTo6+tq1azt27BDaL126RC5LTEwUGkvK0KFDfX19xVYBmkYHAAAAhOhbwcydO7eKAFEpqAj06tVr9+7du3btevPNN4X2kSNHmpqafv3110JjSenSpcumTVLaXNPoAAAAgJBSaohSK5h9+/aR3dvbW1rB3L9//9mzZ/zw7t27OTk5/DApKSk4OJjephcUFNBhfn7+7du3nz9/zkrT09OzsrJYPjMz8969eyxPfWZnZ7N8bm4uNaG/vCg1NZXlCeqWSh89esQORcNxaNwLFy6cOXOGD0dNbquQl5cnbKV4dSZPnz69c+cOt2s6azq7yMjIqKgoYW9UXzQWr692iIyMjIcPH/LmREpKivDCMtRqCDo1CwuLFStW2Nvbv3jxghnZhB88eBAUFERXiVeWKOIKRtNk1I4OAAAAiNCoIaQptYJhBAYGSiuYdu3abd++nR82b96cmrD8uHHjmjZt6unp2aRJk06dOtEqWFhYOH78+Lfffput7v379//xxx8pk5iY+Nprr9FayBpSnzw/adIkGp1Pj4qqVq0aGxvLDvfs2UOlY8eOVagbjtWJiYlp2bKls7Nzjx497Ozsjhw5Qsb58+e3VmJlZeXo6MjyVJM14fCZ0JrdokWLZcuWcbvas46IiGjcuDGVUm9kvHz5Mq/PRyHMzc35VVI7BHVOzelysTqXLl0yMzMjqcEOOWo1xLp169q3b0/ahRTM/v37mZFGGTNmDF0Zugh0yitXruT1NRVxBaNpMmpHBwAAAERo1BDSlKOCuX37NssUFBQMHz583rx5CuV2COVHjhxJRqZg7t27RwrjP//5D++EL+rh4eG0DNvY2AgVTOfOnWfMmMEOaRF1d3dnCkbtcLTuenh4LFy4kBXRik4dCrdPaJ0Wzl8Em0lqaurrr7/u7e0ttKueNZ2ai4vLnDlzmHHKlCkdOnRgC7/a+iyvdojc3Nx69erxs/78888/+OADlheSnZ1Ng5JYEW7PdOzYkenCf/3rX0OHDmVGGoUGZZtVISEhJEESEhKki7iC0TQZtaNXIvRz/xood+BoACTQT4Bo1BDS6EHB0LobUYSjoyNfm2nxPn78OHW+ZMmSwYMHk15hdloRW7VqNXnyZLLQ6NQDVyQMtqiTEOnUqZOPj4+Dg4NQwaxfv54sWVlZly9fpsNZs2YxBaN2uJs3b9LkaWGOLKJ27dpnz57lYxWrYH766SdnZ+eJEyeK7KpnHRMTQ2OlpaWxOqQD6PDWrVusvoSCUTvE7NmzR4wYQRnSWzTnEydOCEs1QdfE1NSU7dZERUXxnRsaZenSpbwaqZx169axvKYi4X0wpZtMBUc6NIDBAEcDIIF+AkSjhpBGenI6UTCurq79i7C2tuZr86BBg9q3b+/l5bVmzZrRo0fTisjsoaGhtra27u7u5kqolZOT05MnT4R9koLZsGFD165dSZeIFAxJgc8//5x0zKRJk2iJ5QpG7XCkXUxMTPj0GGFhYXysYhUMzXDAgAE0B363DbOrnnVwcDCpB14nJyeHrtu5c+dYfQkFo3YIEkAWFhakP7Zs2dKyZUv+IY40M2fObNSo0eIiqlev/sMPPyiUo2zevJlXGzhw4IIFC1heU5FQwZRuMhUc6dAABgMcDYAE+gkQjRpCGunJ6UTBqF2bac0j6cB1ycKFC5mkyM7OpiWQmtBq3bRp0w8//JCMo0aNmjx5Mu+E+ly7dq2dnV1kZCQdqiqY69evUyeOjo7UG1MwmoZLSkqiyfM7cFUpVsFMnz6dMmPGjGGbENyuetbx8fE0VkpKCjNGR0fzQ7X1WV7TEMTbb7/93XffeXh4rFq1SmjXRF5eHl006uTLIkgYtWnTRqEchX+URrRt23bjxo0sr6lI9F2kkk6m4iMdGsBggKMBkEA/AaJRQ0gjPTkJBRMQEDBkyBB3d3emYIYoUZUCmtbm5ORkanXlyhXK37hxw97enkkKWlYHDx7MKvcvupP3wYMHDRo0EMqUhg0bsnVdoU7BKJS34v7666+UYQpG03CEp6cnLepPnz5VKD9pOnnyZH5+PitSaKFg2B05jx8/bty48e+//87tqmdNnXfs2JGkGGVoiJEjR/bs2VOiPi9SO4RCeddOvXr1LCws0tPTuVECclnNmjWFd6Xcu3evWrVq4eHhNApdRuY+GtrS0pIrLU1FIgVT0slUfKRDAxgMcDQAEugnQPStYFasWMG0i5Do6GhRNYm1mbSFlZWVi4tLixYtZs6cSStiaGgorYJ3795lFbiCIfbu3cs/S6I+69evTys6K1KrYDj8UyTV4ViF1NTUgQMH1qhRo1WrVnXq1HFzcxN+z1lLBUMEBQVRc/aYOE1nff36dVdXV5q8ra0tqZn4+HhWQVN9VqR2CIXyrmdHR8dRo0axw2Kh0/zkk09Exn79+k2ZMoVGmTZtGl1hujjW1tY+Pj68gqYikYIp6WQqPvq5fw2UO3A0ABLoJ0D0rWB0QlpaWmxsrHDPo0yRGC4rK4vkl/BGk7KDNBNXaXKgOdeqVSskJERcUHKYhMrNzSWNlZmZqWWREB1ORrdkp6Yn/Br4/KHGmQMAAChfKqWCAaWGPDJmzBi+kyQT1b0rjkQRR7eT0TlpwRf21n3rn4FfpYdGicsAAACUN1AwxsWwYcMmTJgg87eNODNmzAgKChJblUgUcXQ7mbKARIy/eXffqu77G70bvXI7tmQAAKDiAAUDgBQkYgJq9iYR42fe3d+iB7ZkAACgggAFA0AxcBFDL2xKu616SmzJ6Of+NVDuwNEASKCfACkrBYOEZPBpTy3P1CNhqnZREocHMAjgWQAk0E+AlJWCwR4MMBjSgi/ssX6DyRF/024BtT0PNhkS++MutgdTbCyITcAggGcBkEA/AQIFA4AUXL6QcNlt9cbpD74R3QdTbCyITcAggGcBkEA/AQIFA4BGXn4Xyezld5GEmy4iio2FZcuW+fj4hIaGistAZUba7wAYOfoJECgYANTDngejuukiArFgnOjnRkUAKin6CRAoGADUoP0zeRELAABQLkDBACALxAIAAJQLUDAAyAKxAAAA5QIUDACyQCwAAEC5AAUDgCwQC8aJfm5UBKCSop8AgYIBQBaIBeNE2u8AGDn6CRAoGABkgVgwTqT9DoCRo58AgYIBQBaIBeNE2u8AGDn6CRAoGABkgVgwTqT9DoCRo58AgYIBQBaljoXz58//8MMP06ZNGz9+/P/7f/8vMTFRVIHxzjvvBAYGiq0KRWpqalZWlqZDUNbo50ZFACop+gkQKBgAZFHqWKhevXoVAWZmZsHBwaI6RLt27bZv3y62KhQdO3bcunWrpkMAADB4oGAAkEWpY+Htt98+cOBAenp6RESEnZ0diZj+/fuL6iiKFMzjx49DQkKSk5OZ8eHDh66urqtXr759+3ZaWprokCrcv3//2bNnDx48CAoKSkpKeqXHIjIyMs6ePUuy6e7du0I71SfjtWvXCgoKuJE6vP0qOTk5vEjTWM+fP4+MjIyKisrLyxPaqee4uDgahfoR2gEAQHugYACQhU5iYcSIEaRg3NzcxAVKBTNp0qTmzZt36dLF0tJy3bp1ZPzmm2+sra2bNGnSsWPHcePGiQ5ZqzFjxpClR48eVlZWK1euFPerUDRu3Lhz584eHh7ULa9AzZs2berp6UltO3XqRNqI2alDR0fH1kWYm5vzz7Y0jUXKjIagUqpP8798+TKzx8bG0pk6OTn16dOnQYMG+/btY3YAACgRUDAAyEJ+LNy/f9/e3p4UjLe3t7hMqQ9ovX/y5Anl9+zZU7NmTbY1Iv0pErUi0fDo0SPKh4SEmJmZJSQk8FJGfn4+ywQEBDRq1Ijl+aYIjTJ8+PB58+axQ9GHWdS5UMGojkWdu7i4zJkzh9WZMmVKhw4dCpWQbJowYQI7C6r2+PHjol4BAKAEQMEAIAuZsZCamkoCheTLoEGDXrx4IS5W6gNqzvIZGRlU886dOwoVyaKqYJYuXSosZZs3IiIiIg4ePDhgwIAZM2YwCymM48eP04hLliwZPHgw/2BLWsGojhUTE0NTZR9pEaRp6PDWrVvx8fGUobPm9Ssp+rlREYBKin4CBAoGAFnIiYXr1687OTnRij5q1CjRnSIcoXTIycmhyjdu3FCoSBZVBbN582Z+OHDgwAULFvBDzrx58/r169esWbNdu3YxCwmp9u3be3l5rVmzZvTo0V26dGF2aQWjOlZwcLCpqSk3spmfO3cuJCREaK+8SPsdACNHPwECBQOALEodC//884+NjQ2t619//XVhYaGolKNJwXTu3HnLli28muiQWi1cuJAftm3bduPGjfxQxNWrV83MzDIyMhISEkxMTNgnVgT1oKWCUR2L7bWkpKQwY3R0NDtMSkqijKabiysR0n4HwMjRT4BAwQAgi1LHQs2aNWktt7Cw6FjEm2++Kaqj0KxghgwZ8tVXX/GvC4kOqZWDgwP7vImkhqWlJRcTDOqKPz/m6NGjpGCys7OTk5Op/ytXrpCRRrG3t9dSwaiORZqMzmjy5MmUyc/PHzlyZM+ePVn93r17Dx8+nIajPKmlSvqJkrTfATBy9BMgUDAAyKLUsUDapcqr2NraiuooNCuY06dPOzs7m5ubd+/eXfWQWk2bNs3JyalFixbW1tY+Pj6CLl9y8+bNunXrtmnThlrRuPwTqFmzZllZWbm4uFDDmTNnaqlg1I51/fp1V1fX+vXrU/+kZuLj45n91q1bffr0qVGjxuuvv25jY/P3338ze+VC2u8AGDn6CRAoGABkUTFjgQmO3NxckhGZmZniYiV5eXlxcXEJCQmiW3DS0tJiY2P5N5WKRXqs1NRU0fNmGBkZGTExMc+ePRMX6J3s1PSEXwOfPxTPXBr93KgIQCVFPwECBQOALCpmLIi2TMoUfY5VRqQFX9hb961T7/07PTRKXAYAqKhAwQAgi4oZCzNmzAgKChJbywZ9jlV2kIjxN+/uW9X9QOPBsat3lnRLBgCgf6BgAJAFYsFgIBETUKMXuWxPjd7+lj2xJQNABQcKBgBZIBYMCS5iKPlV67qnVh9syQBQYYGCAUAWxcYCkgEkkjKpR8JU7aIkdj8Axgru5AWgEoBYMCRe7sHU6uNn0oUpEn/LHvsavhv97Ta2B1Osr8UmAIwV/YQDFAwAskAsGAxcvviZdvM37x7y7r9E98EU62uxCQBjRT/hAAUDgCwQC4YByZfdFj18q7oLN11EFOvrZcuW+fj4hIaGissAMDKkg0VXQMEAIAvEggHAngcTMkC86SICvgZAS6SDRVdAwQAgC8RCZUf7Z/LC1wBoCe7kBaASgFgwHuBrACoUUDAAyAKxYDzA1wBUKKBgAJAFYsF4gK8BqFBAwQAgC8SC8QBfA1ChgIIBQBaIBeMBvgZAS3AnLwCVAMSC8QBfA6Al0sGiK6BgAJAFYsF4gK8B0BLpYNEVUDAAyAKxYDzA1wBoiXSw6AooGABkgVgwHuBrALREOlh0BRQMALJALBgPpfb1qVOnvLy8Jk6cOH78+AULFkRGRooqAGBg4E5eACoBiAXjodS+7t+/fxUBVatW9ff3F9UBAJQUKBgAZIFYMB5K7et9+/Zdvnw5KyvrypUrr732GomYd999V1SHuH///u3bt+/cufPkyROhPSkpKTg4+Nq1awUFBUJ7RkbGbQHPnz9nduonOzub5XNzc6mI/rLDp0+fCps8e/aM2RUaRqGuhHXu3r2bk5PDizSNQjx+/JgNkZ6ezo0cmvnZs2dpOOpQaNc0B+GcCeEcaHoPHjwICgqitrwJQVcjMjIyKioqLy9PaKee4+LiaBTqhxvVjgsqPlAwAMgCsWA86MTX3bp1IwXzySefiAsUinbt2jk6OrZu3bp69eqUT0xMJOO4ceOaNm3q6enZpEmTTp06PXz4kNefNm2ajY1NayUmJiahoaG8n127drH8pEmTaDg+pbVr11pbW7MmlpaWW7duZXZNo1BX27dvZ3miefPmgYGBvEjtKGfOnKFqDg4ONESDBg369+/Pm3MaN27cuXNnDw8PmsPKlSuZUWIO7LIwzM3NhXMYM2YM1e/Ro4eVlRXvKiIigoagUqpPkyH5yOyxsbFubm5OTk59+vShuZGyVGgeF1R8oGAAkAViwXiQ42s/P79hw4a1adOGVvq+ffumpKSIawg0wYsXL3r37r1o0SLK862CgoKC4cOHz5s3j9efOnXqlClTWL527dqqCiY8PNze3p5UDp8STY96ZvmOHTtyBaNpFG0UjGgUOrvPP/+c1Vm1apVaBZOfn88yAQEBjRo1YvnSzYEOHz16RPmQkBAzM7OEhATq3MXFZc6cOawOXaIOHToUKiHZNGHCBLbRQtUeP36s0DwuqPhAwQAgC8SC8SDH17SW16tXz8TEhBQMrfcnT54U11Cux8uWLYuIiNi3b5+Tk9OhQ4fISOvu8ePHqdslS5YMHjxYKAjGjx//5ZdfsryqgqH1uFOnTj4+Pg4ODnxKK1as4D0IFYymUaTVg9pR3n333VGjRrGPtDQpGIVym+TgwYMDBgyYMWMGs5RuDkuXLuVFdEbr1q2LiYmhi5yWlsaMpGno8NatW/Hx8ZRJTU3l9RmaxgVywJ28AFQCEAvGg3xfP3z4sE+fPrSOtmjRQlymXI8JWkHd3d3bt29/5coVMg4aNIjyXl5ea9asGT16dJcuXXh9KvL29mZ5VQWzYcOGrl270vIsVDDTp0/nH2AJFYymUaTVg9pRSED06tXL1NSUpmRpaalJEMybN69fv37NmjXjH0WVbg6bN2/mRQMHDlywYEFwcDCNzo05OTl0wc+dOxcSEiK0czSNC+QgHSy6AgoGAFkgFoyH0vn6xYsXwptJ586dSwuq2qWUaQKWX7p0qYeHR0JCgomJCb+xd+HChcL1ldby3bt3s7xIwaxdu9bOzo59bVuoYDp37rx69WqW5wpGYhRp9aBplG+++cbT05NkjcQeDOPq1atmZmYZGRmlngPV5EVt27bduHEj22vhn9NFR0ezw6SkJMqIbviVGBfIQTpYdAUUDACyQCwYD6XzdWJiYv369ceOHbtgwYJx48aZm5uzW2GEdRhcwZDimThxYrdu3ZKTk6ky24y5ceOGvb09W19zcnK+//57GxsbdieHQkXBNGzYcPr06eyQa4sTJ07Q6Py2D65gNI3CupJQD2pHOXXqlK2tLRtFrYKhyWdlZbH80aNHScFkZ2eXeg407p07dyhPRktLS1IqpJzo1CZPnkyZ/Pz8kSNH9uzZk9Xv3bv38OHD2VeoSLWkpqZKjAvkIB0sugIKBgBZIBaMh9L5+t69e05OTlWKsLCw+Pjjj8korMOg9dja2pq0SJ06dWjRvXTpEhlnzZplZWXl4uLSokWLmTNnsvXV29u7e/fuYWFhvK1IwZBm4uKGaYv9+/ebKKldRLVq1ajnP//8U6FhFNYVmxKDmtMhG0jtKCRNmjVrtnPnTmZUq2Bu3rxZt27dNm3aODs7k9bhn2RJzEFCwUybNo0uLzWhifn4+DD79evXXV1daXrUP6mZ+Ph4Zr9161afPn1q1Kjx+uuvk/77+++/FZrHBXKQDhZdAQUDgCwQC8aDHF+npaXRskrv+EWPJ9EGahsbG8u/v1M6du/ePWHCBJFx7NixXA1oOcqQIUOCgoLE1hJCFyEuLi4hIUF0NbScA4eJm9zcXLq2mZmZotLU1FTR82YYGRkZMTExwufclHRcUCy4kxeASgBiwXio1L4+ceLEkiVLREYvL6/g4GCRUZpZs2adP39ebC0nRNszwNiAggFAFogF4wG+rmjMmDFD/oYQqLxAwQAgC8SC8QBfA1ChgIIBQBaIBeOhWF+XbxJPCABDBwoGAFkgFoyHiuxr6bkBoGdwJy8AlQDEgvFQkX0tPTcA9Ix+XpBQMADIArFgPFRkX0vPDQA9o58XJBQMALJALBgPFdnX0nMDQM/o5wUJBQOALBALxkNF9rX03ADQM/p5QULBACALxILxUJF9LT03APQM7uQFoBKAWDAeKrKvpecGgEECBQOALBALxoNMXz9/mJnwa2B2arq4QBdIzw0AgwQKBgBZIBaMh1L7Oj006sxHi/fWfSst+IKoSFdIzw0AgwQKBgBZIBaMh5L6+vnDzNgfdx16/X0/ky7+pt3u/XXm1Ra6RHpuABgkUDAAyAKxYDxo72u26bKnRu8DTkP8qnn4m5etfFEUNzcA9Azu5AWgEoBYMB6K9bX3nG82DZvq7/huoP3bgfX6+Sp/rkgP8kVR3NwA0DP6eUFCwQAgC8SC8VCsr8s3iScEQPmhnxckFAwAskAsGA/F+tp7zjebB0zys/H0N+/+X2FR1T2gZu+yu4EXgIqJdLDoCigYAGSBWDAetPd1emhUUN8Zfmbdfat1hYgBRoh0sOgKKBgAZIFYMB5K6uvnDzOvLfEJtH+bivwtekDEAOMBd/ICUAlALBgPpfY125IJsHkTIgYAHQIFA4AsEAvGg0xfl+kzeQEwQqBgAJAFYsF4gK8BqFBAwQAgC8SC8QBfA1ChgIIBQBaIBeMBvgZAS3AnLwCVAMSC8QBfA6Al0sGiK6BgAJAFYsF4gK8B0BLpYNEVUDAAyAKxYDzA1wBoiXSw6AooGABkgVgwHuBrALREOlh0BRQMALJALBgP8DUAWoI7eQGoBCAWjAf4GoAKBRQMALJALBgP8n29ZcuWJUqePn0qLishQ4cO9fX1FVsBMCagYACQBWLBeJDp68OHD1cp4u7du+LiEtKlS5dNm/SxUQ9AhQUKBgBZIBaMBzm+zsjIcHBwqFu3rrSCiYuLO3ny5MWLF/Py8piFGgYFBd28ebOgoOD27dv0l9k1KRiqf/bs2eDgYNEQSUlJZLx27Rrvgbh///7tV8nJyWH2Z8+ePXjwgIamhv/rRcnz588jIyOjoqL4JBnUM82fRqF+hHYG65Mf0vTYWAoNcxOiaZ4MTfOhSyFsQtXI8vDhQ2GdlJQU6qqwsJAq5OfnMyPVyczM5HXIfuHChTNnzmRlZXGjptMhe3Z2NjPm5uZSt/SXV1PblYinT58Kpy0cRe2FkpiJWrtqEcGvAE3+zp073E5NbgtedRUNKBgAZIFYMB7k+PqTTz6xtLTcsmWLJgVDi8R7773XqFGjvn37urm59evXj4y0XNWuXbtjx46tWrWaPHkyNUxP/+8PQ2pSMI0bN+7cubOHhwcNt3LlSmYcN25c06ZNPT09mzRp0qlTJ76Kt2vXztHRsXUR5ubmgYGBzD5mzBiq3KNHDysrK94PERERQUNQBarfvHnzy5cvM3tsbCxN28nJqU+fPg0aNNi3bx9vwqAm27dv54fUlo2laW5CNM1ToXk+xLRp02xsbFgTExOT0NBQmgDVodWaVbh06ZKZmRkt56Qn6NomJiYyOzmCXMnyMTExLVu2dHZ2pkthZ2d35MgRZtd0OmTftWsXM06aNIm65a8HTV2JWLt2rbW1NZs2OXHr1q3MrulCScxErV21SKFUezRVEiuUof5//PFHZh80aNCwYcOENbUEd/ICUAlALBgPpfb1gQMHaHlYtWoVvfnWpGBoNa1evTp/Z5yZmUmahla7JUuWKJRvkT/88ENtFAzfSAgICCA9xPK3izZFqM/hw4fPmzePHWpa5MhO+UePHlE+JCSElvmEhASFsnMXF5c5c+aw+lOmTOnQoUOhEpJNEyZMYG/Wqdrjx495twxNY2mamxBNbTXNhx1OnTqVLCxPQpAUTG5ubr169biDPv/88w8++IAydNnp2rJzVAgUDHVFWnDhwoXMvn//fnt7e+YjTVPiCiY8PJwqk4Riw0l0JYJeQr1792Z5Eq9cwWi6UBIzUWtXLVIIFAzlz507Ry9Fmv8PP/xAaoaKhDW1RDpYdAUUDACyQCwYD6XzNemAhg0bduvWjRYeCQVDi4e5ufny5cvj4uKYJTo6mmryjxtYW5GCoSU5vQi+ckdERBw8eHDAgAEzZsxgFio6fvw4zY300ODBg/v378/smhY5si9dupTbaR1dt26dQrmLQHNIS0tjdlry6fDWrVvx8fGUSU1N5U1UoT69vb0jinB0dGRjaZqbEE3z1DQfdjh+/Pgvv/yS5ZmCoczs2bNHjBihUKoWMp44cYJVqF+//n/+8x+W5wrm5s2b1CFpuMgiqMnZs2cVmk+HKRjydadOnXx8fBwcHNjrQaIrEStWrOAXQahgNF0oiZmotQuL6AKyD7mECoZYvXo1zZx0DKkZZikp0sGiK6BgAJAFYsF4KJ2vf/nlF1obPvroIyqdMGECUzCzZs06ffq0sBpx9OjRt99+29raulmzZn5+fsHBwTVq1OClSUlJqgrG19e3ehF824Penffr14864R9nDBo0qH379l5eXmvWrBk9ejS1ZXZNyoDsmzdv5vaBAwcuWLBAofxUy9TUlNtzcnJoSrTI0cIstKuF+nR1de1fBJ0mG0vT3IRomqem+bBD6pnWaZbnCoZUjoWFxf3797ds2dKyZUsu+/bt20drPFWztbUlKckUDJ2XiYkJnzMjLCxMofl0mILZsGFD165dqXOuYCS6EjF9+vRPPvmE5YUKRtOFkpiJWruwyN3dnc6Xzl2kYO7cuUMXoUePHuywFEgHi66AggFAFogF46F0vl67di1TLSJWrVolrMZ5/vw5LVFmZmZRUVFUjd/uQEtgFRUF879mKly9epU6oZWJ1mxaO588ecLsCxcu1EbB8M87iLZt227cuJEybK8lJSWF2dkuER0ydaV6z68QtWNJzE2I2rYKzfPh1Xbv3s3yXMEQJBO/++47Dw8PVRfk5+e/ePFi+PDhTMGw8xLe2crRNCWyk8ft7OwiIyPpkCsYia5EdO7cefXq1SzPFYzEhZKYiVq7qGjp0qVubm5CBUMXoVevXiSSXnvttfXr1/MeSoR0sOgKKBgAZIFYMB5K52taFY4VQdJEqV6q+Pv7JycnC6vRChcbG8vyp0+frlatWlZWVocOHWbOnKlQypp33nmnWAWTk5PDP3U6evQoKZjs7GwaiBpeuXKFjDdu3LC3t9dm8aOlly23ZLG0tGSyoLCwkNbUyZMnU4bWuZEjR/bs2ZO17d27Ny387Gs4tNCqfqKkdiyJuQlR21aheT50Hb7//nsbGxu+LyVUMPv3769Xr56FhQW/mCKEd/J6enqOGDGCPb+HRjl58iS700jTlMjesGHD6dOnMztXMArNXQk5ceKEubk53wvhCkbiQknMRK1dWJSXlzdx4kS6aEIFs2DBgjZt2pArT506Vb16dVLSvBPtwZ28AFQCEAvGg3xfS9wHQ6qFVlz2jRvKbNiwgYwXL16kJZCMtCguWrSoWAVz8+bNunXr0vLj7Oxsa2vLP4CYNWuWlZWVi4tLixYtSBJps/hNmzbNycmJ6ltbW/v4+PA6169fd3V1rV+/PvVP62t8fDyz37p1q0+fPjVq1Hj99ddp/n///TdvwtA0lqa5CdHUVqFhPt7e3t27dxd+RiNUMKQb6JKOGjWKl4oQKhiSYgMHDqTzatWqVZ06ddzc3Nh3tjVNiew0Ga6chApGU1ccklYmSmoXQUKWLs6ff/6p0HyhJGai1s6KyK3UP02D5Mvly5e5gjl+/HjNmjXpqrKaXv+e36yBw8NbYj1aQYCCAUAWiAXjoax9TStrYmJibGys8GEntMjRckIrIokeoYLRBNWPi4tLSEgQrY5paWnUs+qbfrWwxS83N5eGFj4ZhUOLsaoIUyhvCI2JiVH7FRsJSjQ3tWiaj1qysrJq1aoVEhIiLtAMNYmOjmZfzpKJRFe7d++eMGGCyDh27FiuPORfqFKQFnxhr23fMx8tTg8tzWZMmQIFA4AsEAvGQ/n6WksFoxNEb98NCfLOmDFj1O70lDsnTpxgX54X4uXlFRwcLDLqmXtHz/qbdfMz6XLI+YPYH3c9f6hG1JYLUDAAyAKxYDyUr68zMjIGDBigdkdE58yYMSMoKEhsNQiGDRs2YcIE/vA6oCUvRYx5N3+L7n++/v6emn0qyJYMFAwAskAsGA/wNTBmmIih1zmlA40H72v4rsSWDO7kBaASgFgwHor1NRKSUSV/i+70d0+tPqlHwlRLRUkcMLoACgYAWSAWjAf4GhgzacEXAuu+FVCrz39FSdUuAbX7XJi2iu3BFBsdYpMugIIBQBaIBeMBvgZGC5Mvu617vtQuJh5HO45N/fOUsEKx0SE26QIoGABkgVgwHuBrYJyQfNlt9VK7CDddRBQbHcuWLfPx8eFP5dEJUDAAyAKxYDzA18AIefk8mLpvHes6UbTpIqJcogMKBgBZIBaMB/gaGBvZqekJvwaq3XQRUS7RAQUDgCwQC8YDfA2AJsolOqBgAJAFYsF4gK8B0ES5RAcUDACyQCwYD/A1AJool+iAggFAFogF4wG+BkAT5RIdUDAAyAKxYDzA1wBoolyiAwoGAFkgFowH+BoATZRLdEDBACALxILxAF8DoIlyiQ4oGABkgVgwHuBrADRRLtEBBQOALBALxgN8DYAmyiU6oGAAkAViwXiArysj+fn5S5YsefTokbgA6JRyiQ4oGABkgVgwHuDrykhOTk6VKlVu3LghLgA6pVyiAwoGAFkgFoyH8vX1/fv3b9++fefOnSdPngjtz58/j4yMjIqKysvL48aMjIyzZ88GBwffvXuXGzX1QPZnz549ePAgKCgoKSlJWESH1Mm1a9cKCgq4kdVn+UePHmVm/vdHc7KystLT03k1tW0Vyk2RCxcunDlzhuozC3VyWwXh6XBUT1aibXJy8vnz52mqTMFcunQpLi5O2BudSHZ2Nsvn5uZSQ/rLDukCCjukcVl9fuIciQlIXFjVE1FodpDaKymaDDmatJp0ker8CwsLaUTyCLeoekdLyiU6oGAAkAViwXgoX1+3a9fO0dGxdevW1atXp3xiYiIZIyIiGjduTIdkb968+eXLl1llMnbu3NnDw8PS0nLlypUSPTD7mDFjmjRp0qNHDysrK15/3LhxTZs29fT0pKJOnTo9fPiQ19++fTvLU8O5c+ey/KpVq/r37y/dNiYmpmXLls7OzjSWnZ3dkSNHyDh//vzWSmh0NkOCarImHLUnq6ntnj176DRplHfeeYcUTN++fSlPlnXr1vEOqatdu3ax/KRJk6ga9920adNsbGxYbyYmJqGhoaw+P3GOpgmw+movrNoTYfVVHaTpSoomQ/0EBgZKF6nOn4QanTWJGHao1jtaUi7RAQUDgCwQC8ZD+fqaL7cvXrzo3bv3okWL6O2yi4vLnDlzWIUpU6Z06NCB3lUrlO+kmTEgIKBRo0aaeuB2WuTYnSIhISFmZmYJCQmU5wsbvfUfPnz4vHnzeP1iFYzatjQ3ElULFy5kRfv377e3txfuCnTp0kVVIjAkTpYhbEsnSBKBnSy5gxbprVu3Uj44OLhGjRr8nhh+QcLDw2kmJFm476ZOnUpDsHzt2rUlFAxHdfJqL6zEiah1kNorySqrlSkSRarzFyqYYr0jTblEBxQMALJALBgP5etrWn6WLVtGb9/37dvn5OR06NAhesdMy09aWhqrQKsjHd66dYsdUs2DBw8OGDBgxowZmnrg9qVLl7I80bFjR7ZRQUva8ePH6YyWLFkyePBgrk60UTBq2968eZNmSGt5ZBEkDs6ePcuaKNSJAI70ySpebXv16lUTExPSAQqV+2AaNGhw+PBhlmeKgZRBp06dfHx8HBwcuO/Gjx//5ZdfsrxQwXh7e9MFpMnwz5s4qpNXe2ElTkStg9ReSVaZTYbh6OgoVDBqi1TnL1QwxXpHmnKJDigYAGSBWDAeytfX7ZTQAubu7t6+ffsrV64EBwebmpryCmypPnfuHDukN+v9+vVr1qwZ/6BEtQdu37x5M8sTAwcOXLBgAWUGDRpE1by8vNasWTN69GhaoXn9YhWM2ra0OpKw6P8qYWFhrIlCnQjgSJ+s4tW2QUFBtWrVEtbkCsbFxeW3335j+XZKBbNhw4auXbuSUBAqGJo/LfYsL1Qwrq6u7ALa2tqSzmAVGKqTV3thJU5ErYPUXklWmU2GYW1tLVQwaotU5y9UMMV6R5pyiQ4oGABkgVgwHsrI1wcOHFjyKmfOnBFXKlpuWZ7e2Xt4eMTHx9Pyk5KSwozR0dHCQ8bVq1fNzMxooVKo64Hlyc4/OyDatm27cePGhIQEWs/4LaVUQXsFo6ltUlISzfDOnTvMroqqCOAUe7LCttevX69atSrbZhApmHr16v31118sTyeydu1aOzu7yMhIOhQqmObNm+/evZvl1X6KRBfQzc2N5Rmqk1d7YSVORNVBmq4kq6z2oyKJItX5CxVMsd6RpoyiQxooGABkgVgwHsrI12PHjq3yKiQFxJUEy1teXt7EiRO7detWWFjYsWPHyZMnUyY/P3/kyJE9e/ZUKNds/kWSo0ePkoJh37hR7YH3TIs3W7poqbO0tKQFNTk5mWbCtgFo+be3t1e7dqpVMBJtPT09R4wY8fTpU4Xy85GTJ08KvwijKgI4mk6WI2xLFZo1a/bLL79Q3t/fnybzww8/KJRnV6dOHf7lKTqRhg0bTp8+nR0yBUNX7/vvv7exsXn8+DGzqyoYdgElJsBQe2ElTkTVQRJXUpNMkShSnb/oTl5p70hTRtEhDRQMALJALBgPZeRrpmDmzJkTWITah5fQ8mNtbU2rKa3BtPZcunRJodxscHV1rV+/vq2tLa2L9P5eobyhoW7dum3atHF2diY7u4lVUw/MPm3aNCcnpxYtWlAFHx8fZp81a5aVlZWLiwvZZ86cKVw7WT8EySMLCwuWpxXa1NT0s88+k2ibmpo6cODAGjVqtGrViqbh5uYm/DqxqggQovZkOaK2tPrSlFq2bDl69Gi6vCQUKE/T9vPz43XoRKg3rlSYgvH29u7evbvw0xOhghFeQP4dIobq5DVdWE0notZBmq6kJpkiUaQ6f5GCkfaONGUUHdJAwQAgC8SC8VBGvmYKZv78+fT++/Tp09qvGRxaeITPfVEo32THxcUlJCRo0xtb8HJzc2ll5fsTjLS0tNjYWO3fiB85cmTMmDEsL9E2KysrOjq6dM/JVT1ZTeTk5KSkpPBPke7du8d2F/SGxIVVlOREJK5kWVA675RRdEgDBQOALBALxkMZ+Vr0KVLLli357oh+EL1ll0NYWJjwzo+KQDk+k1eHF7biU0bRIQ0UDACyQCwYD2Xk6+XLl1NDX1/fn376qV69erTcurq6iiuVJTNmzAgKChJbDYW8vLwBAwakpqaKC8oew76wIsooOqSBggFAFogF40EPvt6wYQPbiSnpHj4A5YseokMVKBgAZIFYMB7KyNfCx+cvW7aMKRj+8HgAKgVlFB3SQMEAIAvEgvFQRr42MTHp27fvnDlzPv30U3Nzc5Iv/fr1E1cCoGJTRtEhDRQMALJALBgPZeTrd955x8LCgm29mJqajh8/HhswoNJRRtEhDRQMALJALBgPZefr58+fJyUl3bhxgzLiMgFPnz69LUD4q3vUPDg4+Nq1awUFBdx4//59YZ27d+/m5ORI2FWLFMonm9FY/Ku8lLlw4cKZM2f4Q/NEUA/CSRK8czq7yMjIqKgoie94SzSXOMcHDx4EBQVRBW5XaK4vvKuXimgI4V1HqidIpaIpEewUdD565aXsokMCKBgAZIFYMB7K3ddr1661trZurcTS0pI/qm7cuHFNmzb19PRs0qRJp06d+BaOxJPN1NpVixSv/vhfTExMy5YtnZ2de/ToYWdnd+TIEWFNBvXg6OjIJkmYm5uzziMiIho3bkylZKQRRY+D42hqLnGOY8aMISNNycrKauXKlcwuUb9q1aqxsbHscM+ePXR2Y8eOZYdqT3D+/PlsMtQ/nxu7e0m3o1dqyiU6oGAAkAViwXgod19T571792b5jh07cgXD5IVC+Z5++PDh8+bNY4ealIomu2qRQqBgCgsLPTw8+ONe9u/fb29vL9qwUaj0wDrPz893cXGZM2cOM06ZMqVDhw7UIa/GUdtcIXmOVIdtY4SEhJiZmSUkJEjX79y5M/+97l69erm7uzMNUewJqn3qrq5Gr+yUS3RAwQAgC8SC8VDuvl6xYgX74SHFqwqGlt7jx4/T0EuWLBk8eDCvQ+ult7d3RBGOjo5cwai1C4tiYmLYLyNyBXPz5k3K0DodWUTt2rXPnj3LGnLUShDqjdqmpaUxIy3zdHjr1i1ejaO2uULyHJcuXcrr02VZt26ddP3169c7ODhkZWVdvnyZDmfNmsU0RLEnqFbB6Gr0yk65RAcUDACyQCwYD+Xu6+nTp3/yyScsL1QwgwYNat++vZeX15o1a0aPHi386RxXV9f+RVhbW3MFo9YuLHJ3d7e1td23bx9XMLS0m5iY8FYM4e8H8R5UJUhwcLCpqSk3sufknjt3jls4apsrJM9x8+bNvP7AgQMXLFggXZ/6//zzz0lJTJo0adOmTVxDFHuCahWMrkav7JRLdEDBACALxILxUO6+7ty58+rVq1meK5iEhARad588ecLsCxcuLPbH/zTZRUVLly51c3PjCiYpKYky7JeWJVDbeXx8PLVNSUlhxujoaOGhELXNpc9R+DsGbdu23bhxo3R96v/69estW7Z0dHTMzs7mGqLYE1SrYHQ1emWnXKIDCgYAWSAWjIfy9fWJEyfMzc35DRZcwSQnJ9O6e+XKFcrfuHHD3t5eJwomLy9v4sSJPXv2FN7J6+npOWLECPb7iIWFhSdPnlT9uUG1nVNlmvDkyZMpQ01GjhxJPQsa/Q+1zaXP0cHBgckOqmlpaUnCSLo+63/+/Pm//vqrQvnjz1xDSJ+gWgWjw9ErNeUSHVAwAMgCsWA8lKOv9+/fb6KkdhHVqlWzsrL6888/FcpVkPIuLi4tWrSYOXOm6nrJ0FLBWFtbU/916tQhkXH58mWhgklNTR04cGCNGjVatWpFFdzc3FS/F62p8+vXr7u6utavX9/W1pbUTHx8/P/aCNDUXOIcp02b5uTkRHaauY+PD7NL1BepEKGGkD5BtQpGh6NXasolOqBgAJAFYsF4kOnr5w8zE34NzE5NFxdowe7duydMmCAy0srHlUdaWlpsbKzqjkhZkJWVFR0dXbqnmJBEuHv3rtiqHWrPkWmC3NxcUkiZmZnCIrX1tUH7EyyL0SspMqOjdEDBACALxILxUGpfpxwI/bvz+ACbN9OCL4iKtOTEiRNLliwRGb28vIKDg0VGY0N1V0OflO/oFYpSR4ccoGAAkAViwXgoqa+fP8w8P+W7PbX6UNFuy56lli9AghkzZgQFBYmt+qJ8R69QlDQ6dAIUDACyQCwYD9r7OuVA6NH2H/uaeJDR37zbXhm7LwBUCoqNjmXLlvn4+ISGhorLZAAFA4AsEAvGQ7G+9p7zzdbuH/lZ9/St2oUOKe2x6gH5AoyBYqOD/g36+/tfvHhRXCYDKBgAZIFYMB6K9fUflt3pr3/t3ky+UPIz6XLpm1+uem2iPP2lasgjb5B536LXvKa0bds2+jfIfxNKJ0DBACALxILxUKyvved8s2nY1N1OAw84DTna/mN/ix5k9Kvmccv3b3FtAAwUHx+fn1+FLP7+/vQ/8OLFixIPDCwFUDAAyAKxYDxo7+v00KgzHy0OqO15tOMngfX6QsQA4yE0NPTYq5CFtEtsbCzJF9F3zmUCBQOALBALxkNJff38YWbsj7sO/99IP5Mu/mbdbu85+WoLAIAsoGAAkAViwXgota/Zlsxe2764pRcYCewumbIGCgYAWSAWjAeZvpbzTF4AKhfSwaIroGAAkAViwXiArwHQEulg0RVQMADIArFgPMDXAGiJdLDoCigYAGSBWDAe4GsAtEQ6WHQFFAwAskAsGA/wNQBagjt5AagEIBaMB/gagAoFFAwAskAsGA/wNQAVCigYAGSBWDAe4GsAKhRQMADIArFgPMDXAFQooGAAkAVioXwZOnSor6+v2Fo2wNcAaAnu5AWgEoBYKF+WL18eGhoqtpYN8DUAWiIdLLoCCgYAWZRvLNy/f//27dt37tx58uSJ0P78+fPIyMioqKi8vDxuzMjIOHv2bHBw8N27d7lRUw9kf/bs2YMHD4KCgpKSkoRFdEidXLt2raCggBtZfZZ/9OgR/wXarKys9PT/PUdfbVsiPz//woULZ86cofrMQp3cVkF4Ooy0tDQ+blxc3MmTJy9evCispvZSsNk+fvw4JCQkOTmZ26UpX18DUImQDhZdAQUDgCzKNxbatWvn6OjYunXr6tWrUz4xMZGMERERjRs3pkOyN2/e/PLly6wyGTt37uzh4WFpably5UqJHph9zJgxTZo06dGjh5WVFa8/bty4pk2benp6UlGnTp0ePnzI62/fvp3lqeHcuXNZftWqVf3795duGxMT07JlS2dnZxrLzs7uyJEjZJw/f35rJTQ6myFBNVkTTpcuXTZt2kR66L333mvUqFHfvn3d3Nz69evHSjVdCrJMmjSJLNScrsa6dev+16NmytfXAFQipINFV0DBACCL8o0FWol37dpFmRcvXvTu3XvRokX5+fkuLi5z5sxhFaZMmdKhQ4fCwkKFcp+DGQMCAmix19QDt9MC/+jRI8qHhISYmZklJCRQ/vbt26wCiYbhw4fPmzeP1y9WwahtS3MjUbVw4UJWtH//fnt7e76tolBqFN6zKkzBXLp0iRQYb8V2gCQuBc2WhA7bdtqzZ0/NmjVFe0JqKV9fA1CJkA4WXQEFA4AsyjcWaCVetmxZRETEvn37nJycDh06FBMTU6VKlbS0NFaBZAcd3rp1ix1SzYMHDw4YMGDGjBmaeuD2pUuXsjzRsWNHtlFBCuD48eN0RkuWLBk8eDBXJ9ooGLVtb968STMkkRRZRO3atc+ePcuaKLRTMKSNzM3Nly9fHhcXx4skLgXNlqbB7BkZGWS/c+cOb6iJ8vU1AJUI3MkLQCWgfGOhnRKSAu7u7u3bt79y5UpwcLCpqSmvkJOTQ8vzuXPn2OG8efP69evXrFkztu+itgdu37x5M8sTAwcOXLBgAWUGDRpE1by8vNasWTN69GgSELx+sQpGbVvSLiYmJv1fJSwsjDVRaKdgKHP06NG3337b2tqazs7Pz48sEpdCOFtmv3HjBq+pifL1NQBABBQMALIo31hoV/QZELF06VIPD4/4+Hhaj1NSUpgxOjpaeMi4evWqmZlZRkaGQl0PLE92/skO0bZt240bNyYkJJDa4Pf8UgXtFYymtklJSdJbIFoqGMbz589JHtHZ0UASlwIKBgADAAoGAFmUXSwUFhYGBgZ+8cUXEyZMoPX+9OnT4hoC/ZGXlzdx4sRu3bpRq44dO06ePJky+fn5I0eO7Nmzp0K5TvOv+Rw9epTW+OzsbLU98J4dHByYsKBpWFpa0tqfnJxMiz3bp6El397eXnsFI9HW09NzxIgRT58+VSjP+uTJk/yWHYV2CoZkUGxsLLPQhapWrRqdrKZLoYCCAcAggIIBQBZlFAskL956660qSqpWrUp/+WcxQmgltra2rl27dp06dWh5vnTpEhmvX7/u6upav359W1tbWsLj4+MVyttN6tat26ZNG2dnZ7Jv3bpVogdmnzZtmpOTU4sWLaiCj48Ps8+aNcvKysrFxYXsM2fOFCoY1g9B8sjCwoLlSfqYmpp+9tlnEm1TU1MHDhxYo0aNVq1a0TTc3NyE33zWRsGQarGxsWFfWaLMhg0bWKnaS6GAggHAIICCAUAWZRQLc+fOpWW1adOm4eHh+fn5t27d+uuvv8SVJCFZIHzui0K5yxIXF5eQkKD6VBVV2Bqfm5tLIoA/3IWRlpYWGxsr3CaR5siRI2PGjGF5ibZZWVnR0dHs20/aQ3Jn586dCuU3jxITE6lzUiSiOqqXonSUka8BMDxwJy8AlYCyiIXCwkJbW1tSMH/88Qct6pcuXSIlIa5Uxgh3KWQSFhYmvKVGV2RkZGzdutXCwkL1ITFlRFn4GgCDRDpYdAUUDACyKItYSExMZJ8fNW7cmGXs7Oz495z1w4wZM4KCgsTWisS1a9c+/PBDf39/cUGZURa+BsAgkQ4WXQEFA4AsyiIWrly5woSLg4PD5s2bP/jgA8rXqlXrwYMH4qpAj5SFrwEwSKSDRVdAwQAgi7KIhTt37jAFs2TJEoXyF4LYYUlvhQG6pSx8DYBBIh0sugIKBgBZlFEsODg4kGTx9vam/MOHD5mCOXPmjLge0CNl5GsADA/cyQtAJaCMYmHlypUkWRo1arR+/fphw4ZR3tnZWf/38wIhZeRrAEDpgIIBQBZlFAuFhYVz5861sLBguy89evTgT2wTUVBQEBcXFxwczH83UcTz588jIyOjoqL4l6gfPXp0WwUqvX//PmXu3LnDn5zLyc/Pv3DhwpkzZ/hj8TR1wkpVByWo/9TUVH5IM6cmJf36dDlSRr4GAJQOKBgAZFGmsfD06dPo6Gj2+H+1kKxxc3NzcnLq06dPgwYN9u3bJ6oQERHRuHHjdu3atW7dunnz5pcvXybj/PnzWyuxsrJiT4EjYmJiqBo7rF69OuUTExNZJ1TUsmVLZ2dnElJ2dnb/v73zAIviWv9/pNgg2EV/amwx0WDBEkXUoMaSxBI11xDxetXYYyyJscb2VzGJsferIogNVoqSiBoLIIYooIAiCIqAEURAFCvS9v+yJ8wdZ5ZhYZdtfD/PeXhmz7znTDlzOJ+dmZ05deqURCUlLVSu+IV2lSpVOBXz8vIiORs/fjz7qP9UaFsDAMoKDAYAtdBhXygsLPzwww8nTZpUUFAgV5wmefLkCT+Actq1a7dgwQL2cfr06V26dKFSXIDgcbfcGwby8vL69u27fPlyuWIpdnZ23ANdTpw4YW1t/eLFC66UoBKJhVL9tMLca7EdHBy6d+8OgwEAlA8YDABqocO+wN5cyL8uI+DWrVsUkJ6ezj4mJCTQx3v37nEBYoNxdnYOCws7fvx48+bN2RNo7t69S6WCgoIiiqlVq9bly5dLqkRioVT/jh07mjRp8uzZs+vXr9PHefPmwWAAMD5wJy8ABoAO+wJZhZmZmTCXR2BgID+AvQDoypUrXI7YYIjBgwd37969c+fO7C2MtBQTE5PBbxISElJSJRILZc/5/eabb8hjpkyZsnfvXhgMAEaJdGfRFDAYANRCh30hKSmJ5ID+CmcUw07SpKSksI+xsbH8j3KRfHBXkYg1a9bY2dnJi5fCXlKtFEElEgtlBhMTE9OmTZumTZu+fPkSBgOAUSLdWTQFDAYAtdBtX+jbt++oUaNIBWj66dOngitKhYWFXbt2nTZtGk3k5+c7Ojr26dOHH1CSweTm5k6ePNne3p7l9+/ff/To0c+fP5cr6rxw4QL/1YyCSiQWygxGrrgLeM+ePXLF26phMAAYH9KdRVPAYABQC932hXv37vXr18/S0vK9996rU6fOH3/8IQiIiYnp2LFjw4YN69WrR2Jx584d/lyxwdSsWbNWrVq1a9cm7YiKimL5JEZDhw6lpbz//vs0y9bWlv8baUEl8pIXyhkMBwwGAKNEurNoChgMAGqhZl94/Sg7YY/vy9QM4Yyy8Pjx41u3bvF/HySAFOTBgwfC3DLy7Nmz2NhY1R/fopGF6hVqtjUAlQfcyQuAAVDuvpARHBk4eI53nQHpgVcFs4B+Uu62BgBUBDAYANSirH3h9aPsGGe3440+9ajS/Vi13tAXA6KsbQ0AqFBgMACohep9QXHSZbasai9P056eVXp4W/WFvhgWqre1cB4AoAKAwQCgFqX2hVULluwbOtWzTn9ZtV70kZKnCfTFICm1rZ2dnV1cXIKDg4XzAAAVAAwGALUotS8cLhYXLnma2sX8cjB65V6aZve7YdpQpqUT/dOTyWTXrl2TA1C5Yb2mooHBAKAWpfaFVQuW7B05Q/Z/n/jUG+hl4cCGumPVez+8ECaMBgaCs7Pz8g8GruBBOfQfz93dnf7plfQWcQAqD9L/GDUFDAYAtVC9L2QER4aMWXaspsNx608hMQaNi4vL6rpFZ1w4KEcmk1ErX7t2TeL5xQBUEqT/MWoKGAwAalHWvvD6UXbcpqO/vzvKo0oPmbk9JMYQCQ4O3mLe5SwPyiF3iYuLI33Jzs4WFgCgkiH9j1FTwGAAUIty9wV2SsanLp4HY5BItzsAlRztdBAYDABqoWZf0MgzeYH20c6NigAYKNrpIDAYANQCfQEAAHQCDAYAtUBfAAAAnQCDAUAt0BcAAEAnwGAAUAv0BQAA0AkwGADUAn2hcqKdGxUBMFC000FgMACoBfpC5US63QGo5Ging8BgAFAL9IXKiXS7A1DJ0U4HqbwG8/r1a2EWAGXHCPoCKAfS7Q5AJUc7HaRyGYyvr++AAQOsra3Nzc2//fZb4WwjJT8/f/Xq1VlZWcIZQBMYaF8AaiLd7gBUcrTTQSqRwWzfvr1Ro0ZHjx59+PBhQUGBcLbx8urVq7feeuv27dvCGUATGGJfAOqjnRsVATBQtNNBDMZgXr9+HRERERkZmZuby3KysrL+FsHNFcQ/e/bMwsIiLCzsqoKcnByuZhKaFy9eZGZmBgQEJCUlcfkMygkMDLx58yYnPfn5+bQg7iJURkYGVc6ms7Oz09LSSirIoOK0An/99RdXSnpD+JR1JyQnJ4eHh9PWMYOJioqKj4/naqMNf/nyJZumHUIFud3y+PFjfoVsY9mO4oozJFZAYseKN0SuiKey9+/ff/r0KS+2CKU7U7A+Dx48IFeTyBfPIgoLC2mh1Ci0K/ivFKYilK+K6Wq/LwAAAJAbisGQebzzzjudOnWysbFp3br19evXKfPHH3+0UVCjRo2mTZuy6Vu3bimNDw4OprBWrVp98MEHtra2FH/lyhVWOYWNHTu2RYsWvXv3pph169Zxy50wYULLli379+9Pc7t16/bo0SO5YsybOHHiJ598wkbfwYMHb9q0iSYSExObNWt29OjRkgoStHpt2rRp27YtLatBgwanTp2SS24IH/FGSZf18vIiaaMFffrpp2QwAwcOpGnK2b59O6uQqmJrS0yZMoViuPaaOXNmnTp1WG0mJia091j8wYMHWQCHxAqUtGOVbgiLZzXQStI07U+WX9LOFKwPVeXr6yuRL54lV7gabTjJCk1Q/awpiWHDho0cOZIfWRJa7gsAAAAYBmAw9P24Xbt2CxYsYB+nT5/epUsX0gguoEePHvxhSWn8H3/8QQPV1KlTWeaiRYvIJPLy8uSKUY0GOXabSFBQkLm5eUJCAgujgY1N0HfxUaNGLV68mH2kRdBHR0dHymcGk5aWRhX+97//lShI62xnZ7ds2TI268SJE9bW1vxTAoIN4aN0oyR2Am0aWQITFGoF2nZXV1eaDgwMtLS0ZBvLGUxoaCitCSkL114zZsygRbDpWrVqSRgMh3jlle5YiQ3h1odWvm/fvsuXL2cxSncmi1dqKiXli2fJeQZD0yS1JE+0NzZs2EA2Q7P4kSWhzb4AAACAwwAMhr7Q0xiTnp7OPtIoSB/v3bvHBQjGTqXxx44do7/cNRT6Hk8f2bd/GtXWrFnDFe/atSt3loJG1nPnztGGrF69evjw4SQrXFhOTs77778/bdo0yqSNpUpmzZrFzVVa8O7du7RQGssjiiE5uHz5MldKLAEcSjdKYidER0ebmJgwRRPcB9OoUSN/f395sTGQFnTr1s3FxaVJkyZce02cOHHOnDlsmm8wq1atCgsLo5XhX4ZjiFde6Y6V2BCKd3Z2pvqPHz/evHnzkydPshilO5PFs/VhNG3alDMYpfn8Wdwm8A2G2LhxI+0H8hjuFF2paLMvAAAA4DAAgwkMDDQzM+M+svGYP8AIxk6l8e7u7vT3+fPnXH716tXPnDkjV4xq+/bt4/KHDh26dOlSNj1s2LDOnTuvXLly69atTk5OtCAujAb1evXqde/evaoCGlZp0OVu4FBakNyFrGLwm4SEhHB1iiWAQ+lGSeyEgIAAKysrNi0wmHbt2rm5ucmLDWbXrl09e/YkS+AbDK0/jfRsmm8wHTt2pHWmraZtJ89gAQzxyivdsRIb0kkBq5/23o0bN1iM0p3J4tn6MGrWrMkZjNJ8/ixuEwQGc//+fWrN3r17s4+qoM2+APQH7dyoCICBop0OYgAGc+fOHRpjUlJS2MfY2Fj+R7lo7FQaz77637x5k2U+ePCA+0ijGndlh+jQocPu3bvlitMDJByclFAMN3a+fPmyTZs2tNCsrKyWLVt+9dVXlDlmzJhp06ZJFExKSqKF8m8XFSCWAA6lGyWxE2JiYqpUqcJOMwgMpn79+qdPn5YrNnzbtm0NGjSIiIigj3yDad269bFjx9i00qtIa9assbW1ZdMM8cor3bESG8KMiuVT/XZ2dvKSdyaLV3q1qKR8wSy2CXyDyc/Pd3BwIElq1qzZjh07uBqk0WZfAPqDdLsDUMnRTgfRpcE8efJktTL4t3fIFRcRunbtSnJAEzTGODo69unThx8gGDtLiqdv3iQZlEP5U6ZMocGM/dKEJmjwZmJBQ1316tXZgJqcnExjGzsTQMO/tbU1N3bOmTNn+PDhbHpw8Z28mZmZjRo1ok2WKNi/f//Ro0ezU0G0GhcuXKD1YbPkog3hU9JGcQjKUkyrVq127txJ0zKZjNZnw4YNcsUG1q5dOzs7W67Y8MaNG3PPxWEGQ7qzfv36OnXqUOuwfLHB5ObmTp48WXoF5CXsWIkN4QyG1W9vby+XbIWSTKWkfP4sbhP4BrN06dL27duTnl66dMnCwiIyMpKrRAKN9AVgcEi3OwCVHO10EF0aTGJi4lvK4A/qjJiYmI4dOzZs2LBevXo0/tH3eP5c8dipND4pKYldO6B8Gxub6OhoFkyj2syZM5s3b/7uu+/WrFnTxcWFq2fevHk1atRo164dzZo7dy4bO2k4r1+//oMHD1gMZzCEj48Pu5aktCCRmpo6dOhQS0vL999/n0zC1taW/3Ni8YbwUbpRHOKypEckH23atHFycqK9Sq5A07SBnp6eLIA2nGrjTIUZzKpVq3r16sW/tsU3GCpOH2nNaeznfkPEEK9ASTu2pA0R1B8VFcXyS9qZJZlKSflslmATOIM5d+7c22+/TevGIp2dnamNuF+8S6CRvgAMDul2B6CSo50OokuDefHihS+Pzp0701jSr18/YVwxNPxz3qAKSuPT0tL4F1/kxQNeTk4OjV7s5ASf9PT0uLg4sVSVikRBGhdjY2PL95BcpRtVEq9evaKN5a4i0bbz7wSqaKR3bJk2RGJn6hyN9AVgcEi3OwCVHO10EF0aDJ/k5GQzMzMaaNkjUrSJ4Cu78aGrZ/Ia/Y5laLwvAINAOzcqAmCgaKeD6IvBzJ07l0bZ9u3bC2dUPLNmzQoICBDmGhG5ublDhgxJTU0VzqhgjH7HMjTeFwAAAKiCXhjM48ePLS0tyWAOHDggnAeAfqPZvgAAAEBF9MJgfvrpJ9KXJk2aKH0ZEAD6jGb7AgAAABXRvcG8fv26cePGZDC//vqrcB4Aeo8G+wIAAADV0b3B7N+/n/TFyspK/HMVafLz81evXl2+X/RoH8NaW6A6GuwLwIDQzo2KABgo2ukgOjaYwsJCGxsbMpj58+cL55WGrn5iUz4Ma22B6miqLwDDQrrdAajkaKeD6NhgykdycnJ4ePiLFy+YE0RFRXGvbGS8fv06IiIiMjKSu7EmKyvrbxHcXHE88fDhQ3EwZdJyMzMzAwICkpKSuGC54ol5gYGBN2/eZI/65SjH2sqLl37//n3ugfpAP9FtXwC6QrrdAajkaKeDGJ7BeHl5WVhY9O7d+9NPPyUnGDhwIE1TDvdC6bCwsHfeeadTp042NjatW7dmj4798ccfbRTUqFGjadOmbPrWrVslxcsVjzPhIm2Kn+FLmWPHjm3RogUtlKpat24dC54wYULLli379+9Ps7p16/bo0SOWX761ZQtiS6dgmk5MTGT5QN/QYV8AOkS63QGo5GingxiYweTl5dF4z96eQ5WTE7i6usoVr262tLTMysrKz89v167dggULWPz06dO7dOnCf9GS+P1BJcUrfSAbZZJnsNtZgoKCzM3NExISaPrv4pcbFxQUjBo1avHixXL11rZT8UuCqJK+ffsuX76cxQB9Q1d9AegW6XYHoJKjnQ5iYAYTHR1tYmJCg7pcdGdJo0aN/P392Tuo09PTWSbpBX28d+8eV4PAYCTiSzKYNWvWcB+7du3KzqaQdpw7d442efXq1cOHDx88eLBcvbWlBTk7O4eFhR0/frx58+YnT55kMUDf0FVfALpFOzcqAmCgaKeDGJjBBAQEWFlZsWmBE7Rr187NzS0wMNDMzIyLZzFXrlzhcgQGIxFfksHs27eP+zh06NClS5fSxLBhwzp37rxy5cqtW7c6OTmxtw+qs7adFJAJde/enWpmL2cGeoiu+gIAAFRyDMxgYmJiqlSpkpOTIxc5Qf369U+fPn3nzh3K5N7dGBsby/8oFxmMRHxJBrNs2TLuY4cOHXbv3p2QkGBiYsLdcksBzGDUWVvuKhKxZs0aOzs7Ng30DV31BQAAqOQYmMHk5+e3atVq586dNC2TyWi837BhA037+vrWrl07Ozu7sLCwa9eu06ZNowkKdnR07NOnD78GgcFIxJdkME2aNLl//75csdDq1auTcCQnJ9OasNMk5CjW1tbMYNRZW85gcnNzJ0+ebG9vX7wKQL/QVV8AAIBKjpYM5vWj7IQ9vi9TM94MLA8XLlyoVatWmzZtnJycyAlo1KfpmjVrenp6soCYmJiOHTs2bNiwXr165Ad37tzhFxcYjLzk+JIMZubMmc2bN3/33XdpoS4uLix/3rx5NWrUaNeuHeXPnTuXGYxcjbWlBVEYlSXXIa2Jiopi+UDfKGtfAAAAoBEq3GAygiP/+vcK7zofpwdeFcaVl1evXqWkpHDXZdLS0p4/fy6ISU1NffDggSBTAhXjmdbk5OSQeQgeIpyenh4XF5efn8/PlFfM2gL9QfW+IJwHDBnt3KgIgIGinQ5SUQazasGSvSNnHGs2xNOkh6dpz0S334VBaqOTp9wqPTGjCjpZW6AFSu0LMBijRLrdAajkaKeDaN5gMoIjae7hqvaHGgzwNO9JBlMR+iJX3CAyZMiQ1NRU4YyKZNasWQEBAcJcFdDJ2gItINEX5DAY40W63QGo5Ging2jMYF4/yo7bdPRk2y+PN/6M5rJUcfoCgJ4g7gt8aK6zs7OLi0twcLBwHjBkpNsdgEqOdjpI+Q1GlXT6q4XRK/fSBLskhmlMG990qWnLli0ymezatWtyYER4aOUfNAAGinY6SDkNhoO+X64gRn+9asGSLYPHH6ztcKR6Lw9TO/a/29Os5wP/P4VlADBGuL5Q9FcB5ZC+uLu7nz17Ni4uTlgAGDLMYgEAStFOB1HXYFxcXLa8idsiZ4+e4zyq9ZJZOpDEyMztITGgMiDuC5Qjk8lIX65du8aeIQQAAEBTqGswwcHBZ9+Ecuj/dUzotdCVu0+8M8yjSndPU5yJAcZPSX0hLi6O9EXw23sAAABqoq7BlEpGcOSfo5d41+qvwefBAAAAAKCSU+EGw9DgM3kBAAAAADRjMNq5ZwcA/Qd9oZKAhgZAAu10EM0YjHZ+NwWA/oO+UElAQwMggXY6CAwGAE2CvlBJQEMDIIF2OggMBgBNgr5QSUBDAyCBdjoIDAYATYK+UElAQwMggXY6iGYMRjv37ACg/6AvVBLQ0ABIoJ0OohmDAQAAAADQJjAYAAAAABgeMBgAAAAAGB4wGAAAAAAYHpoxGO3cswNAWcl9/PRhwFVtpisTVokzNZ5ynzwTbmolRvut/FBbDc0ltDgwLLRjBZoxGO38bgqAskL/+ungNL6E96TyMdZW5ie0ODAsPLRiBZoxGO3YFgBlhY1ttzatfxjgYRzp1sb1GM8EGF8r8xNaHBgi2rECzRgMAPoJG9toGCgsvGYcKe2CB8YzAcbXyvyEFgegJJQYTGxsbFJSEj/n0aNHYWFhhYWF/EwA9B/jG9vYeHZ6497z58+HhIRERETEx8enpKRkZ2cLN77SYHytzE+sxQN2uKOtgZ6QmJgYpiAyMjI5OVnsBlxAeHh4QkJCXl6eIEBTKDGYHj16TJo0iZ9z8ODBt95669WrV/xMAPQf4xvb2HgmW7lBJpP5+fmRx4SGhtLAlpGRIdz4SoPxtTI/sRY/vnYb2hroCePHjzczM6tXr16dOnVMTExq1ao1ZcqUhw8figMIU1NTa2trLy8vXgUaAwYDjBnjG9vYeHZw8doDBw4cOXLE19eXBjb6dk5fzYUbX2kwvlbmJ9biR5etQ1sDPYEExcHBgU3n5OScOXPGxsamRYsWmZmZ4gAyB/Kb6tWrv3z5kuVokDIbzI0bN5ycnDp37mxnZzdx4sQHDx5wYb///vuQIUNsbW1Hjx599eo/V23XrFlz+PDhHTt22Nvbf/3111wwAFrA+MY2Np65L3J2U0AS4+fnFxISkpiYKNz4SoPxtTI/cS2OtgZ6Al9QGGQCFhYWixYtUhoQEBBAChEfH8/laIqyGQzZVsOGDWfMmHHhwoWTJ08uW7aMW6f9+/dbWlr+/PPP586dW7FiRY0aNaKioij/448/btKkyeeff+7p6UlF+NUCUNEY39jGxjPPFeupQ5HBHDhwQCaT0VfzivjvYCgYXyvzE2cwaGugJ4gNhnB0dLS1tWXT/IC0tDQnJ6eWLVvm5uZywZqibAZz+/Ztmrh//z5/LpGXl9egQYOtW7dyORMmTBgzZoxcYTAffPCB+E4fALSA8Y1tMBgxxtfK/ASDAfqGUoNZvHhxvXr12DQFvMWjcePG4eHhb4ZrhrIZDJlK+/btW7RoMX/+/LNnz3JKdePGDQqYPn36ihUrli9fvmzZskGDBnXs2FGuMJgZM2bwawNAaxjf2AaDEWN8rcxPMBigbyg1GLICa2trNk0BJBKJCiIiIsgBGjRokJyc/GYJDaDEYAYMGODo6MjP2bFjR9WqVQsKCmj62bNnu3fvHjFihJWVVatWrRISEijzypUrZDC0AT/x2Llzp1xhMAsXLuTXBoDWkBjb7t79PTT0UGrqWX5mRkYAZcbFHRfHC9LatbOOHv1ZnM+lgoKrVFVi4knxLHUSDEaMRCsXqtBSqicNViVOO3Ys3rt3uTgfBgP0DaUGM3jwYHt7ezYtCCgsLKxXr97y5cu5HE2hxGCmTZtmY2PDz5k5c2bbtm35OXKFylAmWYtc8cAYExMTpT+XgsEAHSIxto0fP4y0e+jQPvzMSZNGUObgwT3F8YL08cfdFy6cIM7n0pkzO6mqtm1biGepk2AwYiRauVCFllI9abAqcRo79jM6/MT5MBigb4gNJjw83NTUdNOmTUoDCgoK6tatu2DBAi5HUygxmLCwsCpVqvzyyy85OTm04NOnT1taWm7cuJFmJSUl0Ud2MoaspXXr1j///DMrNW7cuFatWrG7d4mYmJizZ8/KYTBAp0iMbWQwH3zQqmpV87S0cyzn+fOQt9+2aN/+XY0YzFdfDe7bt5upqcmlS67iueVOMBgxEq1cqEJLqZ40WJU4wWCAoUCC0r1799u3b8fFxV26dGnVqlVWVlZ9+/YlZxAEECQ3U6dONTExCQ4OfrMaDaDEYIhdu3axJ9VUq1bN3Nx8xowZ7JaX69evW1tbV61atVmzZjRrxIgRL168YEWeP38+ceJEMzMzUi0LCwv6u3v3bjkMBugUibGNDIZMhcak9eu/Zzlubqs6d25LAwnfYFxcVpKIdOr03rhxQ+LjT3D5VHDBgvGbNv3Qo0d7e/tOFMavPCsrqHr1qv7+26mqyZNHcvmrV888dMhZaSmJWfwEgxEj0cqFki118eJ+Ogy6dy/KnzdvHLUaN+vkyW3Dhn3UsWOb/v0/3LFjMVcVZzAkvhMnDvfw+IV9/O23LUOG9LG1fX/06IHh4Ue4eqhZDx9eu3v30p49O370URf+0gsKrv7663cffmjTu7ctHXswGGAojC++UdfU1LR+/fr9+vUjZ+A/eJcLIEhuyGZ8fHx4FWgM5QYjV/y8KDY2lpSF1EQw6++//6b8R48eCfKJp0+f0qykpKT8/HzhPAC0jsTYxgzG3X1Nhw7vshwylc2b5/MNhj7WqFFt48YfyEWGD3eoX792ZmYAm0WDWaNG9f71rwE066efZpubm5F/cJVv376oceP6eXnhNHq9/bbF8+chpZaSmMVPMBgxEq0svWM3bJhHDnHmzE5f3429etn26dOZ5e/Zs4zCliyZ9Mcfu6gFOWvhDCY21qdlyyazZ4/Jzw8vVGiupWVNqvzs2d0rVkyjYyYy0pMr0qyZ9VdfDT5+fJOz87f0tZBi2Kyff55DxwbpEdkPHXu0kjAYAMpEiQYDgBEgMbYxg3nx4i8rK4urV48kJPxWrVrV9PQLnMHk5obVqWO1bt1cFk8fmzdvvGzZFPaRRqZWrZqwAYzS/Pnj+be8dOv2wQ8//IcmXr68XKuWJX3DLrWUxCx+gsGIkWhl1XcsNT19X4yJ8Xn9OrRu3VorV04XxzCDuXhxP7ksqQ/LpAOjQYM6W7Ys4MImTBg+ZswnXJGuXdsVFFxlH+nQmjnzS5qgpdDRtW3bIpb/5EkwHScwGGDo5KRnPbv9N3VJlmiacoRBmgMGA4wZibGNGUyh4u5d+jK9fPnUkSP7FSpuR2D58fEnaEi7fl3GFfn668+5O39pZOJfHqLv8VWqVCEfomkqQgWjov4pOGXKKAeHrqWWkpjFTzAYMRKtLL1jHz48v3jx1/36fdihw7s2Nq0p/+TJbdRw1HzcSRRBVeSmb79twV08Kixu7unT/7VixTQ6ishxBw3q2bFjG67InDlOXPCMGaNHjepPE3Fxx6lUbKwPN4tKwWCAYZH/MifjUuStDYcvfbHwlM1Xsmq96VgVJ8qnuRRDkRRPpYQVlRe1DKYwL//hhfCEfSeiV+6lvzRNOcIgAHSHxNjGGQz7St28eePjxzcV8gwmIsKDxpg7d37jinz7rSONdmyaRibyHm7WpUuuFJyRUXSNae5cJ1NTk169bFlq0+YdGhpv3/aTLiUxi59gMGIkWll6x374oc1nn/U+fXoHWcvNm97m5mY+PhuuXCl6/BX/nid+Vb1721pY1Ni8eT6Xefmy+1tFz5IYv3btLC4pvXWG0syZX37+ed/C4qMrOfkUN4sEGgYDDIKC17l/+wRcGrmAU5aTbUYEj5gZOf//3dq8+a7rDjpoWaLpW5s3XZuzNHj4DIr5R2iq9gocNOuui1/+C3VftlhOg8l98uz6j7t86nwsUC3KoXyaKywAgC6QGNs4g6FEktGwYd3c3LBCnsFkZweTefj6buSKfPRRF+7bPI1MlLhZu3cvrVXLslBxdaBBgzpff/35/v0rudSixf8tXTpZopT0LH6CwYiRaGWJHZuaepYc4tYtX5ZPE/SRDObRo0ATExP+WRZ+VaQjQUEuVlYWP/00m2VmZgZQ/LFjv4rjuSLcR85gnjwpOrr8/bdzs957rzkMBug5r7OeRi3c7lN3AB2TJ5p8GjFvxf0TbjmZweLjVmmiSIqnUieafEI1eFv1o9qoTuFiVKY8BpMVHuvXdChTllPtvwidPO/GilWhk78/1X4ky6S5FCMsBoDWkRjb+AZD2kGJTfPv5B0z5pNOnd5jT707eHANDTn0hZvNopHJ1NSEBjyapm/SrVs3/f77f9O0l9d6Gs/+/vs0f1nLl09t1sw6Pz+8pFISFQoSDEaMRCtL7Njnz0PMzc127lxSqPCJQYN6UvuyMCenTynsxo1jhYrbXC5e3M9VxXSEDoM6daxWrJjG8seNG9KqVRPuwtPNm95//LFLUIQlzmAojR49sHv39iRMhYp7xumwgcEAfeae7By5i6ep3V9O36Wd9ygsvrurPKngatr5o8Fffku1edXuf9PFNzs7m/sxtuqU2WBITY7V/Ih61Lle4zJD//n6wiXKOdfLieZSDCQG6ByJsY1vMPzEN5i0tHMODl1paKld++2aNatv3PgDF0YjE403Xbq0rV+/NgX06/chjYKUP3Ron/79/7nSxCX2/f7UqR0llZKoUJBgMGIkWll6x27durBqVfNGjepZWtZcv/57C4sazGCys4O//HIgCQ0VoQD+zU+cjkREeDRoUGf+/PE0/ezZnxMnDjczM61btxZVQn937fpRXKTwTYO5f/+Mre37ZFEkQxSGq0hAn4lauJ2Ow7N2Y59Ea/I541TbqW6OVHPg1NUpKSll9ZiyGUzuk2fs7Mvl/3xXkPvPvf2CRPmX/zObYnwbf/ogIamsKwSABpEe21RM9+6dioqScb+IFqS4uOP8e2WkEzeeiUtJzOInGIwYFVtZ6Y59/Pji9esypbKYkREQGekpeO+ERCLvoeMkMfFkXp7y/43iVFBwNTbWJyFBuFb8BIMBOuemsysdhGHTFhTkqXHepYREdV6e/H3RaZFv1yYmJmZkZKjuDGUzmOtLdrKzL/mvi+4YKCnRXHYm5uykFdTZyiFWAGgEFcc2rSXBN3IVZ/ETDEaMvrWyZhMMBuiWx1G3Zeb2IY6zxAenBtOl0d94mvW8dOQ4Hd6qS0wZDKYwL5/dvyO+eCROFEORMiuHoAsBERERZRUrADSCvo1to0cPXL16pjhfehY/wWDE6FsrazbBYIBu+Wvscu/a/VS/Xbd8ieo/ZuXg3W9ySEiI6hJTBoNJDyz6N3Gqw7/Ey1aaTnUo+umUz5ot1OWYxGRnZwsrBaAiMb6xDQYjxvhamZ9gMECHFLzO9bJwCJv+v8cHVFwKnfaDZ/Vefj6+qktMGQwmYU/RaZWwqf+7mVE6hU0turJ1+OuF3t7eTGJSUlJKXSEANIjxjW0wGDHG18r8BIMBOiQr9CYdfrd3bhYfmRpPtBRa1tG1m/39/UNDQ1U561EGg4lZ60a1Ry1eLl6w0kSRFH/oX7MPHjzo6+sbFBREHa/UFQJAgxjf2AaDEWN8rcxPMBigQ+K3yujwi1n3s/jI1HiipRSd9fjPfHacR0dHZ2RkCFfoTcpgMMXnYOaJF6w0cedgXF1djxw5QlYVERFR6goBoEGMb2yDwYgxvlbmJxgM0CFJh0/T4Re5SNUzF+okWkrRoT5tyaFDh/z8/EJDQ1NSUoQr9CZlMJji+2BGiResNLH7YI4uW0cGw07DhISElLpCAGgQ4xvbYDBijK+V+QkGA3RI2tkrdPhdHPbPG20rNNFSaFkHfljt7u7u7e0dFBSUmJgoXKE3KYPBlOO3SMdqOXgcPkIGo/oKAaBB2Nh2a+P6tOL3dBh6om2BwQgwvlbmJ9biMBigE1jn8rL8SAu/RaKlKA71taof6mUwGPn/ngfjpOLzYLxHz8H/WaBDWPczvgSD4WOsrcxPMBigE1jnkpnZhTh+Ix7rNZioflqK4lCvMIPhPZN3dqnP5PW2Hujp6o7/s0CH0BGbHniVpdMb98pWbji4eC0NBkUGYNAJPYuH0bYyLx3YtQdtDbQPM5grk4ruag2bNq+CnslLNXNLqUCDkb/xXiQn8eUk7r1Ishq9PX/aSv9kPTw8cBUJ6AMhISF+fn5HjhxxMyJoc2ijaNPQsxhG2coMtDXQPsxg0i54RC1c5lH0XiRHjb8Xieqkmqn+tH9u+apIg5ErJMan0Sfs3Oap9iODhky60Pff9Jd7N7W39QCmLwT1OtzJC/SBiIgI6hJ0HNIxecAooA2hzTlf/LAl4QZXSoyvlRloa6ATOIMh20j23OtTt5+naY+/nL5NO39U/XdTUz1UG9VJNRf+76b1CjYY4kFC0tnJK2VvF52M4adjVh95jZ7DTnGzEzDkLvg1NdAHqDOEhoZSr6AvsjKjgDaENoc2Kl7x/ErhBldKjK+VGWhroBP4BkMp59GlqIXLvK2Khv4TTQZFzPvx/gk31W/ypUiKp1JUlmogd6HaqE42V3sGk52dTVUHXQjwXrX5aJevaKn09+jSdR6Hj3DuQtbCL0SEZQAACGxJREFU9AVPtAP6AH1zpSOQNDokJOS8UUAbQpsTX/zyVOEGV0qMr5UZaGugEwQGw1Le88sJ+7YHDpogq2rPTl6cbDM0ePjka3MW3dq8/q7rDu6XdDRNOZHzlwaPmEoxLFhWrdelkVPvee/PzwnlV6s9g8nJyaGOxE7YHnMsuvvm0IiZrgrYJVs2zfQFbxUA+gD936cvr3QQJiYmxhsFtCG0ObRRePc7h/G1MgNtDXSCUoP5n8q8uJIeLItdv+7SF9NO2YwgNeEuyPAT5dNciqFIiqdS4qq0ajByxX8K6lTkJb+NX0JLPfrF7L179+7Zs+e/CmiCPvKv3aryjgMAAAAA6AnSBiNOrx4GPY0/w52DoWnKEYcpTVo1GPoeQF8IyEvOTV9NS/Udu+DgwYO04P0KaII++vv7BwUFMX1R5T2TAAAAANATymow6iStGoxcITHZ2dl/zdtISyWP+e2333x9fY8poAn6yL9wC30BAAAADAhjNhhG5NJdtNTQBVvCwsL+/PPPIAU0QR9x1RYAAAAwUAzYYGjVo1fuLTVd6Dudlkp/L87+RZDEwVSncDEAAAAA0D8M2GBIODxENxWrmahO4WIAAAAAoH8YsMHgHAwAAABQaTFgg+Hz9OnTzMzM1NTU5OTkO29CpkJLpb9XRAgiOagSqooqpGpxlwwAAACgh8BglACDAQAAAPQcGIwSYDAAAACAngODUQIMBgAAANBzYDBKgMEAAAAAeg4MRgkwGAAAAEDPMRKDkSBa8dgY+iv0lDt3hKEAAAAAMBBgMAAAAAAwPGAwAAAAADA8MoIjaXx/cPaIWDg0nmgpRQaz5CcYDAAAAADU4tmdv2l8v+u2UywcGk+0FFrWgXVbYDAAAAAAUIuC17leFh+FTf9BLBwaT7QUWY3ebvtcYDAAAAAAUJe/xi73rt03JzNY7BwaTFQ/LUX20QQ3NzcYDAAAAADU5XHUbZm5fYjjN2Lt0GCi+j3Nenr+ugMGAwAAAADNcNN5P43yYdPmFeRdFcuHmonqpJqpfpnTPA8PD1dXV3d3d29v76CgoMTEROGqvAkMBgAAAABSRC3cRgP9WTvHJ9EnxRZS7kS1UZ1Us/cXs0hfDh06RAZDf/38/EJDQ1NSUoTr8SYwGAAAAACUQshGV6/afT1Ne/zl9G3a+aOFBWqcjym4SjVQPVTbsVoOx+atZvrCv4QUHR2dkZEhXIk3gcEAAAAAoBQSExMvnw/6bcy8Y5Z9aNA/0WRQxLwf759wU/0mX4qkeCpFZakGr9oOvqPneO535/TF1dX1yJEj/v7+oaGhtLjs7GzhSryJugaT/zLHv+2XtCr0Nz46BgYDAAAAGB8ZGRnx8fEhISF+x7w9py/1/dDR07wnjf6UTrYZGjx88rU5i25tXn/XdUfaBQ+WaJpyIucvDR4xlWJYsGdVez+H8bL5zp6Hj5C7kLIcPHiQ3IUMhqb9/PxoEbQgWlypr01Uy2AKCwoujVrI1onSmcHf3o6Ph8EAAAAARgb5BCcx/v7+JB/u+/YfWLLWY9w834/G+bYeSmrC+QA/Uf7xd4ed6DveZ9Iiz1UbPdwPkakcOnSIxIWdd2F371KFVK3q+iJX02AivttEK+dTd8B930D6S9MBE1fAYAAAAADjg5OY0NDQM2fOeHt7szMoBw4cYCLitnXngV+2uC9ayxJNH9i2y+1NWCSDClJxqoSqogqpWtX1Ra6OwcRvk5GyyKr1Tg+8Sh9Tzl72rNqLcoKXbotVQAaj4koAAAAAQP9hEpOYmBgREREUFOTv7+/r6yuTybjTKu7u7gckoQAKo2AqQgWpOFVCVVGFVK3q+iIvt8Gk+F30NLXzqNIj6dApuWKTnj59emWDG+V4mPQI2XaQGQxlqr4qAAAAANBzaFjPzs5OSUmJj48n7QgJCTl//jxZiJ+fH+mIt7e3TBIKoDAKpiJUkIpTJVQVVUjVlskZymMwWeGxXhYOHm91j161T16sL5mZmaQsgbN/LjoxU6PPNa9T9JEyITEAAACAkcE8JiMjg1OZ0NBQ0pGgoKDzklAAhVEwJy5USVndhVFmg3mR/OBE489IU65MWMVymL6kpqaSssTGxp7+/Dua691gUMzFy5TJJObNOgAAAABgJPBtJjExMV4SClDHWviUzWBynzw71X5M0R27H88syM2TK9ab6UtycjIzmJgb0b/bTaCYE+99cTc6lkmMmmsJAAAAAMCnDAZDykLiQmpCEkMqIy++fsTpC0dcxHXSF4r0t/86KeEuBeBaEgAAAAA0SBkM5sqEVUVnVhp/9iL5gZx3+wunLzSRWkxiWJRPw8EUf+6L+ZSPG2IAAAAAoEFUNZjoVftIR7wsHLLCY+U8fWG3v3D6wkyFzYo/HXys5kdU6uLcddwsSAwAAAAA1Eclg0k6dMqjSg9PU7sUv4vyN/WFnYDh60uOAhYQfeAE+9H11S2HIDEAAAAA0BSlG0x64FVZtd4eb3WP3yaTq6AvrBQXFu5cdPLGs2qvG57+4jAAAAAAgHJQisFkxyay1wVEfLdJrrK+MLjgS1PXFF2Bqt3/1oWQkoIBAAAAAFRHymBePcz6reUIko9LoxYWFhTIeY9+4e7elTYSJjEZ6ennPptD9fg0HXLn2g2uiDAaAAAAAEA1pAzmzy+XkHac7TEx/2WRneS8+egXdgJGQl8YTGLS76ee7DyWajvz2WzutI1EKQAAAAAACaQM5tXDLJIY+itX9ugXJiLS+sJgZZOux54dOjf2yrUylQUAAAAAECNlMHzY9SOBvqh+HqV8528AAAAAAJRSZoNhlONeFv49NAwYDAAAAADKR9kMJrWYcsgHu5akZiUAAAAAAPKyGgxH+cyDkxg16wEAAABAJef/A06Yld3BMzTBAAAAAElFTkSuQmCC;" vertex="1" parent="1">
          <mxGeometry x="40" y="160" width="927.54" height="560" as="geometry" />
        </mxCell>
      </root>
    </mxGraphModel>
  </diagram>
</mxfile>
